<svg width="303" height="333" viewBox="0 0 303 333" fill="none" xmlns="http://www.w3.org/2000/svg">
<path d="M299.173 194.49C294.516 190.547 282.096 186.665 271.746 185.31C261.396 183.954 249.173 184.916 238.958 186.086C237.592 184.73 234.621 182.267 234.621 182.267C235.78 180.652 237.167 176.812 235.418 169.63C233.669 162.447 225.368 138.083 221.425 125.86C217.482 113.637 211.013 95.9074 202.537 83.6842C194.06 71.461 183.969 63.8228 172.004 67.9007C160.04 71.9785 159.005 87.3067 159.905 94.9449C160.806 102.583 161.137 104.901 165.142 115.645H163.331C161.592 110.728 157.67 100.379 153.861 95.4624C153.167 95.2101 152.449 95.0264 151.719 94.9139C151.657 93.4856 151.243 88.5383 151.243 88.5383C152.151 87.1247 152.97 85.6556 153.696 84.1396C152.749 83.117 151.71 82.1849 150.591 81.3555C149.874 75.5936 148.858 69.8728 147.548 64.2161C148.502 62.8725 149.327 61.4412 150.011 59.9416C148.681 59.0655 147.274 58.3104 145.809 57.6854C144.332 52.6122 142.58 47.6231 140.562 42.7402C141.243 41.1722 141.786 39.548 142.186 37.8861C140.756 37.2169 139.287 36.6328 137.788 36.1369C137.074 34.9778 135.066 30.3824 133.648 28.5091L134.807 27.6294C131.702 15.5097 124.457 5.28399 118.806 2.31357C113.155 -0.656837 109.626 -0.532639 105.351 1.36139C101.077 3.25541 95.5189 7.83005 90.4371 11.97C81.8468 10.7177 74.3017 13.657 71.973 14.2159C69.6443 14.7748 61.147 11.2766 56.3654 9.68268C51.5837 8.0888 48.4684 9.68268 46.2743 12.7876C44.0801 15.8926 45.0219 18.832 45.2393 20.726C45.4566 22.62 41.5754 23.9138 35.5311 25.2592C29.4868 26.6047 20.4824 26.2425 16.301 27.7536C12.1197 29.2646 12.6372 32.8043 10.9088 35.2986C9.18033 37.7929 6.08572 38.2897 5.86838 42.7195C5.65103 47.1492 7.93835 48.1945 9.49083 50.6578C11.0433 53.1211 10.3913 56.3916 10.2257 61.3078L4.79199 57.0333C4.79199 57.0333 0 65.8721 0 73.6345C0 81.3969 6.29272 102.148 12.6786 113.016C19.0645 123.883 38.0772 124.608 54.4714 122.196C49.7273 133.205 47.1346 145.019 46.8332 157.003L45.0219 155.968C44.2457 149.406 43.5522 146.653 36.0486 146.736C28.5449 146.818 26.8269 149.406 27.9446 150.534C29.0624 151.662 31.9086 150.876 32.0846 153.122C24.7569 154.757 23.37 160.708 28.1206 163.378C26.1334 165.283 26.3922 169.981 29.4971 171.575C27.2305 176.316 29.818 180.89 35.707 179.855C35.707 179.855 35.7898 183.912 38.4705 185.372C41.1511 186.831 44.5044 186.407 48.8203 186.148C49.0791 188.994 49.6794 196.415 49.6794 196.415C49.6794 196.415 29.4764 204.467 24.8397 222.114C17.3774 250.534 46.709 261.909 52.2254 264.496C57.7419 267.084 61.2402 274.639 60.8055 281.625C60.3708 288.612 50.7144 304.281 56.8622 311.402C58.9322 319.941 63.9829 323.77 71.8281 324.805C70.8181 323.44 70.0866 321.889 69.6753 320.241C72.6043 323.863 76.9202 325.416 82.0124 325.675C80.8927 323.816 80.2394 321.713 80.108 319.547C83.1301 322.735 88.1291 324.288 91.8447 324.381C88.8226 320.324 88.8226 312.737 89.9404 308.163C95.1153 303.143 87.5909 297.285 91.3376 285.765C93.3455 279.618 99.8762 264.496 93.5421 261.961C89.0503 260.17 89.2883 258.576 88.7915 255.451C88.2947 252.325 90.7373 249.241 94.3597 250.493C100.079 252.678 105.919 254.533 111.851 256.051C115.018 263.472 124.136 272.507 127.045 281.108C128.525 285.476 126.724 289.284 123.619 294.884C120.514 300.483 117.73 304.654 121.031 312.354C120.193 321.99 123.815 327.279 128.732 332.278C129.243 328.682 130.571 325.252 132.613 322.249C134.467 326.347 137.478 329.815 141.276 332.226C141.71 326.968 143.025 320.727 144.898 317.622C146.022 323.294 149.089 328.397 153.571 332.05C154.405 326.494 156.314 321.154 159.191 316.329L161.851 315.625C168.382 304.064 171.549 287.111 170.711 273.708C170.986 272.826 171.14 271.91 171.166 270.986C172.129 272.6 173.619 275.902 173.619 275.902C176.403 269.495 177.179 259.404 177.179 259.404C190.5 258.825 208.871 253.712 219.811 247.637C223.722 252.847 228.385 257.448 233.648 261.288C233.069 259.601 231.899 255.264 231.899 255.264C235.46 260.377 247.3 270.406 255.776 274.929C256.762 265.531 256.716 256.052 255.642 246.664C257.07 248.216 259.72 251.197 259.72 251.197C260.197 244.574 260.003 237.919 259.14 231.335C261.727 232.826 270.194 226.098 275.762 222.404C281.33 218.709 294.257 210.377 299.432 206.361C304.607 202.345 303.831 198.444 299.173 194.49ZM39.6296 180L48.1683 179.483C48.3442 180.776 48.427 183.281 48.427 183.281C40.4887 184.119 40.2403 183.188 39.6296 179.979V180ZM191.09 177.765C189.388 175.587 187.872 173.271 186.556 170.84L188.047 168.315L192.704 177.433L191.09 177.765Z" fill="#332F50"/>
<path d="M35.7073 62.1668C30.9256 58.0269 23.0287 51.0821 21.9937 43.3197C20.9587 35.5573 24.3224 31.9349 28.4624 31.2932C32.6023 30.6515 42.0931 28.6126 46.2331 25.8699C50.373 23.1271 56.169 25.2385 58.8703 29.4509C61.7165 33.891 60.164 39.2833 58.6115 41.8708C65.0285 38.4656 67.1502 31.9038 64.8215 25.4352C64.8215 25.4352 68.8269 23.9758 70.8968 24.1C69.5498 25.8298 68.6344 27.8557 68.2266 30.0098C72.884 25.0936 78.9283 23.7999 84.3103 28.1572C89.6922 32.5145 91.2136 37.7308 92.2486 41.995C87.9741 43.2783 88.533 46.818 86.463 48.6396C89.6611 48.0186 89.0091 45.0482 94.184 46.0418C97.8479 46.7352 105.445 57.1679 97.8065 65.4478C97.8065 65.4478 87.3324 66.6069 83.3167 66.3482C83.3167 66.3482 92.29 62.9845 95.6537 58.5858C95.9418 60.2947 96.0425 62.03 95.9539 63.7607C97.8065 59.538 98.324 57.8095 98.0238 55.2221C97.7237 52.6346 97.289 52.0343 91.8139 52.7278C91.8139 52.7278 94.4428 53.0279 94.9189 54.9633C91.0651 58.6897 86.4849 61.5822 81.464 63.4606C79.6528 61.1319 78.742 60.3556 76.6721 60.1383C74.6021 59.9209 72.7909 59.8381 71.2384 58.4202C69.6859 57.0023 61.7165 50.2645 61.7165 50.2645L55.3306 59.4552L43.2109 50.0471L35.7073 62.1668Z" fill="#60F599"/>
<path d="M41.1203 28.2192C36.9899 29.5879 32.7573 30.6262 28.4624 31.3242C24.3224 31.9659 20.9587 35.5883 21.9937 43.3507C23.0287 51.1131 30.9256 58.0269 35.7073 62.1668L36.8768 60.2728C36.3386 55.0978 33.627 50.4922 32.8197 46.0417C31.9606 41.3222 31.7122 35.4124 41.1203 28.2192Z" fill="#63C1A7"/>
<path d="M87.4969 47.2529C88.5319 45.4106 88.9148 43.0094 92.2475 42.078C91.2125 37.8138 89.8256 32.7631 84.3091 28.2402C78.7926 23.7173 72.9243 25.1352 68.2254 30.0928C68.6333 27.9387 69.5487 25.9128 70.8957 24.183C68.8257 24.0588 64.8203 25.5182 64.8203 25.5182C65.6235 27.6926 65.8932 30.0281 65.6069 32.3284C76.4122 29.5857 85.903 37.1618 87.4969 47.2529Z" fill="#63C1A7"/>
<path d="M97.8058 65.4479C105.444 57.168 97.8058 46.7353 94.1834 46.0419C90.0434 45.2553 89.6294 46.932 88.0666 47.9566C90.5954 48.7944 92.8158 50.3696 94.4421 52.4795C97.5471 52.3346 97.8576 53.1315 98.0646 55.2222C98.3233 57.8097 97.8058 59.5381 95.9946 63.7609C96.0832 62.0301 95.9826 60.2948 95.6945 58.5859C92.3308 62.9846 83.3574 66.3483 83.3574 66.3483C87.3318 66.6071 97.8058 65.4479 97.8058 65.4479Z" fill="#63C1A7"/>
<path d="M82.6035 22.8788C88.3891 17.8798 99.8361 8.27513 102.765 6.27761C105.694 4.28008 109.41 2.13766 114.761 4.64233C120.111 7.147 126.57 14.216 130.285 25.5077L125.535 28.1469C125.319 26.3164 124.72 24.5519 123.776 22.9683C122.833 21.3848 121.567 20.0177 120.06 18.9562C120.06 18.9562 124.376 21.0262 125.752 22.8374C124.184 18.8279 121.124 15.582 117.213 13.7813C117.213 13.7813 105.87 27.5776 101.989 31.8107C101.989 31.8107 95.6133 34.3982 94.4852 34.9157C92.9925 32.0806 91.1534 29.4418 89.0101 27.0601C89.0101 27.0601 97.8075 19.6496 100.219 17.7453L97.7247 15.2509C97.7247 15.2509 89.1136 22.1026 86.5261 24.69C85.4103 23.7366 84.0529 23.1098 82.6035 22.8788V22.8788Z" fill="#EBF3ED"/>
<path d="M127.418 27.0602L130.285 25.5077C126.57 14.216 120.101 7.13669 114.761 4.64237C109.42 2.14806 105.704 4.29048 102.765 6.27765C99.8257 8.26483 88.3891 17.8799 82.6035 22.8374C84.0383 23.0757 85.3805 23.7021 86.4847 24.6487C89.0722 22.0612 97.6833 15.2096 97.6833 15.2096L98.3457 15.872C101.823 13.1603 109.617 7.06424 111.738 6.495C113.663 7.52999 117.627 11.5354 121.343 16.4826C123.232 18.2521 124.721 20.4046 125.711 22.796C126.797 25.487 127.418 27.0602 127.418 27.0602Z" fill="#C5D5CC"/>
<path d="M121.342 16.5551C123.231 18.3245 124.72 20.477 125.71 22.8685C126.796 25.5181 127.417 27.0912 127.417 27.0912L130.284 25.5388C126.569 14.2471 120.1 7.16774 114.76 4.67342C113.251 3.88966 111.569 3.50046 109.87 3.54208C108.17 3.58371 106.509 4.0548 105.041 4.91147C106.883 4.45608 108.715 4.58027 111.737 6.56745C113.662 7.62314 117.626 11.5768 121.342 16.5551Z" fill="white"/>
<path d="M115.918 21.3885C120.244 23.6965 123.567 29.865 121.973 39.1799C124.726 29.4407 121.786 23.7482 116.932 20.0947L115.918 21.3885Z" fill="white"/>
<path d="M113.332 38.9832L114.843 42.1916C116.623 41.0324 117.948 38.1759 118.01 34.7915L114.905 34.5224L117.885 32.2765C117.347 28.6229 115.412 25.9216 113.093 25.9216C112.834 25.9232 112.576 25.9615 112.328 26.0355L111.469 27.1326C111.599 27.0885 111.735 27.0641 111.872 27.0601C113.207 27.0601 114.294 28.892 114.294 31.2001C114.294 33.5081 113.259 35.2883 111.872 35.2883C110.485 35.2883 109.45 33.4563 109.45 31.2001C109.452 30.6057 109.532 30.0141 109.688 29.4406L108.653 30.8171C108.339 31.9811 108.182 33.1821 108.188 34.3878V34.6155L109.668 35.2572L108.291 36.1473C108.726 39.5835 110.361 42.2434 112.431 42.7195L113.332 38.9832Z" fill="#F73939"/>
<path d="M106.79 34.005C106.79 33.6738 106.79 33.3426 106.79 32.97L106.18 33.7462L106.79 34.005Z" fill="#E96759"/>
<path d="M119.096 31.3553L120.266 30.4756C119.376 26.7393 117.254 23.8931 114.625 23.0754L113.756 24.1829C116.292 24.6279 118.372 27.5052 119.096 31.3553Z" fill="#E96759"/>
<path d="M111.964 44.3859C109.542 43.6925 107.596 40.7428 106.975 36.9133L105.785 37.6896C106.603 41.7364 108.89 44.8413 111.654 45.6279L111.964 44.3859Z" fill="#E96759"/>
<path d="M119.354 34.9053C119.22 38.8693 117.698 42.2226 115.566 43.713L116.115 44.8825C118.682 43.1955 120.514 39.4489 120.679 35.0191L119.354 34.9053Z" fill="#E96759"/>
<path d="M125.886 31.614C126.331 39.542 121.187 49.3951 114.367 49.4986C108.157 49.5917 103.727 44.2616 102.144 36.3336L95.9336 38.6002C96.2544 39.6352 97.1652 42.678 97.1652 42.678C105.89 46.6834 106.408 58.0683 102.661 64.7336L106.48 64.2161L115.34 58.3891L115.443 58.4926C118.217 54.2181 122.305 51.9308 125.565 53.2142C128.608 54.4148 130.067 58.3891 129.529 62.9845L134.166 59.4966C134.962 54.1849 135.456 48.8323 135.646 43.4646C132.865 39.1484 129.589 35.1713 125.886 31.614V31.614Z" fill="#EBF3ED"/>
<path d="M125.492 66.5448C123.66 71.2023 120.172 74.1934 117.698 73.2205C115.225 72.2476 114.707 67.6833 116.539 63.0259C118.371 58.3684 121.859 55.3877 124.333 56.3605C126.806 57.3334 127.303 61.8977 125.492 66.5448Z" fill="white"/>
<path d="M125.494 66.5449C127.056 62.5809 126.901 58.6893 125.287 57.023C122.937 56.9609 120.029 59.7657 118.414 63.8642C116.8 67.9628 117.007 71.7301 118.611 73.3965C120.971 73.4793 123.879 70.6538 125.494 66.5449Z" fill="#EBF3ED"/>
<path d="M116.468 76.3564C112.752 74.897 111.417 69.3392 113.145 63.5018L107.08 67.7763C107.08 67.7763 87.2397 69.9291 82.4166 70.0119C82.4166 70.0119 79.4773 66.3894 78.5354 65.0957C77.5936 63.802 76.3723 63.6364 72.9258 63.4604L61.9756 54.663L55.8899 63.802L43.9876 54.4043L36.2252 66.7413L23.2464 54.5802L15.9187 69.5876L5.65167 62.5082C3.40575 69.7532 2.20517 74.245 3.75765 81.314C6.0201 90.0893 9.01838 98.6583 12.7206 106.93C15.1425 111.846 17.9784 116.245 25.3992 118.491C27.9478 119.178 30.5654 119.577 33.203 119.681C28.7422 112.364 22.0252 94.1271 20.4416 85.5263L23.6811 85.2676C26.9103 98.3188 32.1473 111.639 37.2602 119.795C43.4701 119.795 50.6425 119.205 57.3182 118.656C59.088 118.511 60.9821 118.315 62.9278 118.066C57.9599 109.497 51.1807 90.8669 50.1975 81.759L53.437 81.5002C56.0452 94.9551 61.4271 109.362 66.5606 117.57C76.4241 116.069 87.2604 113.43 94.5053 109.61C104.079 104.612 106.666 101.507 107.101 100.296C107.536 99.0847 109.606 86.758 112.618 80.724L117.451 79.5959L120.411 76.3771C119.136 76.842 117.737 76.8347 116.468 76.3564V76.3564Z" fill="#EBF3ED"/>
<path d="M66.5606 117.559C75.1924 116.245 84.6005 114.02 91.6384 110.956C80.9573 113.378 75.8859 81.345 73.2467 63.4811H72.9258L61.9757 54.6837L55.8899 63.802L43.9876 54.4043L36.2252 66.7413L23.2464 54.5802L15.9187 69.5876L5.65167 62.5082C3.40575 69.7532 2.20517 74.245 3.75765 81.314C6.0201 90.0893 9.01838 98.6583 12.7206 106.93C15.1425 111.846 17.9784 116.245 25.3992 118.491C27.9478 119.178 30.5654 119.577 33.203 119.681C28.7422 112.364 22.0252 94.1271 20.4416 85.5263L23.6811 85.2676C26.9103 98.3188 32.1473 111.639 37.2602 119.795C43.4701 119.795 50.6425 119.205 57.3182 118.656C59.088 118.511 60.9821 118.315 62.9278 118.066C57.9599 109.497 51.1807 90.8669 50.1975 81.759L53.437 81.5002C56.0452 94.9447 61.4271 109.352 66.5606 117.559Z" fill="#C5D5CC"/>
<path d="M40.498 41.1258C41.4399 35.7749 43.5099 31.635 47.8258 30.7759C52.1416 29.9169 54.1185 32.7528 53.8597 35.7749C53.601 38.7971 50.5892 41.2086 48.426 40.5152C45.7835 39.8981 43.0149 40.1113 40.498 41.1258V41.1258Z" fill="#332F50"/>
<path d="M7.46094 72.4341L8.67187 68.377L12.0356 72.1754L11.2593 76.9156L7.46094 72.4341Z" fill="#332F50"/>
<path d="M23.5039 68.8943L26.0086 64.2368L29.1135 67.6833L28.3373 73.6345L23.5039 68.8943Z" fill="#332F50"/>
<path d="M41.1816 69.153L44.121 64.1541L47.3088 67.9421L45.2388 74.152L41.1816 69.153Z" fill="#332F50"/>
<path d="M60.8477 72.9515L61.1996 65.9653L63.5283 64.4128L65.3395 67.4247L60.8477 72.9515Z" fill="#332F50"/>
<path d="M85.7797 71.7406L107.773 69.7741L112.513 66.5657C112.636 65.5147 112.847 64.476 113.145 63.4607L107.08 67.7352C107.08 67.7352 87.2391 69.888 82.416 69.9708C82.7876 70.5199 83.2891 70.9689 83.8759 71.2776C84.4627 71.5864 85.1167 71.7454 85.7797 71.7406V71.7406Z" fill="white"/>
<path d="M134.164 59.4967C134.96 54.185 135.454 48.8324 135.644 43.4648C132.862 39.1521 129.587 35.1786 125.884 31.6245C125.941 32.8871 125.875 34.1523 125.688 35.4022C128.627 38.9108 132.932 44.7171 132.932 44.7171C132.932 47.5737 131.991 57.2922 131.349 61.5667L134.164 59.4967Z" fill="white"/>
<path d="M102.144 36.3335L95.9336 38.6001C96.2544 39.6351 97.1652 42.678 97.1652 42.678C97.4447 42.8022 97.6931 42.9574 97.9518 43.1023L103.499 40.9185C102.905 39.4359 102.451 37.9009 102.144 36.3335V36.3335Z" fill="#C5D5CC"/>
<path d="M40.1676 156.527C36.7418 154.26 31.629 154.519 28.9794 156.278C26.3298 158.038 26.7128 161.319 30.211 162.095C33.7093 162.871 37.1972 160.739 37.1351 158.928C36.252 158.983 35.391 159.227 34.6097 159.642C35.5826 157.686 39.0084 156.972 40.1676 156.527Z" fill="white"/>
<path d="M41.8536 164.806C38.0966 162.861 33.315 162.54 30.7896 164.413C28.2642 166.286 27.9434 169.65 32.1454 169.588C32.1454 169.588 31.8246 169.588 31.245 168.491C34.1533 169.588 39.4628 167.394 41.8536 164.806Z" fill="white"/>
<path d="M41.2026 173.148C40.3643 177.03 37.5491 179.11 33.1815 178.003C29.3727 177.03 30.4077 172.693 32.9228 171.793C33.7672 171.445 34.6809 171.299 35.5916 171.365C36.5023 171.432 37.385 171.709 38.1701 172.176C37.2755 172.584 36.3071 172.806 35.3239 172.828C36.421 173.79 39.3914 174.049 41.2026 173.148Z" fill="white"/>
<path d="M46.9694 160.056C45.4997 161.008 44.2888 162.219 43.9473 166.183C44.9171 165.722 45.9783 165.485 47.0522 165.49C46.9224 163.682 46.8948 161.867 46.9694 160.056V160.056Z" fill="white"/>
<path d="M140.024 51.8169C143.998 63.5433 147.269 82.1731 147.786 101.32C140.376 115.293 130.709 122.372 120.711 128.23C110.713 134.088 106.904 141.685 108.457 151.176C110.009 160.666 119.5 162.902 119.5 162.902L116.395 164.63C110.527 162.56 105.528 161.867 100.87 163.254C99.3179 158.938 98.6244 157.21 94.8364 157.561C91.0483 157.913 83.8345 162.902 84.8695 164.63C85.9045 166.359 88.316 165.324 89.5269 167.042C85.387 170.499 84.0104 177.909 91.0794 179.979C90.3859 184.813 93.8428 185.848 95.2193 186.541C93.6669 191.882 97.1134 197.057 105.569 194.304C108.498 198.092 110.568 200.162 113.156 198.609C115.743 197.057 119.717 194.469 119.717 194.469C114.025 203.101 109.523 214.475 110.899 226.895C110.899 226.895 105.869 235.444 107.701 244.49C91.69 240.36 78.6595 221.555 75.8547 212.416C80.3082 220.102 86.8363 226.379 94.6915 230.528C67.0884 203.442 63.6419 161.867 69.9967 127.371C69.9967 127.371 93.4495 123.231 110.009 111.67C110.009 111.67 112.938 98.3913 114.325 93.9098L123.723 94.5929L133.648 65.9652L137.954 61.9908C137.954 61.9908 139.724 54.5803 140.024 51.8169Z" fill="#60F599"/>
<path d="M142.879 109.186C144.699 106.684 146.338 104.055 147.785 101.32C147.268 82.1731 143.997 63.5433 140.023 51.8169C139.681 54.5803 137.953 61.9908 137.953 61.9908L136.369 63.4501C140.147 76.9878 142.455 94.6964 142.879 109.186Z" fill="#A5FFC5"/>
<path d="M180.284 69.8568C177.71 69.4032 175.06 69.6682 172.626 70.6227C170.584 71.4326 168.775 72.7337 167.357 74.4107C170.007 76.1081 178.328 75.4664 180.284 69.8568Z" fill="#F73939"/>
<path d="M183.12 70.5608C181.05 77.3607 171.155 80.0206 165.69 76.7707C161.902 83.3429 162.027 93.4237 163.848 102.759C180.242 106.04 195.746 97.0047 201.78 88.0314C197.589 79.9999 190.437 72.993 183.12 70.5608Z" fill="#F73939"/>
<path d="M203.509 90.5461C203.233 90.9463 202.943 91.35 202.64 91.7571C205.931 97.5427 211.851 112.001 211.851 112.001L208.695 114.879C208.695 114.879 202.971 101.093 199.752 95.0483C199.214 95.5865 198.655 96.0833 198.065 96.6112C201.46 102.987 206.935 116.203 206.935 116.203L202.992 118.957C202.992 118.957 197.496 105.698 194.246 99.4884C185.519 105.185 175.004 107.479 164.697 105.936C166.937 113.333 169.85 120.508 173.401 127.371C173.401 127.371 182.354 128.251 185.2 129.441C188.047 130.631 189.599 131.832 191.472 136.624C200.146 135.454 210.62 129.161 216.964 122.558C213.586 111.455 209.077 100.729 203.509 90.5461Z" fill="#EBF3ED"/>
<path d="M192.932 140.195C201.118 138.29 213.01 133.985 218.185 126.315L220.152 132.246C214.283 139.574 203.447 143.827 195.002 145.463L192.932 140.195Z" fill="#EBF3ED"/>
<path d="M213.341 167.394C211.271 162.126 212.306 160.532 214.634 159.89C216.704 159.3 224.311 156.289 226.692 151.838C224.622 144.842 224.26 145.256 222.221 138.456C217.905 144.924 206.303 149.603 197.381 151.414C197.381 151.414 200.258 158.493 201.718 162.447C203.249 166.587 199.234 166.959 196.646 166.783C194.059 166.607 190.354 166.007 190.354 166.007L197.422 179.814C200.703 186.189 208.197 190.754 220.503 185.434C218.857 181.242 215.276 172.196 213.341 167.394Z" fill="#EBF3ED"/>
<path d="M231.36 167.394C230.667 165.076 229.208 160.222 227.686 155.119C224.975 159.352 219.541 161.495 217.74 162.219C215.939 162.944 215.877 163.378 216.529 165.583C217.026 167.28 221.445 178.872 223.422 184.047C232.934 178.965 233.027 172.921 231.36 167.394Z" fill="#EBF3ED"/>
<path d="M282.831 208.411C283.866 210.191 281.858 213.223 278.401 215.19C274.944 217.156 271.332 217.26 270.318 215.521C269.303 213.782 271.291 210.708 274.747 208.742C278.204 206.775 281.827 206.63 282.831 208.411Z" fill="white"/>
<path d="M256.16 215.966C257.275 220.165 258.139 224.426 258.748 228.727C259.607 225.188 259.524 218.802 258.23 215.272L256.16 215.966Z" fill="#A5FFC5"/>
<path d="M280.098 203.101C275.441 203.36 269.749 205.854 265.35 212.675L260.951 214.227C262.928 218.109 262.669 223.449 262.069 227.682C264.232 226.275 271.477 222.373 277.594 218.253C273.34 219.961 269.19 219.526 267.751 216.991C266.085 214.062 268.703 209.425 273.588 206.641C278.473 203.857 283.793 203.991 285.46 206.931C286.339 208.483 286.008 210.512 284.787 212.499C285.545 211.751 286.159 210.871 286.598 209.901C288.378 205.078 284.756 202.853 280.098 203.101Z" fill="#EBF3ED"/>
<path d="M274.748 201.631C275.7 196.115 286.216 196.115 287.768 193.01C292.684 194.386 298.894 197.408 299.153 200.42C299.412 203.432 292.426 207.841 289.673 209.828C292.778 203.96 285.439 197.491 274.748 201.631Z" fill="#EBF3ED"/>
<path d="M271.57 189.004C267.988 188.58 264.382 188.393 260.775 188.446C263.239 190.681 268 190.805 271.57 189.004Z" fill="#EBF3ED"/>
<path d="M276.662 189.812C269.417 195.597 260.433 194.459 256.117 188.611C250.601 188.943 245.891 189.646 242.486 189.988C246.461 193.61 252.536 203.381 255.124 212.861L262.368 210.512C266.332 204.654 269.789 203.681 269.789 203.681C271.528 192.493 280.822 194.511 283.762 191.582C281.429 190.863 279.059 190.272 276.662 189.812V189.812Z" fill="#EBF3ED"/>
<path d="M231.619 184.989C250.248 197.926 255.775 223.283 256.676 243.59C254.904 241.813 252.919 240.263 250.766 238.974C253.188 247.088 252.153 262.778 252.153 267.953C243.221 262.913 230.677 250.752 227.996 243.848C227.797 246.577 227.797 249.317 227.996 252.046C218.34 242.555 206.655 221.255 210.101 193.476C217.646 193.786 228.514 189.129 231.619 184.989Z" fill="white"/>
<path d="M239.734 223.8C239.734 223.8 245.427 228.975 247.238 231.687C245.81 222.507 242.187 215.521 239.476 209.828C241.872 211.777 244.042 213.988 245.944 216.421C242.839 207.934 237.788 197.357 227.314 188.549C223.82 190.585 220.022 192.045 216.064 192.875C214.594 203.225 216.168 215.376 221.932 227.423C221.932 227.423 222.057 222.113 222.315 218.626C222.315 218.626 225.938 232.08 232.148 239.325C231.159 235.37 230.467 231.347 230.078 227.288C233.7 235.568 241.597 247.988 245.478 253.556C244.516 243.331 241.411 230.911 239.734 223.8Z" fill="#60F599"/>
<path d="M184.746 173.728C188.024 179.39 192.704 184.112 198.335 187.442C201.306 191.975 205.063 192.358 206.874 192.875C204.015 211 207.88 229.545 217.741 245.018C204.028 251.745 178.795 258.473 159.389 256.009L158.871 253.815C174.913 240.102 180.896 227.941 183.452 215.127C186.008 202.314 181.775 189.905 178.795 186.024C178.795 186.024 178.929 182.008 178.153 180.331C178.153 180.331 180.088 180.714 180.999 179.42C181.91 178.127 184.746 173.728 184.746 173.728Z" fill="#60F599"/>
<path d="M206.873 192.875C205.061 192.358 201.304 191.975 198.334 187.442C192.702 184.112 188.022 179.39 184.745 173.728C184.745 173.728 181.898 178.127 180.998 179.42C180.741 179.775 180.379 180.04 179.963 180.176C182.292 182.857 191.017 192.358 199.876 196.198C199.048 215.748 201.832 231.853 213.569 246.912C215.049 246.291 216.436 245.66 217.709 245.028C207.856 229.548 204.002 210.999 206.873 192.875V192.875Z" fill="#A5FFC5"/>
<path d="M176.404 256.144C192.229 229.794 188.348 201.394 181.382 191.023C184.269 198.716 184.985 207.055 183.452 215.128C180.896 227.931 174.913 240.112 158.871 253.816L159.389 256.01C165.04 256.657 170.743 256.702 176.404 256.144V256.144Z" fill="#63C1A7"/>
<path d="M198.2 159.818C196.306 155.119 190.313 139.45 188.885 136.345C188.284 135.07 187.408 133.945 186.32 133.05C185.232 132.155 183.958 131.513 182.592 131.17C180.346 130.559 171.331 129.617 165.08 128.986L166.115 131.48C172.253 132.184 178.638 132.857 181.34 133.405C184.269 134.016 186.256 134.958 187.891 139.015C189.526 143.072 194.701 155.057 196.088 158.597C197.475 162.136 197.123 162.82 195.053 162.478C193.76 162.261 190.53 161.805 188.274 161.505L189.185 163.513C189.185 163.513 195.571 164.372 197.123 164.548C198.676 164.724 200.021 164.331 198.2 159.818Z" fill="#C5D5CC"/>
<path d="M179.788 138.125C180.854 137.909 181.958 137.977 182.99 138.322C184.022 138.667 184.945 139.277 185.666 140.091C184.321 137.255 183.069 136.034 180.823 135.609C179.125 135.289 170.628 134.285 166.975 133.86L169.438 140.07C171.872 140.264 174.292 140.61 176.683 141.105C176.944 140.407 177.358 139.777 177.896 139.261C178.433 138.745 179.08 138.357 179.788 138.125V138.125Z" fill="#C5D5CC"/>
<path d="M193.284 158.079C192.652 156.537 190.727 151.869 188.926 147.605C189.03 150.782 187.612 153.453 185.149 154.167L184.869 154.229C185.614 155.854 186.328 157.406 186.939 158.752C188.347 158.969 189.982 159.197 190.996 159.28C193.066 159.456 194.06 159.973 193.284 158.079Z" fill="#C5D5CC"/>
<path d="M186.494 144.459C185.149 141.25 182.261 139.408 180.036 140.319C179.403 140.64 178.866 141.124 178.481 141.72C178.095 142.316 177.875 143.004 177.842 143.714C178.142 143.527 178.401 143.372 178.597 143.238C179.136 142.887 179.737 142.641 180.367 142.513C180.498 142.382 180.653 142.277 180.823 142.203C182.116 141.664 183.928 142.979 184.797 145.152C185.666 147.326 185.408 149.51 184.124 150.048C184.004 150.093 183.879 150.125 183.752 150.141C183.402 150.45 183.028 150.73 182.634 150.979C182.334 151.176 182.002 151.383 181.671 151.611C182.151 151.907 182.692 152.09 183.254 152.146C183.815 152.201 184.382 152.128 184.911 151.931C187.136 151.021 187.84 147.667 186.494 144.459Z" fill="#C5D5CC"/>
<path d="M140.634 171.203C140.634 171.203 174.788 147.926 177.283 146.363C179.994 144.645 181.598 143.693 182.716 145.504C183.834 147.315 182.199 148.35 179.87 149.903C177.541 151.455 121.093 189.398 116.57 192.575C112.047 195.753 111.219 195.763 108.994 192.42C108.994 192.42 110.878 192.14 113.507 189.408C116.311 187.338 129.114 178.965 129.114 178.965C134.113 177.93 139.247 175.601 140.634 171.203Z" fill="#C5D5CC"/>
<path d="M281.133 190.847C275.482 192.4 269.893 194.863 266.643 200.638C261.81 201.89 261.985 206.465 258.187 206.848C256.748 200.762 252.495 194.273 247.568 189.439C245.664 189.667 243.956 189.874 242.486 190.029C246.461 193.652 252.536 203.422 255.124 212.903L262.368 210.553C266.332 204.695 269.789 203.722 269.789 203.722C271.528 192.534 280.822 194.552 283.762 191.623C282.851 191.313 281.992 191.075 281.133 190.847Z" fill="white"/>
<path d="M280.13 196.757C277.522 197.792 275.172 199.158 274.748 201.631C285.439 197.491 292.778 203.96 289.673 209.828C290.366 209.321 291.339 208.669 292.384 207.914C293.212 205.968 293.74 203.629 292.86 201.631C291.329 198.154 286.081 196.301 280.13 196.757Z" fill="white"/>
<path d="M282.829 208.41C282.064 207.044 279.724 206.816 277.168 207.665C274.363 209.601 272.863 212.198 273.763 213.792C274.539 215.158 276.868 215.386 279.435 214.537C282.239 212.602 283.74 210.004 282.829 208.41Z" fill="#EBF3ED"/>
<path d="M266.882 224.836C267.099 220.158 266.933 215.914 265.578 212.323C265.505 212.447 265.422 212.55 265.35 212.675L260.951 214.227C262.928 218.108 262.669 223.449 262.069 227.682C262.959 227.102 264.708 226.098 266.882 224.836Z" fill="white"/>
<path d="M225.285 157.872C227.614 165.117 229.622 171.751 231.143 176.947C232.675 173.78 232.292 170.499 231.361 167.394C230.667 165.076 229.208 160.222 227.686 155.119C227.016 156.143 226.208 157.069 225.285 157.872V157.872Z" fill="white"/>
<path d="M219.781 141.261C221.323 145.897 222.783 150.493 224.107 154.891C225.15 154.041 226.028 153.006 226.695 151.838C224.625 144.842 224.263 145.256 222.224 138.456C221.515 139.478 220.696 140.419 219.781 141.261Z" fill="white"/>
<path d="M217.636 134.937C218.537 134.101 219.378 133.202 220.151 132.246L218.184 126.315C217.441 127.401 216.592 128.41 215.648 129.327C216.318 131.183 216.98 133.053 217.636 134.937Z" fill="white"/>
<path d="M203.508 90.5461C203.232 90.9463 202.942 91.35 202.639 91.7571C205.93 97.5427 211.85 112.001 211.85 112.001L209.78 113.885C211.25 117.508 212.73 121.306 214.179 125.208C215.214 124.328 216.125 123.438 216.994 122.538C213.604 111.441 209.085 100.721 203.508 90.5461V90.5461Z" fill="white"/>
<path d="M196.399 166.763C193.843 166.566 190.396 166.007 190.396 166.007L197.465 179.814C198.338 181.59 199.573 183.163 201.09 184.434C202.606 185.705 204.372 186.645 206.273 187.193C203.976 182.939 200.415 175.519 196.399 166.763Z" fill="#C5D5CC"/>
<path d="M170.773 106.413C168.739 106.402 166.708 106.243 164.697 105.937C166.937 113.333 169.85 120.508 173.401 127.371C173.401 127.371 176.382 127.671 179.446 128.137C175.668 119.133 172.511 111.277 170.773 106.413Z" fill="#C5D5CC"/>
<path d="M169.221 75.0733C170.42 75.2666 171.643 75.2666 172.843 75.0733C172.739 73.6905 172.805 72.3001 173.04 70.9334C175.167 70.6461 177.332 70.8406 179.374 71.5026C179.76 70.9777 180.067 70.3988 180.285 69.7845C177.71 69.3309 175.06 69.5959 172.626 70.5504C171.063 71.6821 169.876 73.2581 169.221 75.0733Z" fill="#E96759"/>
<path d="M179.478 102.459C177.408 96.5285 174.106 85.8992 173.102 78.054C171.505 78.2742 169.881 78.2006 168.31 77.8367C166.416 85.0816 167.182 95.566 168.941 103.432C172.482 103.61 176.03 103.282 179.478 102.459V102.459Z" fill="#E96759"/>
<path d="M201.823 88.0417C197.631 79.9999 190.521 72.993 183.193 70.5608C182.942 71.3135 182.594 72.0302 182.158 72.6929C189.155 76.1394 195.385 83.9639 199.225 91.2605C200.177 90.2596 201.045 89.1831 201.823 88.0417Z" fill="#E96759"/>
<path d="M153.996 170.582L162.628 165.148C162.628 165.148 170.214 165.665 173.402 171.699C168.486 168.512 161.458 166.266 153.996 170.582Z" fill="#C5D5CC"/>
<path d="M166.156 162.302C172.718 163.937 177.2 168.077 179.611 174.639L185.562 164.889L181.598 158.079L175.647 163.596L170.772 159.28L166.156 162.302Z" fill="#C5D5CC"/>
<path d="M151.844 176.015C159.689 175.239 167.369 176.533 174.955 182.66C173.237 173.604 162.276 167.911 151.844 176.015Z" fill="#EBF3ED"/>
<path d="M161.199 124.566C160.423 115.251 157.453 108.524 152.402 99.9854C151.978 101.099 151.498 102.191 150.963 103.256C154.627 109.1 157.113 115.605 158.281 122.403L156.014 124.67C154.861 118.336 152.458 112.294 148.945 106.899C147.653 108.959 146.225 110.93 144.671 112.798C147.673 117.996 149.885 123.612 151.232 129.462L148.717 131.946C147.367 126.218 145.155 120.729 142.156 115.665C137.393 120.765 131.961 125.197 126.01 128.841C138.947 130.259 143.346 138.797 143.346 147.729C144.122 150.576 144.64 158.203 144.64 158.203C151.046 155.357 157.453 151.279 161.334 145.98C160.299 142.616 161.976 133.881 161.199 124.566Z" fill="#C5D5CC"/>
<path d="M156.417 134.616C156.417 127.599 152.846 116.204 147.982 108.389C146.947 109.911 145.84 111.381 144.67 112.798C147.673 117.996 149.884 123.612 151.232 129.462L148.717 131.946C147.367 126.218 145.154 120.729 142.155 115.665C141.493 116.38 140.809 117.073 140.137 117.735C143.244 121.448 145.185 125.995 145.715 130.807C146.693 139.016 148.39 147.124 150.787 155.036C153.673 153.358 156.339 151.327 158.725 148.992C157.317 144.325 156.541 139.49 156.417 134.616V134.616Z" fill="#EBF3ED"/>
<path d="M115.918 148.567C115.918 141.602 122.024 135.951 129.569 135.951C131.651 135.953 133.709 136.401 135.603 137.265C134.092 135.665 132.216 134.454 130.135 133.735C128.054 133.017 125.83 132.813 123.654 133.141C121.477 133.468 119.412 134.318 117.635 135.617C115.857 136.916 114.421 138.626 113.448 140.6C112.475 142.575 111.994 144.755 112.047 146.956C112.1 149.157 112.684 151.312 113.75 153.238C114.817 155.164 116.333 156.803 118.17 158.015C120.008 159.228 122.111 159.978 124.301 160.201C121.89 159.339 119.797 157.766 118.3 155.688C116.803 153.611 115.972 151.128 115.918 148.567Z" fill="#EBF3ED"/>
<path d="M143.025 163.523C143.025 165.593 142.093 167.239 140.955 167.239C139.816 167.239 138.885 165.573 138.885 163.523C138.885 161.474 139.806 159.797 140.955 159.797C142.104 159.797 143.025 161.453 143.025 163.523Z" fill="white"/>
<path d="M140.955 156.133C140.955 155.191 141.172 148.692 137.674 143.848C133.534 138.073 124.219 138.456 120.948 144.427C117.678 150.399 121.631 155.574 125.864 157.385C128.597 153.929 134.331 153.401 139.009 156.775C139.574 156.362 140.255 156.137 140.955 156.133V156.133Z" fill="#EBF3ED"/>
<path d="M136.235 163.523C136.216 162.103 136.488 160.694 137.032 159.383C133.12 155.947 129.063 158.131 127.045 159.828C125.027 161.526 122.191 164.165 119.158 166.431C121.932 169.598 122.905 172.32 122.781 177.04C131.744 175.87 136.039 173.863 138.13 169.36C136.843 167.692 136.174 165.629 136.235 163.523V163.523Z" fill="#EBF3ED"/>
<path d="M105.891 165.448C111.397 165.707 117.731 166.421 119.418 172.497C121.105 178.572 118.052 182.526 113.85 184.658C113.27 182.526 112.494 180.973 109.968 179.938C110.362 176.316 108.996 173.407 106.605 171.979C107.257 169.267 107.443 167.456 105.891 165.448Z" fill="#EBF3ED"/>
<path d="M100.135 184.989C97.2267 186.541 96.5747 189.967 99.1001 191.644C101.625 193.32 108.094 191.199 111.199 187.442C111.261 184.213 109.709 183.623 108.218 182.463C105.01 185.33 98.7171 188.363 100.135 184.989Z" fill="#EBF3ED"/>
<path d="M104.793 174.246C100.85 174.639 93.1498 179.296 94.4435 182.463C95.7373 185.63 105.508 182.526 107.443 179.938C107.898 177.868 107.381 175.281 104.793 174.246Z" fill="#EBF3ED"/>
<path d="M102.245 165.883C97.3293 165.821 91.8956 167.777 89.9809 170.023C88.0662 172.269 87.9109 177.651 94.1829 177.392C92.2475 175.581 94.1208 174.36 96.2529 174.225C98.385 174.09 101.624 173.583 103.56 172.155C104.533 170.447 105.702 166.98 102.245 165.883Z" fill="#EBF3ED"/>
<path d="M120.908 144.552C117.803 150.42 121.684 155.585 125.887 157.386C126.957 156.058 128.445 155.132 130.109 154.757C128.12 150.52 124.918 146.968 120.908 144.552V144.552Z" fill="#C5D5CC"/>
<path d="M124.301 160.201C121.89 159.34 119.797 157.766 118.3 155.688C116.803 153.611 115.972 151.128 115.918 148.568C115.924 146.568 116.437 144.602 117.408 142.855C115.985 142.302 114.53 141.835 113.051 141.457C112.249 143.422 111.915 145.546 112.077 147.662C112.239 149.777 112.892 151.826 113.984 153.646C115.076 155.465 116.577 157.005 118.368 158.143C120.159 159.281 122.19 159.985 124.301 160.201Z" fill="#C5D5CC"/>
<path d="M125.689 132.981C122.514 132.968 119.434 134.066 116.984 136.086C120.348 135.498 123.79 135.515 127.148 136.137C127.949 136.005 128.758 135.936 129.57 135.93C131.652 135.932 133.709 136.381 135.604 137.245C134.33 135.895 132.793 134.82 131.087 134.087C129.382 133.354 127.545 132.977 125.689 132.981V132.981Z" fill="white"/>
<path d="M140.955 156.133C140.955 155.192 141.172 148.692 137.674 143.848C136.233 141.924 134.166 140.562 131.83 139.996C129.494 139.429 127.034 139.693 124.871 140.743C130.864 141.437 137.777 145.991 138.098 156.154C138.409 156.34 138.709 156.547 139.009 156.765C139.575 156.356 140.256 156.135 140.955 156.133V156.133Z" fill="white"/>
<path d="M140.955 161.826C140.014 161.826 139.227 162.964 138.979 164.517C139.227 166.059 140.014 167.197 140.955 167.197C141.897 167.197 142.684 166.059 142.932 164.517C142.684 162.964 141.897 161.826 140.955 161.826Z" fill="#EBF3ED"/>
<path d="M119.872 175.415C117.083 177.476 114.012 179.124 110.754 180.311C111.566 180.754 112.266 181.376 112.804 182.128C113.342 182.881 113.702 183.746 113.859 184.657C117.336 182.888 120.058 179.865 119.872 175.415Z" fill="white"/>
<path d="M122.668 173.946C122.778 174.977 122.816 176.014 122.782 177.051C131.745 175.881 136.04 173.873 138.131 169.371C137.447 168.539 136.946 167.573 136.661 166.535C132.635 170.685 126.27 172.755 122.668 173.946Z" fill="white"/>
<path d="M117.223 168.75C114.459 166.09 109.978 165.645 105.838 165.448C106.653 166.435 107.073 167.689 107.018 168.967C109.709 168.636 113.963 168.139 117.223 168.75Z" fill="#C5D5CC"/>
<path d="M127.045 159.818C124.975 161.567 122.191 164.154 119.158 166.421C119.732 167.075 120.261 167.766 120.742 168.491C123.778 166.593 126.588 164.353 129.115 161.815C131.112 159.621 132.996 158.162 134.797 157.976C131.651 156.754 128.68 158.441 127.045 159.818Z" fill="#C5D5CC"/>
<path d="M96.2533 174.246C98.3854 174.121 101.625 173.604 103.56 172.176C103.718 171.898 103.86 171.611 103.985 171.317C96.2533 170.82 90.0434 173.635 92.1134 177.247C92.7931 177.393 93.4891 177.449 94.1834 177.413C92.2479 175.601 94.1213 174.38 96.2533 174.246Z" fill="#C5D5CC"/>
<path d="M107.442 179.938C107.551 179.456 107.596 178.962 107.577 178.468C103.53 180.869 97.6825 182.722 94.6914 182.846C96.6268 185.341 105.569 182.412 107.442 179.938Z" fill="#C5D5CC"/>
<path d="M97.7852 190.091C98.0543 190.731 98.5131 191.273 99.0996 191.644C101.625 193.331 108.094 191.199 111.199 187.442C111.264 186.49 111.071 185.539 110.64 184.689C103.736 191.261 99.8965 191.406 97.7852 190.091Z" fill="white"/>
<path d="M88.1705 322.135C85.8458 321.234 83.7609 319.807 82.0786 317.967C80.3964 316.127 79.1623 313.922 78.4727 311.526C79.9761 311.819 81.5234 311.802 83.02 311.477C84.5167 311.151 85.9311 310.523 87.1769 309.632C86.4007 313.596 86.3593 319.34 88.1705 322.135Z" fill="white"/>
<path d="M75.6277 310.708C75.6795 312.772 76.2912 314.783 77.3975 316.525C77.2332 318.833 77.6944 321.143 78.7327 323.211C74.3754 322.694 69.2833 317.912 68.3828 311.743C70.3803 313.42 74.7169 312.385 75.6277 310.708Z" fill="white"/>
<path d="M65.2038 311.05C65.4807 312.539 65.9001 313.998 66.4561 315.407C66.5989 317.791 67.1704 320.13 68.1432 322.311C65.7705 321.45 63.7119 319.894 62.2352 317.847C60.7585 315.8 59.932 313.356 59.8633 310.833C60.6811 311.264 61.585 311.508 62.509 311.545C63.4329 311.583 64.3536 311.414 65.2038 311.05V311.05Z" fill="white"/>
<path d="M142.745 239.853C146.885 231.408 154.43 226.626 159.616 229.162C164.004 231.304 165.267 238.011 163.052 245.142C182.137 226.781 188.926 186.148 162.627 180.673C135.366 174.98 120.193 195.163 115.701 212.581C128.473 205.854 131.743 215.686 131.919 227.765C132.095 239.843 131.919 248.464 140.023 252.428L140.251 252.377C139.893 248.051 140.757 243.712 142.745 239.853V239.853Z" fill="#EBF3ED"/>
<path d="M158.756 247.688C155.465 254.426 149.824 258.421 146.17 256.63C142.517 254.84 142.206 247.937 145.498 241.199C148.789 234.461 154.43 230.466 158.094 232.267C161.757 234.068 162.047 240.961 158.756 247.688Z" fill="#EBF3ED"/>
<path d="M143.863 254.022C147.486 255.213 152.443 251.839 155.248 246.136C158.053 240.433 157.628 234.161 154.213 232.174C151.108 233.209 147.724 236.552 145.447 241.199C143.128 246.043 142.631 250.969 143.863 254.022Z" fill="#C5D5CC"/>
<path d="M160.05 268.057C162.389 267.819 164.625 269.806 165.825 272.838H166.25C165.743 267.529 157.908 263.886 156.428 256.144C152.588 259.87 148.148 261.433 144.65 259.746C143.162 258.982 141.985 257.728 141.317 256.196C131.195 252.791 129.156 245.97 129.249 231.698C129.249 225.746 128.731 219.537 123.163 220.572C117.595 221.607 109.398 231.832 110.485 243.217C111.054 249.199 114.014 254.736 117.523 260.005C123.546 269.061 131.505 276.854 130.729 285.776C135.324 282.609 143.087 282.805 147.879 284.482C149.235 280.021 151.563 278.21 155.124 276.689C154.989 272.197 157.08 268.367 160.05 268.057Z" fill="#EBF3ED"/>
<path d="M163.973 276.668C164.304 279.939 163.228 282.723 161.561 282.878C159.895 283.033 158.27 280.528 157.939 277.268C157.608 274.008 158.684 271.214 160.35 271.058C162.017 270.903 163.642 273.408 163.973 276.668Z" fill="#EBF3ED"/>
<path d="M167.192 279.69H166.633C166.136 283.095 164.315 285.652 161.882 285.9C159.243 286.169 156.707 283.602 155.672 279.887C153.178 280.767 150.777 283.447 150.135 287.908C145.571 286.356 136.422 284.544 129.953 289.202C128.473 294.449 124.395 297.875 123.381 302.294C134.59 295.225 152.878 296.778 161.417 307.728C165.474 299.614 167.544 288.053 167.192 279.69Z" fill="#EBF3ED"/>
<path d="M158.135 311.775C154.689 305.906 150.29 304.271 147.785 303.143C145.974 310.129 147.351 319.962 152.101 326.948C153.177 320.655 156.282 314.104 158.135 311.775Z" fill="#EBF3ED"/>
<path d="M136.619 302.719C138.974 303.961 141.2 305.434 143.264 307.117C143.295 309.457 143.496 311.792 143.864 314.103C141.618 317.809 139.465 323.16 139.724 327.641C136.756 324.283 134.871 320.107 134.317 315.66C133.763 311.213 134.565 306.702 136.619 302.719V302.719Z" fill="#EBF3ED"/>
<path d="M126.051 305.316C128.236 305.991 130.323 306.948 132.261 308.163C132.261 308.163 131.143 314.631 131.743 317.478C130.025 320.324 127.955 324.112 127.696 327.569C123.981 322.125 121.311 313.068 126.051 305.316Z" fill="#EBF3ED"/>
<path d="M160.723 188.611C146.233 181.118 127.459 195.287 120.027 210.822C129.228 208.328 131.764 217.187 131.919 227.765C132.095 239.843 131.919 248.465 140.023 252.429L140.251 252.377C139.893 248.051 140.757 243.712 142.745 239.853C146.233 232.733 152.153 228.231 157.028 228.469C176.02 217.022 175.182 196.084 160.723 188.611Z" fill="#C5D5CC"/>
<path d="M178.327 194.749C179.362 206.289 176.62 221.12 164.117 238.446C164.109 240.717 163.76 242.975 163.082 245.142C176.061 232.629 183.337 209.777 178.327 194.749Z" fill="white"/>
<path d="M154.276 301.735C156.362 295.988 157.508 289.942 157.671 283.83C156.736 282.666 156.056 281.319 155.673 279.876C153.179 280.756 150.778 283.437 150.136 287.898C146.834 286.78 141.132 285.538 135.791 286.687C135.683 287.468 135.527 288.242 135.325 289.005C134.39 292.422 133.132 295.741 131.568 298.92C139.227 297.048 147.306 298.049 154.276 301.735V301.735Z" fill="#C5D5CC"/>
<path d="M154.473 271.162C152.286 267.706 150.355 264.095 148.697 260.356C147.318 260.556 145.91 260.344 144.651 259.746C143.163 258.982 141.986 257.728 141.318 256.196C131.196 252.791 129.157 245.97 129.25 231.698C129.25 225.746 128.732 219.537 123.164 220.572C118.962 221.358 113.27 227.382 111.189 235.186C112.08 243.403 117.969 252.284 124.975 260.553C132.314 269.206 135.864 276.906 135.967 283.695C139.941 282.956 144.037 283.226 147.88 284.482C149.236 280.021 151.564 278.21 155.125 276.689C155.08 275.48 155.206 274.271 155.497 273.097C155.194 272.432 154.852 271.786 154.473 271.162Z" fill="#C5D5CC"/>
<path d="M166.632 279.68C166.207 282.588 164.81 284.855 162.906 285.621C162.429 292.219 161.036 298.719 158.766 304.933C159.721 305.787 160.604 306.718 161.405 307.717C165.462 299.614 167.532 288.053 167.18 279.69L166.632 279.68Z" fill="white"/>
<path d="M163.973 276.689C163.766 274.318 162.876 272.352 161.758 271.514C162.389 272.87 163.041 276.616 162.948 281.864C163.851 280.299 164.211 278.479 163.973 276.689V276.689Z" fill="white"/>
<path d="M152.93 258.814C154.389 262.871 157.163 265.821 159.274 268.243C159.526 268.159 159.786 268.1 160.05 268.067C162.389 267.829 164.625 269.816 165.826 272.849H166.25C165.743 267.539 157.908 263.896 156.428 256.154C155.375 257.181 154.201 258.075 152.93 258.814Z" fill="white"/>
<path d="M162.109 259.891C162.492 261.961 167.667 265.583 168.961 269.982C169.443 268.293 169.749 266.559 169.872 264.807C170.808 266.204 171.629 267.675 172.325 269.206C172.325 269.206 173.36 263.255 173.618 259.767C173.618 259.777 164.956 260.667 162.109 259.891Z" fill="white"/>
<path d="M154.887 307.573C151.865 313.172 150.685 321.462 152.103 326.948C153.22 320.655 156.243 314.104 158.137 311.775C157.243 310.237 156.15 308.824 154.887 307.573V307.573Z" fill="#C5D5CC"/>
<path d="M143.22 307.117C139.339 312.551 137.528 321.472 139.681 327.641C139.422 323.159 141.575 317.809 143.821 314.103C143.453 311.792 143.252 309.457 143.22 307.117Z" fill="#C5D5CC"/>
<path d="M132.261 308.152C127.883 312.634 126.786 319.144 127.697 327.558C127.956 324.101 130.026 320.313 131.744 317.467C131.143 314.631 132.261 308.152 132.261 308.152Z" fill="#C5D5CC"/>
<path d="M113.571 30.5066C114.319 30.5066 114.927 29.8996 114.927 29.1508C114.927 28.4019 114.319 27.7949 113.571 27.7949C112.822 27.7949 112.215 28.4019 112.215 29.1508C112.215 29.8996 112.822 30.5066 113.571 30.5066Z" fill="white"/>
<path d="M112.689 37.7929C112.689 38.2023 112.567 38.6025 112.34 38.9429C112.112 39.2833 111.789 39.5486 111.411 39.7053C111.033 39.862 110.617 39.9029 110.215 39.8231C109.813 39.7432 109.445 39.5461 109.155 39.2566C108.866 38.9671 108.668 38.5982 108.589 38.1967C108.509 37.7952 108.55 37.379 108.706 37.0007C108.863 36.6225 109.128 36.2992 109.469 36.0718C109.809 35.8443 110.209 35.7229 110.619 35.7229C111.168 35.7229 111.694 35.941 112.082 36.3292C112.471 36.7174 112.689 37.2439 112.689 37.7929Z" fill="white"/>
<path d="M105.114 97.8844C104.918 99.1574 104.079 100.079 103.303 99.9544C102.527 99.8302 101.999 98.7124 102.196 97.4393C102.392 96.1663 103.231 95.2452 104.007 95.3694C104.783 95.4936 105.311 96.6217 105.114 97.8844Z" fill="#332F50"/>
<path d="M133.575 45.6175C133.379 46.8906 132.54 47.8117 131.764 47.6875C130.988 47.5633 130.46 46.4455 130.657 45.1725C130.853 43.8995 131.692 42.9783 132.468 43.1025C133.244 43.2267 133.772 44.3549 133.575 45.6175Z" fill="#332F50"/>
</svg>
