<svg width="29" height="24" viewBox="0 0 29 24" fill="none" xmlns="http://www.w3.org/2000/svg">
<path d="M6.60292 24C4.40195 24 2.73951 23.2116 1.61561 21.6348C0.538536 20.0116 0 17.7623 0 14.887C0 11.5942 0.819512 8.69565 2.45854 6.1913C4.09756 3.68696 6.60292 1.62319 9.97463 0L12.2224 4.45217C10.1151 5.51884 8.52292 6.74783 7.44585 8.13913C6.41561 9.48406 5.90049 11.2 5.90049 13.287C6.04097 13.2406 6.27512 13.2174 6.60292 13.2174C8.10146 13.2174 9.36585 13.6812 10.3961 14.6087C11.4732 15.4899 12.0117 16.7188 12.0117 18.2957C12.0117 20.058 11.4966 21.4493 10.4663 22.4696C9.43609 23.4899 8.14829 24 6.60292 24ZM23.1805 24C20.9795 24 19.3171 23.2116 18.1932 21.6348C17.1161 20.0116 16.5776 17.7623 16.5776 14.887C16.5776 11.5942 17.3971 8.69565 19.0361 6.1913C20.6751 3.68696 23.1805 1.62319 26.5522 0L28.8 4.45217C26.6927 5.51884 25.1005 6.74783 24.0234 8.13913C22.9932 9.48406 22.478 11.2 22.478 13.287C22.6185 13.2406 22.8527 13.2174 23.1805 13.2174C24.679 13.2174 25.9434 13.6812 26.9736 14.6087C28.0507 15.4899 28.5893 16.7188 28.5893 18.2957C28.5893 20.058 28.0741 21.4493 27.0439 22.4696C26.0136 23.4899 24.7258 24 23.1805 24Z" fill="#5DB59D"/>
</svg>
