<svg width="65" height="65" viewBox="0 0 65 65" fill="none" xmlns="http://www.w3.org/2000/svg">
<path d="M45 2.5C45 1.11929 46.1193 0 47.5 0C48.8807 0 50 1.11929 50 2.5C50 3.88071 48.8807 5 47.5 5C46.1193 5 45 3.88071 45 2.5Z" fill="url(#paint0_linear_5393_5713)"/>
<path d="M45 17.5C45 16.1193 46.1193 15 47.5 15C48.8807 15 50 16.1193 50 17.5C50 18.8807 48.8807 20 47.5 20C46.1193 20 45 18.8807 45 17.5Z" fill="url(#paint1_linear_5393_5713)"/>
<path d="M60 17.5C60 16.1193 61.1193 15 62.5 15C63.8807 15 65 16.1193 65 17.5C65 18.8807 63.8807 20 62.5 20C61.1193 20 60 18.8807 60 17.5Z" fill="url(#paint2_linear_5393_5713)"/>
<path d="M45 32.5C45 31.1193 46.1193 30 47.5 30C48.8807 30 50 31.1193 50 32.5C50 33.8807 48.8807 35 47.5 35C46.1193 35 45 33.8807 45 32.5Z" fill="url(#paint3_linear_5393_5713)"/>
<path d="M60 32.5C60 31.1193 61.1193 30 62.5 30C63.8807 30 65 31.1193 65 32.5C65 33.8807 63.8807 35 62.5 35C61.1193 35 60 33.8807 60 32.5Z" fill="url(#paint4_linear_5393_5713)"/>
<path d="M0 47.5C0 46.1193 1.11929 45 2.5 45C3.88071 45 5 46.1193 5 47.5C5 48.8807 3.88071 50 2.5 50C1.11929 50 0 48.8807 0 47.5Z" fill="url(#paint5_linear_5393_5713)"/>
<path d="M15 47.5C15 46.1193 16.1193 45 17.5 45C18.8807 45 20 46.1193 20 47.5C20 48.8807 18.8807 50 17.5 50C16.1193 50 15 48.8807 15 47.5Z" fill="url(#paint6_linear_5393_5713)"/>
<path d="M30 47.5C30 46.1193 31.1193 45 32.5 45C33.8807 45 35 46.1193 35 47.5C35 48.8807 33.8807 50 32.5 50C31.1193 50 30 48.8807 30 47.5Z" fill="url(#paint7_linear_5393_5713)"/>
<path d="M45 47.5C45 46.1193 46.1193 45 47.5 45C48.8807 45 50 46.1193 50 47.5C50 48.8807 48.8807 50 47.5 50C46.1193 50 45 48.8807 45 47.5Z" fill="url(#paint8_linear_5393_5713)"/>
<path d="M60 47.5C60 46.1193 61.1193 45 62.5 45C63.8807 45 65 46.1193 65 47.5C65 48.8807 63.8807 50 62.5 50C61.1193 50 60 48.8807 60 47.5Z" fill="url(#paint9_linear_5393_5713)"/>
<path d="M15 62.5C15 61.1193 16.1193 60 17.5 60C18.8807 60 20 61.1193 20 62.5C20 63.8807 18.8807 65 17.5 65C16.1193 65 15 63.8807 15 62.5Z" fill="url(#paint10_linear_5393_5713)"/>
<path d="M30 62.5C30 61.1193 31.1193 60 32.5 60C33.8807 60 35 61.1193 35 62.5C35 63.8807 33.8807 65 32.5 65C31.1193 65 30 63.8807 30 62.5Z" fill="url(#paint11_linear_5393_5713)"/>
<path d="M45 62.5C45 61.1193 46.1193 60 47.5 60C48.8807 60 50 61.1193 50 62.5C50 63.8807 48.8807 65 47.5 65C46.1193 65 45 63.8807 45 62.5Z" fill="url(#paint12_linear_5393_5713)"/>
<path d="M60 62.5C60 61.1193 61.1193 60 62.5 60C63.8807 60 65 61.1193 65 62.5C65 63.8807 63.8807 65 62.5 65C61.1193 65 60 63.8807 60 62.5Z" fill="url(#paint13_linear_5393_5713)"/>
<defs>
<linearGradient id="paint0_linear_5393_5713" x1="32.5" y1="0" x2="32.5" y2="65" gradientUnits="userSpaceOnUse">
<stop stop-color="#5DB59D" stop-opacity="0.4"/>
<stop offset="1" stop-color="#5DB59D" stop-opacity="0"/>
</linearGradient>
<linearGradient id="paint1_linear_5393_5713" x1="32.5" y1="0" x2="32.5" y2="65" gradientUnits="userSpaceOnUse">
<stop stop-color="#5DB59D" stop-opacity="0.4"/>
<stop offset="1" stop-color="#5DB59D" stop-opacity="0"/>
</linearGradient>
<linearGradient id="paint2_linear_5393_5713" x1="32.5" y1="0" x2="32.5" y2="65" gradientUnits="userSpaceOnUse">
<stop stop-color="#5DB59D" stop-opacity="0.4"/>
<stop offset="1" stop-color="#5DB59D" stop-opacity="0"/>
</linearGradient>
<linearGradient id="paint3_linear_5393_5713" x1="32.5" y1="0" x2="32.5" y2="65" gradientUnits="userSpaceOnUse">
<stop stop-color="#5DB59D" stop-opacity="0.4"/>
<stop offset="1" stop-color="#5DB59D" stop-opacity="0"/>
</linearGradient>
<linearGradient id="paint4_linear_5393_5713" x1="32.5" y1="0" x2="32.5" y2="65" gradientUnits="userSpaceOnUse">
<stop stop-color="#5DB59D" stop-opacity="0.4"/>
<stop offset="1" stop-color="#5DB59D" stop-opacity="0"/>
</linearGradient>
<linearGradient id="paint5_linear_5393_5713" x1="32.5" y1="0" x2="32.5" y2="65" gradientUnits="userSpaceOnUse">
<stop stop-color="#5DB59D" stop-opacity="0.4"/>
<stop offset="1" stop-color="#5DB59D" stop-opacity="0"/>
</linearGradient>
<linearGradient id="paint6_linear_5393_5713" x1="32.5" y1="0" x2="32.5" y2="65" gradientUnits="userSpaceOnUse">
<stop stop-color="#5DB59D" stop-opacity="0.4"/>
<stop offset="1" stop-color="#5DB59D" stop-opacity="0"/>
</linearGradient>
<linearGradient id="paint7_linear_5393_5713" x1="32.5" y1="0" x2="32.5" y2="65" gradientUnits="userSpaceOnUse">
<stop stop-color="#5DB59D" stop-opacity="0.4"/>
<stop offset="1" stop-color="#5DB59D" stop-opacity="0"/>
</linearGradient>
<linearGradient id="paint8_linear_5393_5713" x1="32.5" y1="0" x2="32.5" y2="65" gradientUnits="userSpaceOnUse">
<stop stop-color="#5DB59D" stop-opacity="0.4"/>
<stop offset="1" stop-color="#5DB59D" stop-opacity="0"/>
</linearGradient>
<linearGradient id="paint9_linear_5393_5713" x1="32.5" y1="0" x2="32.5" y2="65" gradientUnits="userSpaceOnUse">
<stop stop-color="#5DB59D" stop-opacity="0.4"/>
<stop offset="1" stop-color="#5DB59D" stop-opacity="0"/>
</linearGradient>
<linearGradient id="paint10_linear_5393_5713" x1="32.5" y1="0" x2="32.5" y2="65" gradientUnits="userSpaceOnUse">
<stop stop-color="#5DB59D" stop-opacity="0.4"/>
<stop offset="1" stop-color="#5DB59D" stop-opacity="0"/>
</linearGradient>
<linearGradient id="paint11_linear_5393_5713" x1="32.5" y1="0" x2="32.5" y2="65" gradientUnits="userSpaceOnUse">
<stop stop-color="#5DB59D" stop-opacity="0.4"/>
<stop offset="1" stop-color="#5DB59D" stop-opacity="0"/>
</linearGradient>
<linearGradient id="paint12_linear_5393_5713" x1="32.5" y1="0" x2="32.5" y2="65" gradientUnits="userSpaceOnUse">
<stop stop-color="#5DB59D" stop-opacity="0.4"/>
<stop offset="1" stop-color="#5DB59D" stop-opacity="0"/>
</linearGradient>
<linearGradient id="paint13_linear_5393_5713" x1="32.5" y1="0" x2="32.5" y2="65" gradientUnits="userSpaceOnUse">
<stop stop-color="#5DB59D" stop-opacity="0.4"/>
<stop offset="1" stop-color="#5DB59D" stop-opacity="0"/>
</linearGradient>
</defs>
</svg>
