<svg width="65" height="65" viewBox="0 0 65 65" fill="none" xmlns="http://www.w3.org/2000/svg">
<rect width="5" height="5" rx="2.5" fill="#5DB59D"/>
<rect x="15" width="5" height="5" rx="2.5" fill="#5DB59D"/>
<rect x="30" width="5" height="5" rx="2.5" fill="#5DB59D"/>
<rect x="45" width="5" height="5" rx="2.5" fill="#5DB59D"/>
<rect y="15" width="5" height="5" rx="2.5" fill="#5DB59D"/>
<rect x="15" y="15" width="5" height="5" rx="2.5" fill="#5DB59D"/>
<rect x="30" y="15" width="5" height="5" rx="2.5" fill="#5DB59D"/>
<rect x="45" y="15" width="5" height="5" rx="2.5" fill="#5DB59D"/>
<rect x="60" y="15" width="5" height="5" rx="2.5" fill="#5DB59D"/>
<rect y="30" width="5" height="5" rx="2.5" fill="#5DB59D"/>
<rect x="15" y="30" width="5" height="5" rx="2.5" fill="#5DB59D"/>
<rect x="30" y="30" width="5" height="5" rx="2.5" fill="#5DB59D"/>
<rect x="45" y="30" width="5" height="5" rx="2.5" fill="#5DB59D"/>
<rect x="60" y="30" width="5" height="5" rx="2.5" fill="#5DB59D"/>
<rect y="45" width="5" height="5" rx="2.5" fill="#5DB59D"/>
<rect x="15" y="45" width="5" height="5" rx="2.5" fill="#5DB59D"/>
<rect x="30" y="45" width="5" height="5" rx="2.5" fill="#5DB59D"/>
<rect x="45" y="45" width="5" height="5" rx="2.5" fill="#5DB59D"/>
<rect x="60" y="45" width="5" height="5" rx="2.5" fill="#5DB59D"/>
<rect x="15" y="60" width="5" height="5" rx="2.5" fill="#5DB59D"/>
<rect x="30" y="60" width="5" height="5" rx="2.5" fill="#5DB59D"/>
<rect x="45" y="60" width="5" height="5" rx="2.5" fill="#5DB59D"/>
<rect x="60" y="60" width="5" height="5" rx="2.5" fill="#5DB59D"/>
</svg>
