<svg width="44" height="44" viewBox="0 0 44 44" fill="none" xmlns="http://www.w3.org/2000/svg">
<path d="M1.69231 30.4615C0.757673 30.4615 1.36464e-06 31.2192 1.40549e-06 32.1538C1.44634e-06 33.0885 0.757673 33.8462 1.69231 33.8462C2.62694 33.8462 3.38462 33.0885 3.38462 32.1538C3.38462 31.2192 2.62694 30.4615 1.69231 30.4615Z" fill="#509C87"/>
<path d="M11.8462 30.4615C10.9115 30.4615 10.1538 31.2192 10.1538 32.1538C10.1538 33.0885 10.9115 33.8462 11.8462 33.8462C12.7808 33.8462 13.5385 33.0885 13.5385 32.1538C13.5385 31.2192 12.7808 30.4615 11.8462 30.4615Z" fill="#509C87"/>
<path d="M11.8462 40.6154C10.9115 40.6154 10.1538 41.3731 10.1538 42.3077C10.1538 43.2423 10.9115 44 11.8462 44C12.7808 44 13.5385 43.2423 13.5385 42.3077C13.5385 41.3731 12.7808 40.6154 11.8462 40.6154Z" fill="#509C87"/>
<path d="M22 30.4615C21.0654 30.4615 20.3077 31.2192 20.3077 32.1538C20.3077 33.0885 21.0654 33.8462 22 33.8462C22.9346 33.8462 23.6923 33.0885 23.6923 32.1538C23.6923 31.2192 22.9346 30.4615 22 30.4615Z" fill="#509C87"/>
<path d="M22 40.6154C21.0654 40.6154 20.3077 41.3731 20.3077 42.3077C20.3077 43.2423 21.0654 44 22 44C22.9346 44 23.6923 43.2423 23.6923 42.3077C23.6923 41.3731 22.9346 40.6154 22 40.6154Z" fill="#509C87"/>
<path d="M32.1538 -1.40549e-06C31.2192 -1.36464e-06 30.4615 0.757671 30.4615 1.69231C30.4615 2.62694 31.2192 3.38461 32.1538 3.38461C33.0885 3.38461 33.8462 2.62694 33.8462 1.69231C33.8462 0.757671 33.0885 -1.44634e-06 32.1538 -1.40549e-06Z" fill="#509C87"/>
<path d="M32.1538 10.1538C31.2192 10.1538 30.4615 10.9115 30.4615 11.8462C30.4615 12.7808 31.2192 13.5385 32.1538 13.5385C33.0885 13.5385 33.8462 12.7808 33.8462 11.8462C33.8462 10.9115 33.0885 10.1538 32.1538 10.1538Z" fill="#509C87"/>
<path d="M32.1538 20.3077C31.2192 20.3077 30.4615 21.0654 30.4615 22C30.4615 22.9346 31.2192 23.6923 32.1538 23.6923C33.0885 23.6923 33.8462 22.9346 33.8462 22C33.8462 21.0654 33.0885 20.3077 32.1538 20.3077Z" fill="#509C87"/>
<path d="M32.1538 30.4615C31.2192 30.4615 30.4615 31.2192 30.4615 32.1538C30.4615 33.0885 31.2192 33.8462 32.1538 33.8462C33.0885 33.8462 33.8462 33.0885 33.8462 32.1538C33.8462 31.2192 33.0885 30.4615 32.1538 30.4615Z" fill="#509C87"/>
<path d="M32.1538 40.6154C31.2192 40.6154 30.4615 41.3731 30.4615 42.3077C30.4615 43.2423 31.2192 44 32.1538 44C33.0885 44 33.8462 43.2423 33.8462 42.3077C33.8462 41.3731 33.0885 40.6154 32.1538 40.6154Z" fill="#509C87"/>
<path d="M42.3077 10.1538C41.3731 10.1538 40.6154 10.9115 40.6154 11.8462C40.6154 12.7808 41.3731 13.5385 42.3077 13.5385C43.2423 13.5385 44 12.7808 44 11.8462C44 10.9115 43.2423 10.1538 42.3077 10.1538Z" fill="#509C87"/>
<path d="M42.3077 20.3077C41.3731 20.3077 40.6154 21.0654 40.6154 22C40.6154 22.9346 41.3731 23.6923 42.3077 23.6923C43.2423 23.6923 44 22.9346 44 22C44 21.0654 43.2423 20.3077 42.3077 20.3077Z" fill="#509C87"/>
<path d="M42.3077 30.4615C41.3731 30.4615 40.6154 31.2192 40.6154 32.1538C40.6154 33.0885 41.3731 33.8462 42.3077 33.8462C43.2423 33.8462 44 33.0885 44 32.1538C44 31.2192 43.2423 30.4615 42.3077 30.4615Z" fill="#509C87"/>
<path d="M42.3077 40.6154C41.3731 40.6154 40.6154 41.3731 40.6154 42.3077C40.6154 43.2423 41.3731 44 42.3077 44C43.2423 44 44 43.2423 44 42.3077C44 41.3731 43.2423 40.6154 42.3077 40.6154Z" fill="#509C87"/>
</svg>
