<svg width="44" height="44" viewBox="0 0 44 44" fill="none" xmlns="http://www.w3.org/2000/svg">
<path d="M42.3077 30.4615C43.2423 30.4615 44 31.2192 44 32.1538C44 33.0885 43.2423 33.8462 42.3077 33.8462C41.3731 33.8462 40.6154 33.0885 40.6154 32.1538C40.6154 31.2192 41.3731 30.4615 42.3077 30.4615Z" fill="#509C87"/>
<path d="M32.1538 30.4615C33.0885 30.4615 33.8462 31.2192 33.8462 32.1538C33.8462 33.0885 33.0885 33.8462 32.1538 33.8462C31.2192 33.8462 30.4615 33.0885 30.4615 32.1538C30.4615 31.2192 31.2192 30.4615 32.1538 30.4615Z" fill="#509C87"/>
<path d="M32.1538 40.6154C33.0885 40.6154 33.8462 41.3731 33.8462 42.3077C33.8462 43.2423 33.0885 44 32.1538 44C31.2192 44 30.4615 43.2423 30.4615 42.3077C30.4615 41.3731 31.2192 40.6154 32.1538 40.6154Z" fill="#509C87"/>
<path d="M22 30.4615C22.9346 30.4615 23.6923 31.2192 23.6923 32.1538C23.6923 33.0885 22.9346 33.8462 22 33.8462C21.0654 33.8462 20.3077 33.0885 20.3077 32.1538C20.3077 31.2192 21.0654 30.4615 22 30.4615Z" fill="#509C87"/>
<path d="M22 40.6154C22.9346 40.6154 23.6923 41.3731 23.6923 42.3077C23.6923 43.2423 22.9346 44 22 44C21.0654 44 20.3077 43.2423 20.3077 42.3077C20.3077 41.3731 21.0654 40.6154 22 40.6154Z" fill="#509C87"/>
<path d="M11.8462 -1.40549e-06C12.7808 -1.36464e-06 13.5385 0.757671 13.5385 1.69231C13.5385 2.62694 12.7808 3.38461 11.8462 3.38461C10.9115 3.38461 10.1538 2.62694 10.1538 1.69231C10.1538 0.757671 10.9115 -1.44634e-06 11.8462 -1.40549e-06Z" fill="#509C87"/>
<path d="M11.8462 10.1538C12.7808 10.1538 13.5385 10.9115 13.5385 11.8462C13.5385 12.7808 12.7808 13.5385 11.8462 13.5385C10.9115 13.5385 10.1538 12.7808 10.1538 11.8462C10.1538 10.9115 10.9115 10.1538 11.8462 10.1538Z" fill="#509C87"/>
<path d="M11.8462 20.3077C12.7808 20.3077 13.5385 21.0654 13.5385 22C13.5385 22.9346 12.7808 23.6923 11.8462 23.6923C10.9115 23.6923 10.1538 22.9346 10.1538 22C10.1538 21.0654 10.9115 20.3077 11.8462 20.3077Z" fill="#509C87"/>
<path d="M11.8462 30.4615C12.7808 30.4615 13.5385 31.2192 13.5385 32.1538C13.5385 33.0885 12.7808 33.8462 11.8462 33.8462C10.9115 33.8462 10.1538 33.0885 10.1538 32.1538C10.1538 31.2192 10.9115 30.4615 11.8462 30.4615Z" fill="#509C87"/>
<path d="M11.8462 40.6154C12.7808 40.6154 13.5385 41.3731 13.5385 42.3077C13.5385 43.2423 12.7808 44 11.8462 44C10.9115 44 10.1538 43.2423 10.1538 42.3077C10.1538 41.3731 10.9115 40.6154 11.8462 40.6154Z" fill="#509C87"/>
<path d="M1.69231 10.1538C2.62694 10.1538 3.38461 10.9115 3.38461 11.8462C3.38461 12.7808 2.62694 13.5385 1.69231 13.5385C0.757671 13.5385 -5.58666e-07 12.7808 -5.17812e-07 11.8462C-4.76958e-07 10.9115 0.757671 10.1538 1.69231 10.1538Z" fill="#509C87"/>
<path d="M1.69231 20.3077C2.62694 20.3077 3.38461 21.0654 3.38461 22C3.38461 22.9346 2.62694 23.6923 1.69231 23.6923C0.75767 23.6923 -1.0025e-06 22.9346 -9.61651e-07 22C-9.20796e-07 21.0654 0.75767 20.3077 1.69231 20.3077Z" fill="#509C87"/>
<path d="M1.69231 30.4615C2.62694 30.4615 3.38461 31.2192 3.38461 32.1538C3.38461 33.0885 2.62694 33.8462 1.69231 33.8462C0.75767 33.8462 -1.44634e-06 33.0885 -1.40549e-06 32.1538C-1.36464e-06 31.2192 0.75767 30.4615 1.69231 30.4615Z" fill="#509C87"/>
<path d="M1.6923 40.6154C2.62694 40.6154 3.38461 41.3731 3.38461 42.3077C3.38461 43.2423 2.62694 44 1.6923 44C0.757669 44 -1.89018e-06 43.2423 -1.84933e-06 42.3077C-1.80847e-06 41.3731 0.75767 40.6154 1.6923 40.6154Z" fill="#509C87"/>
</svg>
