<svg width="64" height="64" viewBox="0 0 64 64" fill="none" xmlns="http://www.w3.org/2000/svg">
<path d="M0 17.2308C0 15.8713 1.10207 14.7692 2.46154 14.7692C3.82101 14.7692 4.92308 15.8713 4.92308 17.2308C4.92308 18.5902 3.82101 19.6923 2.46154 19.6923C1.10207 19.6923 0 18.5902 0 17.2308Z" fill="url(#paint4_linear)"/>
<path d="M14.7692 17.2308C14.7692 15.8713 15.8713 14.7692 17.2308 14.7692C18.5902 14.7692 19.6923 15.8713 19.6923 17.2308C19.6923 18.5902 18.5902 19.6923 17.2308 19.6923C15.8713 19.6923 14.7692 18.5902 14.7692 17.2308Z" fill="url(#paint5_linear)"/>
<path d="M29.5385 17.2308C29.5385 15.8713 30.6405 14.7692 32 14.7692C33.3595 14.7692 34.4615 15.8713 34.4615 17.2308C34.4615 18.5902 33.3595 19.6923 32 19.6923C30.6405 19.6923 29.5385 18.5902 29.5385 17.2308Z" fill="url(#paint6_linear)"/>
<path d="M44.3077 17.2308C44.3077 15.8713 45.4098 14.7692 46.7692 14.7692C48.1287 14.7692 49.2308 15.8713 49.2308 17.2308C49.2308 18.5902 48.1287 19.6923 46.7692 19.6923C45.4098 19.6923 44.3077 18.5902 44.3077 17.2308Z" fill="url(#paint7_linear)"/>
<path d="M59.0769 17.2308C59.0769 15.8713 60.179 14.7692 61.5385 14.7692C62.8979 14.7692 64 15.8713 64 17.2308C64 18.5902 62.8979 19.6923 61.5385 19.6923C60.179 19.6923 59.0769 18.5902 59.0769 17.2308Z" fill="url(#paint8_linear)"/>
<path d="M0 32C0 30.6405 1.10207 29.5385 2.46154 29.5385C3.82101 29.5385 4.92308 30.6405 4.92308 32C4.92308 33.3595 3.82101 34.4615 2.46154 34.4615C1.10207 34.4615 0 33.3595 0 32Z" fill="url(#paint9_linear)"/>
<path d="M14.7692 32C14.7692 30.6405 15.8713 29.5385 17.2308 29.5385C18.5902 29.5385 19.6923 30.6405 19.6923 32C19.6923 33.3595 18.5902 34.4615 17.2308 34.4615C15.8713 34.4615 14.7692 33.3595 14.7692 32Z" fill="url(#paint10_linear)"/>
<path d="M29.5385 32C29.5385 30.6405 30.6405 29.5385 32 29.5385C33.3595 29.5385 34.4615 30.6405 34.4615 32C34.4615 33.3595 33.3595 34.4615 32 34.4615C30.6405 34.4615 29.5385 33.3595 29.5385 32Z" fill="url(#paint11_linear)"/>
<path d="M44.3077 32C44.3077 30.6405 45.4098 29.5385 46.7692 29.5385C48.1287 29.5385 49.2308 30.6405 49.2308 32C49.2308 33.3595 48.1287 34.4615 46.7692 34.4615C45.4098 34.4615 44.3077 33.3595 44.3077 32Z" fill="url(#paint12_linear)"/>
<path d="M59.0769 32C59.0769 30.6405 60.179 29.5385 61.5385 29.5385C62.8979 29.5385 64 30.6405 64 32C64 33.3595 62.8979 34.4615 61.5385 34.4615C60.179 34.4615 59.0769 33.3595 59.0769 32Z" fill="url(#paint13_linear)"/>
<path d="M0 46.7692C0 45.4098 1.10207 44.3077 2.46154 44.3077C3.82101 44.3077 4.92308 45.4098 4.92308 46.7692C4.92308 48.1287 3.82101 49.2308 2.46154 49.2308C1.10207 49.2308 0 48.1287 0 46.7692Z" fill="url(#paint14_linear)"/>
<path d="M14.7692 46.7692C14.7692 45.4098 15.8713 44.3077 17.2308 44.3077C18.5902 44.3077 19.6923 45.4098 19.6923 46.7692C19.6923 48.1287 18.5902 49.2308 17.2308 49.2308C15.8713 49.2308 14.7692 48.1287 14.7692 46.7692Z" fill="url(#paint15_linear)"/>
<path d="M29.5385 46.7692C29.5385 45.4098 30.6405 44.3077 32 44.3077C33.3595 44.3077 34.4615 45.4098 34.4615 46.7692C34.4615 48.1287 33.3595 49.2308 32 49.2308C30.6405 49.2308 29.5385 48.1287 29.5385 46.7692Z" fill="url(#paint16_linear)"/>
<path d="M44.3077 46.7692C44.3077 45.4098 45.4098 44.3077 46.7692 44.3077C48.1287 44.3077 49.2308 45.4098 49.2308 46.7692C49.2308 48.1287 48.1287 49.2308 46.7692 49.2308C45.4098 49.2308 44.3077 48.1287 44.3077 46.7692Z" fill="url(#paint17_linear)"/>
<path d="M59.0769 46.7692C59.0769 45.4098 60.179 44.3077 61.5385 44.3077C62.8979 44.3077 64 45.4098 64 46.7692C64 48.1287 62.8979 49.2308 61.5385 49.2308C60.179 49.2308 59.0769 48.1287 59.0769 46.7692Z" fill="url(#paint18_linear)"/>
<path d="M14.7692 61.5385C14.7692 60.179 15.8713 59.0769 17.2308 59.0769C18.5902 59.0769 19.6923 60.179 19.6923 61.5385C19.6923 62.8979 18.5902 64 17.2308 64C15.8713 64 14.7692 62.8979 14.7692 61.5385Z" fill="url(#paint19_linear)"/>
<path d="M29.5385 61.5385C29.5385 60.179 30.6405 59.0769 32 59.0769C33.3595 59.0769 34.4615 60.179 34.4615 61.5385C34.4615 62.8979 33.3595 64 32 64C30.6405 64 29.5385 62.8979 29.5385 61.5385Z" fill="url(#paint20_linear)"/>
<path d="M44.3077 61.5385C44.3077 60.179 45.4098 59.0769 46.7692 59.0769C48.1287 59.0769 49.2308 60.179 49.2308 61.5385C49.2308 62.8979 48.1287 64 46.7692 64C45.4098 64 44.3077 62.8979 44.3077 61.5385Z" fill="url(#paint21_linear)"/>
<path d="M59.0769 61.5385C59.0769 60.179 60.179 59.0769 61.5385 59.0769C62.8979 59.0769 64 60.179 64 61.5385C64 62.8979 62.8979 64 61.5385 64C60.179 64 59.0769 62.8979 59.0769 61.5385Z" fill="url(#paint22_linear)"/>
<defs>
<linearGradient id="paint0_linear" x1="32" y1="0" x2="32" y2="64" gradientUnits="userSpaceOnUse">
<stop stop-color="#5DB59D" stop-opacity="0.4"/>
<stop offset="1" stop-color="#5DB59D" stop-opacity="0"/>
</linearGradient>
<linearGradient id="paint1_linear" x1="32" y1="0" x2="32" y2="64" gradientUnits="userSpaceOnUse">
<stop stop-color="#5DB59D" stop-opacity="0.4"/>
<stop offset="1" stop-color="#5DB59D" stop-opacity="0"/>
</linearGradient>
<linearGradient id="paint2_linear" x1="32" y1="0" x2="32" y2="64" gradientUnits="userSpaceOnUse">
<stop stop-color="#5DB59D" stop-opacity="0.4"/>
<stop offset="1" stop-color="#5DB59D" stop-opacity="0"/>
</linearGradient>
<linearGradient id="paint3_linear" x1="32" y1="0" x2="32" y2="64" gradientUnits="userSpaceOnUse">
<stop stop-color="#5DB59D" stop-opacity="0.4"/>
<stop offset="1" stop-color="#5DB59D" stop-opacity="0"/>
</linearGradient>
<linearGradient id="paint4_linear" x1="32" y1="0" x2="32" y2="64" gradientUnits="userSpaceOnUse">
<stop stop-color="#5DB59D" stop-opacity="0.4"/>
<stop offset="1" stop-color="#5DB59D" stop-opacity="0"/>
</linearGradient>
<linearGradient id="paint5_linear" x1="32" y1="0" x2="32" y2="64" gradientUnits="userSpaceOnUse">
<stop stop-color="#5DB59D" stop-opacity="0.4"/>
<stop offset="1" stop-color="#5DB59D" stop-opacity="0"/>
</linearGradient>
<linearGradient id="paint6_linear" x1="32" y1="0" x2="32" y2="64" gradientUnits="userSpaceOnUse">
<stop stop-color="#5DB59D" stop-opacity="0.4"/>
<stop offset="1" stop-color="#5DB59D" stop-opacity="0"/>
</linearGradient>
<linearGradient id="paint7_linear" x1="32" y1="0" x2="32" y2="64" gradientUnits="userSpaceOnUse">
<stop stop-color="#5DB59D" stop-opacity="0.4"/>
<stop offset="1" stop-color="#5DB59D" stop-opacity="0"/>
</linearGradient>
<linearGradient id="paint8_linear" x1="32" y1="0" x2="32" y2="64" gradientUnits="userSpaceOnUse">
<stop stop-color="#5DB59D" stop-opacity="0.4"/>
<stop offset="1" stop-color="#5DB59D" stop-opacity="0"/>
</linearGradient>
<linearGradient id="paint9_linear" x1="32" y1="0" x2="32" y2="64" gradientUnits="userSpaceOnUse">
<stop stop-color="#5DB59D" stop-opacity="0.4"/>
<stop offset="1" stop-color="#5DB59D" stop-opacity="0"/>
</linearGradient>
<linearGradient id="paint10_linear" x1="32" y1="0" x2="32" y2="64" gradientUnits="userSpaceOnUse">
<stop stop-color="#5DB59D" stop-opacity="0.4"/>
<stop offset="1" stop-color="#5DB59D" stop-opacity="0"/>
</linearGradient>
<linearGradient id="paint11_linear" x1="32" y1="0" x2="32" y2="64" gradientUnits="userSpaceOnUse">
<stop stop-color="#5DB59D" stop-opacity="0.4"/>
<stop offset="1" stop-color="#5DB59D" stop-opacity="0"/>
</linearGradient>
<linearGradient id="paint12_linear" x1="32" y1="0" x2="32" y2="64" gradientUnits="userSpaceOnUse">
<stop stop-color="#5DB59D" stop-opacity="0.4"/>
<stop offset="1" stop-color="#5DB59D" stop-opacity="0"/>
</linearGradient>
<linearGradient id="paint13_linear" x1="32" y1="0" x2="32" y2="64" gradientUnits="userSpaceOnUse">
<stop stop-color="#5DB59D" stop-opacity="0.4"/>
<stop offset="1" stop-color="#5DB59D" stop-opacity="0"/>
</linearGradient>
<linearGradient id="paint14_linear" x1="32" y1="0" x2="32" y2="64" gradientUnits="userSpaceOnUse">
<stop stop-color="#5DB59D" stop-opacity="0.4"/>
<stop offset="1" stop-color="#5DB59D" stop-opacity="0"/>
</linearGradient>
<linearGradient id="paint15_linear" x1="32" y1="0" x2="32" y2="64" gradientUnits="userSpaceOnUse">
<stop stop-color="#5DB59D" stop-opacity="0.4"/>
<stop offset="1" stop-color="#5DB59D" stop-opacity="0"/>
</linearGradient>
<linearGradient id="paint16_linear" x1="32" y1="0" x2="32" y2="64" gradientUnits="userSpaceOnUse">
<stop stop-color="#5DB59D" stop-opacity="0.4"/>
<stop offset="1" stop-color="#5DB59D" stop-opacity="0"/>
</linearGradient>
<linearGradient id="paint17_linear" x1="32" y1="0" x2="32" y2="64" gradientUnits="userSpaceOnUse">
<stop stop-color="#5DB59D" stop-opacity="0.4"/>
<stop offset="1" stop-color="#5DB59D" stop-opacity="0"/>
</linearGradient>
<linearGradient id="paint18_linear" x1="32" y1="0" x2="32" y2="64" gradientUnits="userSpaceOnUse">
<stop stop-color="#5DB59D" stop-opacity="0.4"/>
<stop offset="1" stop-color="#5DB59D" stop-opacity="0"/>
</linearGradient>
<linearGradient id="paint19_linear" x1="32" y1="0" x2="32" y2="64" gradientUnits="userSpaceOnUse">
<stop stop-color="#5DB59D" stop-opacity="0.4"/>
<stop offset="1" stop-color="#5DB59D" stop-opacity="0"/>
</linearGradient>
<linearGradient id="paint20_linear" x1="32" y1="0" x2="32" y2="64" gradientUnits="userSpaceOnUse">
<stop stop-color="#5DB59D" stop-opacity="0.4"/>
<stop offset="1" stop-color="#5DB59D" stop-opacity="0"/>
</linearGradient>
<linearGradient id="paint21_linear" x1="32" y1="0" x2="32" y2="64" gradientUnits="userSpaceOnUse">
<stop stop-color="#5DB59D" stop-opacity="0.4"/>
<stop offset="1" stop-color="#5DB59D" stop-opacity="0"/>
</linearGradient>
<linearGradient id="paint22_linear" x1="32" y1="0" x2="32" y2="64" gradientUnits="userSpaceOnUse">
<stop stop-color="#5DB59D" stop-opacity="0.4"/>
<stop offset="1" stop-color="#5DB59D" stop-opacity="0"/>
</linearGradient>
</defs>
</svg>
