<svg width="65" height="65" viewBox="0 0 65 65" fill="none" xmlns="http://www.w3.org/2000/svg">
<path d="M0 2.5C0 1.11929 1.11929 0 2.5 0C3.88071 0 5 1.11929 5 2.5C5 3.88071 3.88071 5 2.5 5C1.11929 5 0 3.88071 0 2.5Z" fill="url(#paint0_linear_5393_5547)"/>
<path d="M15 2.5C15 1.11929 16.1193 0 17.5 0C18.8807 0 20 1.11929 20 2.5C20 3.88071 18.8807 5 17.5 5C16.1193 5 15 3.88071 15 2.5Z" fill="url(#paint1_linear_5393_5547)"/>
<path d="M30 2.5C30 1.11929 31.1193 0 32.5 0C33.8807 0 35 1.11929 35 2.5C35 3.88071 33.8807 5 32.5 5C31.1193 5 30 3.88071 30 2.5Z" fill="url(#paint2_linear_5393_5547)"/>
<path d="M45 2.5C45 1.11929 46.1193 0 47.5 0C48.8807 0 50 1.11929 50 2.5C50 3.88071 48.8807 5 47.5 5C46.1193 5 45 3.88071 45 2.5Z" fill="url(#paint3_linear_5393_5547)"/>
<path d="M0 17.5C0 16.1193 1.11929 15 2.5 15C3.88071 15 5 16.1193 5 17.5C5 18.8807 3.88071 20 2.5 20C1.11929 20 0 18.8807 0 17.5Z" fill="url(#paint4_linear_5393_5547)"/>
<path d="M15 17.5C15 16.1193 16.1193 15 17.5 15C18.8807 15 20 16.1193 20 17.5C20 18.8807 18.8807 20 17.5 20C16.1193 20 15 18.8807 15 17.5Z" fill="url(#paint5_linear_5393_5547)"/>
<path d="M30 17.5C30 16.1193 31.1193 15 32.5 15C33.8807 15 35 16.1193 35 17.5C35 18.8807 33.8807 20 32.5 20C31.1193 20 30 18.8807 30 17.5Z" fill="url(#paint6_linear_5393_5547)"/>
<path d="M45 17.5C45 16.1193 46.1193 15 47.5 15C48.8807 15 50 16.1193 50 17.5C50 18.8807 48.8807 20 47.5 20C46.1193 20 45 18.8807 45 17.5Z" fill="url(#paint7_linear_5393_5547)"/>
<path d="M60 17.5C60 16.1193 61.1193 15 62.5 15C63.8807 15 65 16.1193 65 17.5C65 18.8807 63.8807 20 62.5 20C61.1193 20 60 18.8807 60 17.5Z" fill="url(#paint8_linear_5393_5547)"/>
<path d="M0 32.5C0 31.1193 1.11929 30 2.5 30C3.88071 30 5 31.1193 5 32.5C5 33.8807 3.88071 35 2.5 35C1.11929 35 0 33.8807 0 32.5Z" fill="url(#paint9_linear_5393_5547)"/>
<path d="M15 32.5C15 31.1193 16.1193 30 17.5 30C18.8807 30 20 31.1193 20 32.5C20 33.8807 18.8807 35 17.5 35C16.1193 35 15 33.8807 15 32.5Z" fill="url(#paint10_linear_5393_5547)"/>
<path d="M30 32.5C30 31.1193 31.1193 30 32.5 30C33.8807 30 35 31.1193 35 32.5C35 33.8807 33.8807 35 32.5 35C31.1193 35 30 33.8807 30 32.5Z" fill="url(#paint11_linear_5393_5547)"/>
<path d="M45 32.5C45 31.1193 46.1193 30 47.5 30C48.8807 30 50 31.1193 50 32.5C50 33.8807 48.8807 35 47.5 35C46.1193 35 45 33.8807 45 32.5Z" fill="url(#paint12_linear_5393_5547)"/>
<path d="M60 32.5C60 31.1193 61.1193 30 62.5 30C63.8807 30 65 31.1193 65 32.5C65 33.8807 63.8807 35 62.5 35C61.1193 35 60 33.8807 60 32.5Z" fill="url(#paint13_linear_5393_5547)"/>
<path d="M0 47.5C0 46.1193 1.11929 45 2.5 45C3.88071 45 5 46.1193 5 47.5C5 48.8807 3.88071 50 2.5 50C1.11929 50 0 48.8807 0 47.5Z" fill="url(#paint14_linear_5393_5547)"/>
<path d="M15 47.5C15 46.1193 16.1193 45 17.5 45C18.8807 45 20 46.1193 20 47.5C20 48.8807 18.8807 50 17.5 50C16.1193 50 15 48.8807 15 47.5Z" fill="url(#paint15_linear_5393_5547)"/>
<path d="M30 47.5C30 46.1193 31.1193 45 32.5 45C33.8807 45 35 46.1193 35 47.5C35 48.8807 33.8807 50 32.5 50C31.1193 50 30 48.8807 30 47.5Z" fill="url(#paint16_linear_5393_5547)"/>
<path d="M45 47.5C45 46.1193 46.1193 45 47.5 45C48.8807 45 50 46.1193 50 47.5C50 48.8807 48.8807 50 47.5 50C46.1193 50 45 48.8807 45 47.5Z" fill="url(#paint17_linear_5393_5547)"/>
<path d="M60 47.5C60 46.1193 61.1193 45 62.5 45C63.8807 45 65 46.1193 65 47.5C65 48.8807 63.8807 50 62.5 50C61.1193 50 60 48.8807 60 47.5Z" fill="url(#paint18_linear_5393_5547)"/>
<path d="M15 62.5C15 61.1193 16.1193 60 17.5 60C18.8807 60 20 61.1193 20 62.5C20 63.8807 18.8807 65 17.5 65C16.1193 65 15 63.8807 15 62.5Z" fill="url(#paint19_linear_5393_5547)"/>
<path d="M30 62.5C30 61.1193 31.1193 60 32.5 60C33.8807 60 35 61.1193 35 62.5C35 63.8807 33.8807 65 32.5 65C31.1193 65 30 63.8807 30 62.5Z" fill="url(#paint20_linear_5393_5547)"/>
<path d="M45 62.5C45 61.1193 46.1193 60 47.5 60C48.8807 60 50 61.1193 50 62.5C50 63.8807 48.8807 65 47.5 65C46.1193 65 45 63.8807 45 62.5Z" fill="url(#paint21_linear_5393_5547)"/>
<path d="M60 62.5C60 61.1193 61.1193 60 62.5 60C63.8807 60 65 61.1193 65 62.5C65 63.8807 63.8807 65 62.5 65C61.1193 65 60 63.8807 60 62.5Z" fill="url(#paint22_linear_5393_5547)"/>
<defs>
<linearGradient id="paint0_linear_5393_5547" x1="32.5" y1="0" x2="32.5" y2="65" gradientUnits="userSpaceOnUse">
<stop stop-color="#5DB59D" stop-opacity="0.4"/>
<stop offset="1" stop-color="#5DB59D" stop-opacity="0"/>
</linearGradient>
<linearGradient id="paint1_linear_5393_5547" x1="32.5" y1="0" x2="32.5" y2="65" gradientUnits="userSpaceOnUse">
<stop stop-color="#5DB59D" stop-opacity="0.4"/>
<stop offset="1" stop-color="#5DB59D" stop-opacity="0"/>
</linearGradient>
<linearGradient id="paint2_linear_5393_5547" x1="32.5" y1="0" x2="32.5" y2="65" gradientUnits="userSpaceOnUse">
<stop stop-color="#5DB59D" stop-opacity="0.4"/>
<stop offset="1" stop-color="#5DB59D" stop-opacity="0"/>
</linearGradient>
<linearGradient id="paint3_linear_5393_5547" x1="32.5" y1="0" x2="32.5" y2="65" gradientUnits="userSpaceOnUse">
<stop stop-color="#5DB59D" stop-opacity="0.4"/>
<stop offset="1" stop-color="#5DB59D" stop-opacity="0"/>
</linearGradient>
<linearGradient id="paint4_linear_5393_5547" x1="32.5" y1="0" x2="32.5" y2="65" gradientUnits="userSpaceOnUse">
<stop stop-color="#5DB59D" stop-opacity="0.4"/>
<stop offset="1" stop-color="#5DB59D" stop-opacity="0"/>
</linearGradient>
<linearGradient id="paint5_linear_5393_5547" x1="32.5" y1="0" x2="32.5" y2="65" gradientUnits="userSpaceOnUse">
<stop stop-color="#5DB59D" stop-opacity="0.4"/>
<stop offset="1" stop-color="#5DB59D" stop-opacity="0"/>
</linearGradient>
<linearGradient id="paint6_linear_5393_5547" x1="32.5" y1="0" x2="32.5" y2="65" gradientUnits="userSpaceOnUse">
<stop stop-color="#5DB59D" stop-opacity="0.4"/>
<stop offset="1" stop-color="#5DB59D" stop-opacity="0"/>
</linearGradient>
<linearGradient id="paint7_linear_5393_5547" x1="32.5" y1="0" x2="32.5" y2="65" gradientUnits="userSpaceOnUse">
<stop stop-color="#5DB59D" stop-opacity="0.4"/>
<stop offset="1" stop-color="#5DB59D" stop-opacity="0"/>
</linearGradient>
<linearGradient id="paint8_linear_5393_5547" x1="32.5" y1="0" x2="32.5" y2="65" gradientUnits="userSpaceOnUse">
<stop stop-color="#5DB59D" stop-opacity="0.4"/>
<stop offset="1" stop-color="#5DB59D" stop-opacity="0"/>
</linearGradient>
<linearGradient id="paint9_linear_5393_5547" x1="32.5" y1="0" x2="32.5" y2="65" gradientUnits="userSpaceOnUse">
<stop stop-color="#5DB59D" stop-opacity="0.4"/>
<stop offset="1" stop-color="#5DB59D" stop-opacity="0"/>
</linearGradient>
<linearGradient id="paint10_linear_5393_5547" x1="32.5" y1="0" x2="32.5" y2="65" gradientUnits="userSpaceOnUse">
<stop stop-color="#5DB59D" stop-opacity="0.4"/>
<stop offset="1" stop-color="#5DB59D" stop-opacity="0"/>
</linearGradient>
<linearGradient id="paint11_linear_5393_5547" x1="32.5" y1="0" x2="32.5" y2="65" gradientUnits="userSpaceOnUse">
<stop stop-color="#5DB59D" stop-opacity="0.4"/>
<stop offset="1" stop-color="#5DB59D" stop-opacity="0"/>
</linearGradient>
<linearGradient id="paint12_linear_5393_5547" x1="32.5" y1="0" x2="32.5" y2="65" gradientUnits="userSpaceOnUse">
<stop stop-color="#5DB59D" stop-opacity="0.4"/>
<stop offset="1" stop-color="#5DB59D" stop-opacity="0"/>
</linearGradient>
<linearGradient id="paint13_linear_5393_5547" x1="32.5" y1="0" x2="32.5" y2="65" gradientUnits="userSpaceOnUse">
<stop stop-color="#5DB59D" stop-opacity="0.4"/>
<stop offset="1" stop-color="#5DB59D" stop-opacity="0"/>
</linearGradient>
<linearGradient id="paint14_linear_5393_5547" x1="32.5" y1="0" x2="32.5" y2="65" gradientUnits="userSpaceOnUse">
<stop stop-color="#5DB59D" stop-opacity="0.4"/>
<stop offset="1" stop-color="#5DB59D" stop-opacity="0"/>
</linearGradient>
<linearGradient id="paint15_linear_5393_5547" x1="32.5" y1="0" x2="32.5" y2="65" gradientUnits="userSpaceOnUse">
<stop stop-color="#5DB59D" stop-opacity="0.4"/>
<stop offset="1" stop-color="#5DB59D" stop-opacity="0"/>
</linearGradient>
<linearGradient id="paint16_linear_5393_5547" x1="32.5" y1="0" x2="32.5" y2="65" gradientUnits="userSpaceOnUse">
<stop stop-color="#5DB59D" stop-opacity="0.4"/>
<stop offset="1" stop-color="#5DB59D" stop-opacity="0"/>
</linearGradient>
<linearGradient id="paint17_linear_5393_5547" x1="32.5" y1="0" x2="32.5" y2="65" gradientUnits="userSpaceOnUse">
<stop stop-color="#5DB59D" stop-opacity="0.4"/>
<stop offset="1" stop-color="#5DB59D" stop-opacity="0"/>
</linearGradient>
<linearGradient id="paint18_linear_5393_5547" x1="32.5" y1="0" x2="32.5" y2="65" gradientUnits="userSpaceOnUse">
<stop stop-color="#5DB59D" stop-opacity="0.4"/>
<stop offset="1" stop-color="#5DB59D" stop-opacity="0"/>
</linearGradient>
<linearGradient id="paint19_linear_5393_5547" x1="32.5" y1="0" x2="32.5" y2="65" gradientUnits="userSpaceOnUse">
<stop stop-color="#5DB59D" stop-opacity="0.4"/>
<stop offset="1" stop-color="#5DB59D" stop-opacity="0"/>
</linearGradient>
<linearGradient id="paint20_linear_5393_5547" x1="32.5" y1="0" x2="32.5" y2="65" gradientUnits="userSpaceOnUse">
<stop stop-color="#5DB59D" stop-opacity="0.4"/>
<stop offset="1" stop-color="#5DB59D" stop-opacity="0"/>
</linearGradient>
<linearGradient id="paint21_linear_5393_5547" x1="32.5" y1="0" x2="32.5" y2="65" gradientUnits="userSpaceOnUse">
<stop stop-color="#5DB59D" stop-opacity="0.4"/>
<stop offset="1" stop-color="#5DB59D" stop-opacity="0"/>
</linearGradient>
<linearGradient id="paint22_linear_5393_5547" x1="32.5" y1="0" x2="32.5" y2="65" gradientUnits="userSpaceOnUse">
<stop stop-color="#5DB59D" stop-opacity="0.4"/>
<stop offset="1" stop-color="#5DB59D" stop-opacity="0"/>
</linearGradient>
</defs>
</svg>
