<svg width="64" height="64" viewBox="0 0 64 64" fill="none" xmlns="http://www.w3.org/2000/svg">
<path d="M44.3077 2.46154C44.3077 1.10207 45.4098 0 46.7692 0C48.1287 0 49.2308 1.10207 49.2308 2.46154C49.2308 3.82101 48.1287 4.92308 46.7692 4.92308C45.4098 4.92308 44.3077 3.82101 44.3077 2.46154Z" fill="url(#paint0_linear)"/>
<path d="M44.3077 17.2308C44.3077 15.8713 45.4098 14.7692 46.7692 14.7692C48.1287 14.7692 49.2308 15.8713 49.2308 17.2308C49.2308 18.5902 48.1287 19.6923 46.7692 19.6923C45.4098 19.6923 44.3077 18.5902 44.3077 17.2308Z" fill="url(#paint1_linear)"/>
<path d="M59.0769 17.2308C59.0769 15.8713 60.179 14.7692 61.5385 14.7692C62.8979 14.7692 64 15.8713 64 17.2308C64 18.5902 62.8979 19.6923 61.5385 19.6923C60.179 19.6923 59.0769 18.5902 59.0769 17.2308Z" fill="url(#paint2_linear)"/>
<path d="M44.3077 32C44.3077 30.6405 45.4098 29.5385 46.7692 29.5385C48.1287 29.5385 49.2308 30.6405 49.2308 32C49.2308 33.3595 48.1287 34.4615 46.7692 34.4615C45.4098 34.4615 44.3077 33.3595 44.3077 32Z" fill="url(#paint3_linear)"/>
<path d="M59.0769 32C59.0769 30.6405 60.179 29.5385 61.5385 29.5385C62.8979 29.5385 64 30.6405 64 32C64 33.3595 62.8979 34.4615 61.5385 34.4615C60.179 34.4615 59.0769 33.3595 59.0769 32Z" fill="url(#paint4_linear)"/>
<path d="M0 46.7692C0 45.4098 1.10207 44.3077 2.46154 44.3077C3.82101 44.3077 4.92308 45.4098 4.92308 46.7692C4.92308 48.1287 3.82101 49.2308 2.46154 49.2308C1.10207 49.2308 0 48.1287 0 46.7692Z" fill="url(#paint5_linear)"/>
<path d="M14.7692 46.7692C14.7692 45.4098 15.8713 44.3077 17.2308 44.3077C18.5902 44.3077 19.6923 45.4098 19.6923 46.7692C19.6923 48.1287 18.5902 49.2308 17.2308 49.2308C15.8713 49.2308 14.7692 48.1287 14.7692 46.7692Z" fill="url(#paint6_linear)"/>
<path d="M29.5385 46.7692C29.5385 45.4098 30.6405 44.3077 32 44.3077C33.3595 44.3077 34.4615 45.4098 34.4615 46.7692C34.4615 48.1287 33.3595 49.2308 32 49.2308C30.6405 49.2308 29.5385 48.1287 29.5385 46.7692Z" fill="url(#paint7_linear)"/>
<path d="M44.3077 46.7692C44.3077 45.4098 45.4098 44.3077 46.7692 44.3077C48.1287 44.3077 49.2308 45.4098 49.2308 46.7692C49.2308 48.1287 48.1287 49.2308 46.7692 49.2308C45.4098 49.2308 44.3077 48.1287 44.3077 46.7692Z" fill="url(#paint8_linear)"/>
<path d="M59.0769 46.7692C59.0769 45.4098 60.179 44.3077 61.5385 44.3077C62.8979 44.3077 64 45.4098 64 46.7692C64 48.1287 62.8979 49.2308 61.5385 49.2308C60.179 49.2308 59.0769 48.1287 59.0769 46.7692Z" fill="url(#paint9_linear)"/>
<path d="M14.7692 61.5385C14.7692 60.179 15.8713 59.0769 17.2308 59.0769C18.5902 59.0769 19.6923 60.179 19.6923 61.5385C19.6923 62.8979 18.5902 64 17.2308 64C15.8713 64 14.7692 62.8979 14.7692 61.5385Z" fill="url(#paint10_linear)"/>
<path d="M29.5385 61.5385C29.5385 60.179 30.6405 59.0769 32 59.0769C33.3595 59.0769 34.4615 60.179 34.4615 61.5385C34.4615 62.8979 33.3595 64 32 64C30.6405 64 29.5385 62.8979 29.5385 61.5385Z" fill="url(#paint11_linear)"/>
<path d="M44.3077 61.5385C44.3077 60.179 45.4098 59.0769 46.7692 59.0769C48.1287 59.0769 49.2308 60.179 49.2308 61.5385C49.2308 62.8979 48.1287 64 46.7692 64C45.4098 64 44.3077 62.8979 44.3077 61.5385Z" fill="url(#paint12_linear)"/>
<path d="M59.0769 61.5385C59.0769 60.179 60.179 59.0769 61.5385 59.0769C62.8979 59.0769 64 60.179 64 61.5385C64 62.8979 62.8979 64 61.5385 64C60.179 64 59.0769 62.8979 59.0769 61.5385Z" fill="url(#paint13_linear)"/>
<defs>
<linearGradient id="paint0_linear" x1="32" y1="0" x2="32" y2="64" gradientUnits="userSpaceOnUse">
<stop stop-color="#5DB59D" stop-opacity="0.4"/>
<stop offset="1" stop-color="#5DB59D" stop-opacity="0"/>
</linearGradient>
<linearGradient id="paint1_linear" x1="32" y1="0" x2="32" y2="64" gradientUnits="userSpaceOnUse">
<stop stop-color="#5DB59D" stop-opacity="0.4"/>
<stop offset="1" stop-color="#5DB59D" stop-opacity="0"/>
</linearGradient>
<linearGradient id="paint2_linear" x1="32" y1="0" x2="32" y2="64" gradientUnits="userSpaceOnUse">
<stop stop-color="#5DB59D" stop-opacity="0.4"/>
<stop offset="1" stop-color="#5DB59D" stop-opacity="0"/>
</linearGradient>
<linearGradient id="paint3_linear" x1="32" y1="0" x2="32" y2="64" gradientUnits="userSpaceOnUse">
<stop stop-color="#5DB59D" stop-opacity="0.4"/>
<stop offset="1" stop-color="#5DB59D" stop-opacity="0"/>
</linearGradient>
<linearGradient id="paint4_linear" x1="32" y1="0" x2="32" y2="64" gradientUnits="userSpaceOnUse">
<stop stop-color="#5DB59D" stop-opacity="0.4"/>
<stop offset="1" stop-color="#5DB59D" stop-opacity="0"/>
</linearGradient>
<linearGradient id="paint5_linear" x1="32" y1="0" x2="32" y2="64" gradientUnits="userSpaceOnUse">
<stop stop-color="#5DB59D" stop-opacity="0.4"/>
<stop offset="1" stop-color="#5DB59D" stop-opacity="0"/>
</linearGradient>
<linearGradient id="paint6_linear" x1="32" y1="0" x2="32" y2="64" gradientUnits="userSpaceOnUse">
<stop stop-color="#5DB59D" stop-opacity="0.4"/>
<stop offset="1" stop-color="#5DB59D" stop-opacity="0"/>
</linearGradient>
<linearGradient id="paint7_linear" x1="32" y1="0" x2="32" y2="64" gradientUnits="userSpaceOnUse">
<stop stop-color="#5DB59D" stop-opacity="0.4"/>
<stop offset="1" stop-color="#5DB59D" stop-opacity="0"/>
</linearGradient>
<linearGradient id="paint8_linear" x1="32" y1="0" x2="32" y2="64" gradientUnits="userSpaceOnUse">
<stop stop-color="#5DB59D" stop-opacity="0.4"/>
<stop offset="1" stop-color="#5DB59D" stop-opacity="0"/>
</linearGradient>
<linearGradient id="paint9_linear" x1="32" y1="0" x2="32" y2="64" gradientUnits="userSpaceOnUse">
<stop stop-color="#5DB59D" stop-opacity="0.4"/>
<stop offset="1" stop-color="#5DB59D" stop-opacity="0"/>
</linearGradient>
<linearGradient id="paint10_linear" x1="32" y1="0" x2="32" y2="64" gradientUnits="userSpaceOnUse">
<stop stop-color="#5DB59D" stop-opacity="0.4"/>
<stop offset="1" stop-color="#5DB59D" stop-opacity="0"/>
</linearGradient>
<linearGradient id="paint11_linear" x1="32" y1="0" x2="32" y2="64" gradientUnits="userSpaceOnUse">
<stop stop-color="#5DB59D" stop-opacity="0.4"/>
<stop offset="1" stop-color="#5DB59D" stop-opacity="0"/>
</linearGradient>
<linearGradient id="paint12_linear" x1="32" y1="0" x2="32" y2="64" gradientUnits="userSpaceOnUse">
<stop stop-color="#5DB59D" stop-opacity="0.4"/>
<stop offset="1" stop-color="#5DB59D" stop-opacity="0"/>
</linearGradient>
<linearGradient id="paint13_linear" x1="32" y1="0" x2="32" y2="64" gradientUnits="userSpaceOnUse">
<stop stop-color="#5DB59D" stop-opacity="0.4"/>
<stop offset="1" stop-color="#5DB59D" stop-opacity="0"/>
</linearGradient>
</defs>
</svg>
