<svg width="64" height="64" viewBox="0 0 64 64" fill="none" xmlns="http://www.w3.org/2000/svg">
<path d="M0 61.5385C0 62.8979 1.10207 64 2.46154 64C3.82101 64 4.92308 62.8979 4.92308 61.5385C4.92308 60.179 3.82101 59.0769 2.46154 59.0769C1.10207 59.0769 0 60.179 0 61.5385Z" fill="url(#paint0_linear_5393_13189)"/>
<path d="M14.7692 61.5385C14.7692 62.8979 15.8713 64 17.2308 64C18.5902 64 19.6923 62.8979 19.6923 61.5385C19.6923 60.179 18.5902 59.0769 17.2308 59.0769C15.8713 59.0769 14.7692 60.179 14.7692 61.5385Z" fill="url(#paint1_linear_5393_13189)"/>
<path d="M29.5385 61.5385C29.5385 62.8979 30.6405 64 32 64C33.3595 64 34.4615 62.8979 34.4615 61.5385C34.4615 60.179 33.3595 59.0769 32 59.0769C30.6405 59.0769 29.5385 60.179 29.5385 61.5385Z" fill="url(#paint2_linear_5393_13189)"/>
<path d="M44.3077 61.5385C44.3077 62.8979 45.4098 64 46.7692 64C48.1287 64 49.2308 62.8979 49.2308 61.5385C49.2308 60.179 48.1287 59.0769 46.7692 59.0769C45.4098 59.0769 44.3077 60.179 44.3077 61.5385Z" fill="url(#paint3_linear_5393_13189)"/>
<path d="M0 46.7692C0 48.1287 1.10207 49.2308 2.46154 49.2308C3.82101 49.2308 4.92308 48.1287 4.92308 46.7692C4.92308 45.4098 3.82101 44.3077 2.46154 44.3077C1.10207 44.3077 0 45.4098 0 46.7692Z" fill="url(#paint4_linear_5393_13189)"/>
<path d="M14.7692 46.7692C14.7692 48.1287 15.8713 49.2308 17.2308 49.2308C18.5902 49.2308 19.6923 48.1287 19.6923 46.7692C19.6923 45.4098 18.5902 44.3077 17.2308 44.3077C15.8713 44.3077 14.7692 45.4098 14.7692 46.7692Z" fill="url(#paint5_linear_5393_13189)"/>
<path d="M29.5385 46.7692C29.5385 48.1287 30.6405 49.2308 32 49.2308C33.3595 49.2308 34.4615 48.1287 34.4615 46.7692C34.4615 45.4098 33.3595 44.3077 32 44.3077C30.6405 44.3077 29.5385 45.4098 29.5385 46.7692Z" fill="url(#paint6_linear_5393_13189)"/>
<path d="M44.3077 46.7692C44.3077 48.1287 45.4098 49.2308 46.7692 49.2308C48.1287 49.2308 49.2308 48.1287 49.2308 46.7692C49.2308 45.4098 48.1287 44.3077 46.7692 44.3077C45.4098 44.3077 44.3077 45.4098 44.3077 46.7692Z" fill="url(#paint7_linear_5393_13189)"/>
<path d="M59.0769 46.7692C59.0769 48.1287 60.179 49.2308 61.5385 49.2308C62.8979 49.2308 64 48.1287 64 46.7692C64 45.4098 62.8979 44.3077 61.5385 44.3077C60.179 44.3077 59.0769 45.4098 59.0769 46.7692Z" fill="url(#paint8_linear_5393_13189)"/>
<path d="M0 32C0 33.3595 1.10207 34.4615 2.46154 34.4615C3.82101 34.4615 4.92308 33.3595 4.92308 32C4.92308 30.6405 3.82101 29.5385 2.46154 29.5385C1.10207 29.5385 0 30.6405 0 32Z" fill="url(#paint9_linear_5393_13189)"/>
<path d="M14.7692 32C14.7692 33.3595 15.8713 34.4615 17.2308 34.4615C18.5902 34.4615 19.6923 33.3595 19.6923 32C19.6923 30.6405 18.5902 29.5385 17.2308 29.5385C15.8713 29.5385 14.7692 30.6405 14.7692 32Z" fill="url(#paint10_linear_5393_13189)"/>
<path d="M29.5385 32C29.5385 33.3595 30.6405 34.4615 32 34.4615C33.3595 34.4615 34.4615 33.3595 34.4615 32C34.4615 30.6405 33.3595 29.5385 32 29.5385C30.6405 29.5385 29.5385 30.6405 29.5385 32Z" fill="url(#paint11_linear_5393_13189)"/>
<path d="M44.3077 32C44.3077 33.3595 45.4098 34.4615 46.7692 34.4615C48.1287 34.4615 49.2308 33.3595 49.2308 32C49.2308 30.6405 48.1287 29.5385 46.7692 29.5385C45.4098 29.5385 44.3077 30.6405 44.3077 32Z" fill="url(#paint12_linear_5393_13189)"/>
<path d="M59.0769 32C59.0769 33.3595 60.179 34.4615 61.5385 34.4615C62.8979 34.4615 64 33.3595 64 32C64 30.6405 62.8979 29.5385 61.5385 29.5385C60.179 29.5385 59.0769 30.6405 59.0769 32Z" fill="url(#paint13_linear_5393_13189)"/>
<path d="M0 17.2308C0 18.5902 1.10207 19.6923 2.46154 19.6923C3.82101 19.6923 4.92308 18.5902 4.92308 17.2308C4.92308 15.8713 3.82101 14.7692 2.46154 14.7692C1.10207 14.7692 0 15.8713 0 17.2308Z" fill="url(#paint14_linear_5393_13189)"/>
<path d="M14.7692 17.2308C14.7692 18.5902 15.8713 19.6923 17.2308 19.6923C18.5902 19.6923 19.6923 18.5902 19.6923 17.2308C19.6923 15.8713 18.5902 14.7692 17.2308 14.7692C15.8713 14.7692 14.7692 15.8713 14.7692 17.2308Z" fill="url(#paint15_linear_5393_13189)"/>
<path d="M29.5385 17.2308C29.5385 18.5902 30.6405 19.6923 32 19.6923C33.3595 19.6923 34.4615 18.5902 34.4615 17.2308C34.4615 15.8713 33.3595 14.7692 32 14.7692C30.6405 14.7692 29.5385 15.8713 29.5385 17.2308Z" fill="url(#paint16_linear_5393_13189)"/>
<path d="M44.3077 17.2308C44.3077 18.5902 45.4098 19.6923 46.7692 19.6923C48.1287 19.6923 49.2308 18.5902 49.2308 17.2308C49.2308 15.8713 48.1287 14.7692 46.7692 14.7692C45.4098 14.7692 44.3077 15.8713 44.3077 17.2308Z" fill="url(#paint17_linear_5393_13189)"/>
<path d="M59.0769 17.2308C59.0769 18.5902 60.179 19.6923 61.5385 19.6923C62.8979 19.6923 64 18.5902 64 17.2308C64 15.8713 62.8979 14.7692 61.5385 14.7692C60.179 14.7692 59.0769 15.8713 59.0769 17.2308Z" fill="url(#paint18_linear_5393_13189)"/>
<path d="M14.7692 2.46154C14.7692 3.82101 15.8713 4.92308 17.2308 4.92308C18.5902 4.92308 19.6923 3.82101 19.6923 2.46154C19.6923 1.10207 18.5902 0 17.2308 0C15.8713 0 14.7692 1.10207 14.7692 2.46154Z" fill="url(#paint19_linear_5393_13189)"/>
<path d="M29.5385 2.46154C29.5385 3.82101 30.6405 4.92308 32 4.92308C33.3595 4.92308 34.4615 3.82101 34.4615 2.46154C34.4615 1.10207 33.3595 0 32 0C30.6405 0 29.5385 1.10207 29.5385 2.46154Z" fill="url(#paint20_linear_5393_13189)"/>
<path d="M44.3077 2.46154C44.3077 3.82101 45.4098 4.92308 46.7692 4.92308C48.1287 4.92308 49.2308 3.82101 49.2308 2.46154C49.2308 1.10207 48.1287 0 46.7692 0C45.4098 0 44.3077 1.10207 44.3077 2.46154Z" fill="url(#paint21_linear_5393_13189)"/>
<path d="M59.0769 2.46154C59.0769 3.82101 60.179 4.92308 61.5385 4.92308C62.8979 4.92308 64 3.82101 64 2.46154C64 1.10207 62.8979 0 61.5385 0C60.179 0 59.0769 1.10207 59.0769 2.46154Z" fill="url(#paint22_linear_5393_13189)"/>
<defs>
<linearGradient id="paint0_linear_5393_13189" x1="32" y1="64" x2="32" y2="0" gradientUnits="userSpaceOnUse">
<stop stop-color="#5DB59D" stop-opacity="0.4"/>
<stop offset="1" stop-color="#5DB59D" stop-opacity="0"/>
</linearGradient>
<linearGradient id="paint1_linear_5393_13189" x1="32" y1="64" x2="32" y2="0" gradientUnits="userSpaceOnUse">
<stop stop-color="#5DB59D" stop-opacity="0.4"/>
<stop offset="1" stop-color="#5DB59D" stop-opacity="0"/>
</linearGradient>
<linearGradient id="paint2_linear_5393_13189" x1="32" y1="64" x2="32" y2="0" gradientUnits="userSpaceOnUse">
<stop stop-color="#5DB59D" stop-opacity="0.4"/>
<stop offset="1" stop-color="#5DB59D" stop-opacity="0"/>
</linearGradient>
<linearGradient id="paint3_linear_5393_13189" x1="32" y1="64" x2="32" y2="0" gradientUnits="userSpaceOnUse">
<stop stop-color="#5DB59D" stop-opacity="0.4"/>
<stop offset="1" stop-color="#5DB59D" stop-opacity="0"/>
</linearGradient>
<linearGradient id="paint4_linear_5393_13189" x1="32" y1="64" x2="32" y2="0" gradientUnits="userSpaceOnUse">
<stop stop-color="#5DB59D" stop-opacity="0.4"/>
<stop offset="1" stop-color="#5DB59D" stop-opacity="0"/>
</linearGradient>
<linearGradient id="paint5_linear_5393_13189" x1="32" y1="64" x2="32" y2="0" gradientUnits="userSpaceOnUse">
<stop stop-color="#5DB59D" stop-opacity="0.4"/>
<stop offset="1" stop-color="#5DB59D" stop-opacity="0"/>
</linearGradient>
<linearGradient id="paint6_linear_5393_13189" x1="32" y1="64" x2="32" y2="0" gradientUnits="userSpaceOnUse">
<stop stop-color="#5DB59D" stop-opacity="0.4"/>
<stop offset="1" stop-color="#5DB59D" stop-opacity="0"/>
</linearGradient>
<linearGradient id="paint7_linear_5393_13189" x1="32" y1="64" x2="32" y2="0" gradientUnits="userSpaceOnUse">
<stop stop-color="#5DB59D" stop-opacity="0.4"/>
<stop offset="1" stop-color="#5DB59D" stop-opacity="0"/>
</linearGradient>
<linearGradient id="paint8_linear_5393_13189" x1="32" y1="64" x2="32" y2="0" gradientUnits="userSpaceOnUse">
<stop stop-color="#5DB59D" stop-opacity="0.4"/>
<stop offset="1" stop-color="#5DB59D" stop-opacity="0"/>
</linearGradient>
<linearGradient id="paint9_linear_5393_13189" x1="32" y1="64" x2="32" y2="0" gradientUnits="userSpaceOnUse">
<stop stop-color="#5DB59D" stop-opacity="0.4"/>
<stop offset="1" stop-color="#5DB59D" stop-opacity="0"/>
</linearGradient>
<linearGradient id="paint10_linear_5393_13189" x1="32" y1="64" x2="32" y2="0" gradientUnits="userSpaceOnUse">
<stop stop-color="#5DB59D" stop-opacity="0.4"/>
<stop offset="1" stop-color="#5DB59D" stop-opacity="0"/>
</linearGradient>
<linearGradient id="paint11_linear_5393_13189" x1="32" y1="64" x2="32" y2="0" gradientUnits="userSpaceOnUse">
<stop stop-color="#5DB59D" stop-opacity="0.4"/>
<stop offset="1" stop-color="#5DB59D" stop-opacity="0"/>
</linearGradient>
<linearGradient id="paint12_linear_5393_13189" x1="32" y1="64" x2="32" y2="0" gradientUnits="userSpaceOnUse">
<stop stop-color="#5DB59D" stop-opacity="0.4"/>
<stop offset="1" stop-color="#5DB59D" stop-opacity="0"/>
</linearGradient>
<linearGradient id="paint13_linear_5393_13189" x1="32" y1="64" x2="32" y2="0" gradientUnits="userSpaceOnUse">
<stop stop-color="#5DB59D" stop-opacity="0.4"/>
<stop offset="1" stop-color="#5DB59D" stop-opacity="0"/>
</linearGradient>
<linearGradient id="paint14_linear_5393_13189" x1="32" y1="64" x2="32" y2="0" gradientUnits="userSpaceOnUse">
<stop stop-color="#5DB59D" stop-opacity="0.4"/>
<stop offset="1" stop-color="#5DB59D" stop-opacity="0"/>
</linearGradient>
<linearGradient id="paint15_linear_5393_13189" x1="32" y1="64" x2="32" y2="0" gradientUnits="userSpaceOnUse">
<stop stop-color="#5DB59D" stop-opacity="0.4"/>
<stop offset="1" stop-color="#5DB59D" stop-opacity="0"/>
</linearGradient>
<linearGradient id="paint16_linear_5393_13189" x1="32" y1="64" x2="32" y2="0" gradientUnits="userSpaceOnUse">
<stop stop-color="#5DB59D" stop-opacity="0.4"/>
<stop offset="1" stop-color="#5DB59D" stop-opacity="0"/>
</linearGradient>
<linearGradient id="paint17_linear_5393_13189" x1="32" y1="64" x2="32" y2="0" gradientUnits="userSpaceOnUse">
<stop stop-color="#5DB59D" stop-opacity="0.4"/>
<stop offset="1" stop-color="#5DB59D" stop-opacity="0"/>
</linearGradient>
<linearGradient id="paint18_linear_5393_13189" x1="32" y1="64" x2="32" y2="0" gradientUnits="userSpaceOnUse">
<stop stop-color="#5DB59D" stop-opacity="0.4"/>
<stop offset="1" stop-color="#5DB59D" stop-opacity="0"/>
</linearGradient>
<linearGradient id="paint19_linear_5393_13189" x1="32" y1="64" x2="32" y2="0" gradientUnits="userSpaceOnUse">
<stop stop-color="#5DB59D" stop-opacity="0.4"/>
<stop offset="1" stop-color="#5DB59D" stop-opacity="0"/>
</linearGradient>
<linearGradient id="paint20_linear_5393_13189" x1="32" y1="64" x2="32" y2="0" gradientUnits="userSpaceOnUse">
<stop stop-color="#5DB59D" stop-opacity="0.4"/>
<stop offset="1" stop-color="#5DB59D" stop-opacity="0"/>
</linearGradient>
<linearGradient id="paint21_linear_5393_13189" x1="32" y1="64" x2="32" y2="0" gradientUnits="userSpaceOnUse">
<stop stop-color="#5DB59D" stop-opacity="0.4"/>
<stop offset="1" stop-color="#5DB59D" stop-opacity="0"/>
</linearGradient>
<linearGradient id="paint22_linear_5393_13189" x1="32" y1="64" x2="32" y2="0" gradientUnits="userSpaceOnUse">
<stop stop-color="#5DB59D" stop-opacity="0.4"/>
<stop offset="1" stop-color="#5DB59D" stop-opacity="0"/>
</linearGradient>
</defs>
</svg>
