<svg width="670" height="398" viewBox="0 0 670 398" fill="none" xmlns="http://www.w3.org/2000/svg">
<rect x="604.5" y="332.997" width="5" height="5" rx="2.5" fill="#509C87"/>
<rect x="619.5" y="332.997" width="5" height="5" rx="2.5" fill="#509C87"/>
<rect x="634.5" y="332.997" width="5" height="5" rx="2.5" fill="#509C87"/>
<rect x="649.5" y="332.997" width="5" height="5" rx="2.5" fill="#509C87"/>
<rect x="604.5" y="347.997" width="5" height="5" rx="2.5" fill="#509C87"/>
<rect x="619.5" y="347.997" width="5" height="5" rx="2.5" fill="#509C87"/>
<rect x="634.5" y="347.997" width="5" height="5" rx="2.5" fill="#509C87"/>
<rect x="649.5" y="347.997" width="5" height="5" rx="2.5" fill="#509C87"/>
<rect x="664.5" y="347.997" width="5" height="5" rx="2.5" fill="#509C87"/>
<rect x="604.5" y="362.997" width="5" height="5" rx="2.5" fill="#509C87"/>
<rect x="619.5" y="362.997" width="5" height="5" rx="2.5" fill="#509C87"/>
<rect x="634.5" y="362.997" width="5" height="5" rx="2.5" fill="#509C87"/>
<rect x="649.5" y="362.997" width="5" height="5" rx="2.5" fill="#509C87"/>
<rect x="664.5" y="362.997" width="5" height="5" rx="2.5" fill="#509C87"/>
<rect x="604.5" y="377.997" width="5" height="5" rx="2.5" fill="#509C87"/>
<rect x="619.5" y="377.997" width="5" height="5" rx="2.5" fill="#509C87"/>
<rect x="634.5" y="377.997" width="5" height="5" rx="2.5" fill="#509C87"/>
<rect x="649.5" y="377.997" width="5" height="5" rx="2.5" fill="#509C87"/>
<rect x="664.5" y="377.997" width="5" height="5" rx="2.5" fill="#509C87"/>
<rect x="619.5" y="392.997" width="5" height="5" rx="2.5" fill="#509C87"/>
<rect x="634.5" y="392.997" width="5" height="5" rx="2.5" fill="#509C87"/>
<rect x="649.5" y="392.997" width="5" height="5" rx="2.5" fill="#509C87"/>
<rect x="664.5" y="392.997" width="5" height="5" rx="2.5" fill="#509C87"/>
<path d="M23.1172 38.4726L9.02263 37.3133" stroke="#509C87" stroke-width="3" stroke-linecap="round" stroke-linejoin="round"/>
<path d="M27.9969 25.1573L15.7015 18.2128" stroke="#509C87" stroke-width="3" stroke-linecap="round" stroke-linejoin="round"/>
<path d="M36.4259 16.0844L32.6366 2.45935" stroke="#509C87" stroke-width="3" stroke-linecap="round" stroke-linejoin="round"/>
</svg>
