<svg xmlns="http://www.w3.org/2000/svg" xmlns:xlink="http://www.w3.org/1999/xlink" width="820" height="448" viewBox="0 0 820 448">
  <defs>
    <linearGradient id="linear-gradient" x1="0.473" y1="0.111" x2="1.124" y2="1.415" gradientUnits="objectBoundingBox">
      <stop offset="0" stop-color="#5db59d" stop-opacity="0.4"/>
      <stop offset="1" stop-color="#5db59d"/>
    </linearGradient>
    <clipPath id="clip-path">
      <rect id="Rectángulo_8" data-name="Rectángulo 8" width="820" height="448" rx="10" transform="translate(20 14)" fill="url(#linear-gradient)"/>
    </clipPath>
    <linearGradient id="linear-gradient-2" x1="0.184" y1="0.122" x2="0.77" y2="0.917" gradientUnits="objectBoundingBox">
      <stop offset="0" stop-color="#5db59d" stop-opacity="0.4"/>
      <stop offset="1" stop-color="#5db59d" stop-opacity="0"/>
    </linearGradient>
    <clipPath id="clip-path-2">
      <rect id="Rectángulo_3" data-name="Rectángulo 3" width="357" height="256" transform="translate(483 206)" fill="#fff"/>
    </clipPath>
    <linearGradient id="linear-gradient-3" x1="1" y1="0.5" x2="0" y2="0.5" gradientUnits="objectBoundingBox">
      <stop offset="0.167" stop-color="#b1acaa"/>
      <stop offset="0.502" stop-color="#aba6a3"/>
      <stop offset="1" stop-color="#8e8984"/>
    </linearGradient>
    <linearGradient id="linear-gradient-4" x1="1.002" y1="0.5" x2="0.001" y2="0.5" xlink:href="#linear-gradient-3"/>
    <linearGradient id="linear-gradient-5" x1="0.537" y1="-1.327" x2="0.467" y2="1.174" gradientUnits="objectBoundingBox">
      <stop offset="0.167" stop-color="#b1acaa"/>
      <stop offset="0.58" stop-color="#99948f"/>
      <stop offset="1" stop-color="#666361"/>
    </linearGradient>
    <linearGradient id="linear-gradient-6" x1="-5.829" y1="0.5" x2="7.599" y2="0.5" gradientUnits="objectBoundingBox">
      <stop offset="0.107" stop-color="#b3afac"/>
      <stop offset="0.466" stop-color="#a7a29e"/>
      <stop offset="0.78" stop-color="#8d8883"/>
      <stop offset="1" stop-color="#75716e"/>
    </linearGradient>
    <linearGradient id="linear-gradient-7" x1="0.485" y1="-0.467" x2="0.509" y2="0.634" xlink:href="#linear-gradient-6"/>
    <linearGradient id="linear-gradient-8" x1="0.466" y1="-2.304" x2="0.537" y2="1.277" xlink:href="#linear-gradient-6"/>
    <linearGradient id="linear-gradient-9" x1="0.521" y1="1.348" x2="0.461" y2="-0.209" xlink:href="#linear-gradient-6"/>
    <linearGradient id="linear-gradient-10" x1="0.805" y1="30.413" x2="-0.157" y2="-31.229" xlink:href="#linear-gradient-6"/>
    <linearGradient id="linear-gradient-11" x1="0.521" y1="1.92" x2="0.473" y2="-0.197" xlink:href="#linear-gradient-6"/>
    <linearGradient id="linear-gradient-12" x1="0.552" y1="5.692" x2="0.406" y2="-3.829" xlink:href="#linear-gradient-6"/>
    <linearGradient id="linear-gradient-13" x1="0.51" y1="1.906" x2="0.472" y2="-1.578" xlink:href="#linear-gradient-6"/>
    <linearGradient id="linear-gradient-14" x1="0.514" y1="1.604" x2="0.467" y2="-0.857" xlink:href="#linear-gradient-6"/>
    <linearGradient id="linear-gradient-15" x1="0.518" y1="1.225" x2="0.393" y2="-0.496" xlink:href="#linear-gradient-6"/>
    <linearGradient id="linear-gradient-16" x1="0.513" y1="1.589" x2="0.474" y2="-0.553" xlink:href="#linear-gradient-6"/>
    <linearGradient id="linear-gradient-17" x1="0.51" y1="1.333" x2="0.471" y2="-0.769" xlink:href="#linear-gradient-6"/>
    <linearGradient id="linear-gradient-18" x1="-0.015" y1="0.5" x2="1.072" y2="0.5" xlink:href="#linear-gradient-6"/>
    <linearGradient id="linear-gradient-19" x1="0.24" y1="49.554" x2="0.889" y2="-30.471" xlink:href="#linear-gradient-6"/>
    <linearGradient id="linear-gradient-20" x1="0.003" y1="96.994" x2="1.19" y2="-53.666" xlink:href="#linear-gradient-6"/>
    <linearGradient id="linear-gradient-21" x1="-0.02" y1="97.655" x2="1.318" y2="-65.623" xlink:href="#linear-gradient-6"/>
    <linearGradient id="linear-gradient-22" x1="0.317" y1="34.763" x2="0.738" y2="-16.833" xlink:href="#linear-gradient-6"/>
    <linearGradient id="linear-gradient-23" x1="0.114" y1="62.736" x2="1.053" y2="-36.377" xlink:href="#linear-gradient-6"/>
    <linearGradient id="linear-gradient-24" x1="0.032" y1="89.517" x2="1.246" y2="-61.306" xlink:href="#linear-gradient-6"/>
    <linearGradient id="linear-gradient-25" x1="0.315" y1="35.353" x2="0.96" y2="-43.973" xlink:href="#linear-gradient-6"/>
    <linearGradient id="linear-gradient-26" x1="0.137" y1="68.362" x2="1.478" y2="-95.307" xlink:href="#linear-gradient-6"/>
    <linearGradient id="linear-gradient-27" x1="0.222" y1="53.796" x2="1.232" y2="-72.766" xlink:href="#linear-gradient-6"/>
    <linearGradient id="linear-gradient-28" x1="0.279" y1="42.285" x2="1.114" y2="-60.877" xlink:href="#linear-gradient-6"/>
    <linearGradient id="linear-gradient-29" x1="0.195" y1="62.586" x2="1.291" y2="-83.358" xlink:href="#linear-gradient-6"/>
    <linearGradient id="linear-gradient-30" x1="0.122" y1="72.897" x2="1.326" y2="-77.921" xlink:href="#linear-gradient-6"/>
    <linearGradient id="linear-gradient-31" x1="0.109" y1="73.747" x2="1.253" y2="-66.357" xlink:href="#linear-gradient-6"/>
    <linearGradient id="linear-gradient-32" x1="-0.353" y1="164.818" x2="1.2" y2="-30.751" xlink:href="#linear-gradient-6"/>
    <linearGradient id="linear-gradient-33" x1="0.095" y1="75.682" x2="0.858" y2="-16.913" xlink:href="#linear-gradient-6"/>
    <linearGradient id="linear-gradient-34" x1="-0.15" y1="124.941" x2="1.054" y2="-25.713" xlink:href="#linear-gradient-6"/>
    <linearGradient id="linear-gradient-35" x1="-0.242" y1="140.039" x2="1.144" y2="-30.311" xlink:href="#linear-gradient-6"/>
    <linearGradient id="linear-gradient-36" x1="-0.057" y1="105.841" x2="1.037" y2="-29.339" xlink:href="#linear-gradient-6"/>
    <linearGradient id="linear-gradient-37" x1="-0.041" y1="101.262" x2="1.109" y2="-38.737" xlink:href="#linear-gradient-6"/>
    <linearGradient id="linear-gradient-38" x1="0.031" y1="88.811" x2="0.997" y2="-30.031" xlink:href="#linear-gradient-6"/>
    <radialGradient id="radial-gradient" cx="0.849" cy="2.516" r="1.472" gradientTransform="matrix(0.475, 0.029, -0.017, 1.218, -3.346, 1.347)" gradientUnits="objectBoundingBox">
      <stop offset="0.437" stop-color="#f7f46a"/>
      <stop offset="0.648" stop-color="#db370f"/>
      <stop offset="0.854" stop-color="#610009"/>
      <stop offset="1" stop-color="#554658"/>
    </radialGradient>
    <linearGradient id="linear-gradient-39" x1="0.017" y1="0.497" x2="1.001" y2="0.501" gradientUnits="objectBoundingBox">
      <stop offset="0.199" stop-color="#f7f46a"/>
      <stop offset="0.456" stop-color="#db370f"/>
      <stop offset="0.788" stop-color="#610009"/>
      <stop offset="1" stop-color="#554658"/>
    </linearGradient>
    <linearGradient id="linear-gradient-40" x1="-0.016" y1="0.492" x2="1.02" y2="0.503" xlink:href="#linear-gradient-39"/>
    <linearGradient id="linear-gradient-41" x1="-0.029" y1="0.497" x2="1.018" y2="0.503" xlink:href="#linear-gradient-39"/>
    <linearGradient id="linear-gradient-42" x1="0.015" y1="0.494" x2="0.978" y2="0.5" xlink:href="#linear-gradient-39"/>
    <linearGradient id="linear-gradient-43" x1="-0.796" y1="0.274" x2="3.503" y2="0.774" xlink:href="#linear-gradient-39"/>
    <linearGradient id="linear-gradient-44" x1="0.494" y1="-0.426" x2="0.505" y2="0.971" gradientUnits="objectBoundingBox">
      <stop offset="0.199" stop-color="#f7f46a"/>
      <stop offset="0.456" stop-color="#db370f"/>
      <stop offset="1" stop-color="#610009"/>
    </linearGradient>
    <linearGradient id="linear-gradient-45" x1="1.014" y1="0.184" x2="-0.475" y2="0.774" xlink:href="#linear-gradient-39"/>
    <linearGradient id="linear-gradient-46" x1="1.512" y1="0.163" x2="-1.426" y2="0.756" xlink:href="#linear-gradient-39"/>
    <linearGradient id="linear-gradient-47" x1="-0.218" y1="0.301" x2="2.429" y2="0.714" xlink:href="#linear-gradient-39"/>
    <linearGradient id="linear-gradient-48" x1="-1.132" y1="0.238" x2="5.053" y2="0.891" xlink:href="#linear-gradient-39"/>
    <linearGradient id="linear-gradient-49" x1="0.549" y1="-0.466" x2="0.455" y2="1.046" xlink:href="#linear-gradient-44"/>
    <linearGradient id="linear-gradient-50" x1="0.16" y1="0.521" x2="0.845" y2="0.467" xlink:href="#linear-gradient-39"/>
    <linearGradient id="linear-gradient-51" x1="2.305" y1="0.079" x2="-3.038" y2="0.869" xlink:href="#linear-gradient-39"/>
    <linearGradient id="linear-gradient-52" x1="-0.24" y1="0.303" x2="3.047" y2="0.816" xlink:href="#linear-gradient-39"/>
    <linearGradient id="linear-gradient-53" x1="-0.202" y1="0.527" x2="1.247" y2="0.463" xlink:href="#linear-gradient-39"/>
    <linearGradient id="linear-gradient-54" x1="-0.088" y1="0.559" x2="1.083" y2="0.414" xlink:href="#linear-gradient-39"/>
    <linearGradient id="linear-gradient-55" x1="0.104" y1="0.518" x2="1.386" y2="0.484" xlink:href="#linear-gradient-39"/>
    <linearGradient id="linear-gradient-56" x1="0.002" y1="0.479" x2="1.002" y2="0.517" xlink:href="#linear-gradient-39"/>
    <linearGradient id="linear-gradient-57" x1="1.14" y1="0.133" x2="-0.872" y2="0.88" xlink:href="#linear-gradient-39"/>
    <linearGradient id="linear-gradient-58" x1="3.992" y1="-0.261" x2="-5.393" y2="1.061" xlink:href="#linear-gradient-39"/>
    <linearGradient id="linear-gradient-59" x1="-0.498" y1="0.267" x2="4.152" y2="0.881" xlink:href="#linear-gradient-39"/>
    <linearGradient id="linear-gradient-60" x1="-1.466" y1="0.151" x2="2.242" y2="0.551" xlink:href="#linear-gradient-39"/>
    <linearGradient id="linear-gradient-61" x1="0.616" y1="-0.117" x2="0.133" y2="1.293" xlink:href="#linear-gradient-39"/>
    <linearGradient id="linear-gradient-62" x1="0.876" y1="-1.276" x2="-0.184" y2="2.244" xlink:href="#linear-gradient-39"/>
    <linearGradient id="linear-gradient-63" x1="0.673" y1="-1.247" x2="0.087" y2="2.81" xlink:href="#linear-gradient-39"/>
    <linearGradient id="linear-gradient-64" x1="-0.062" y1="0.568" x2="1.128" y2="0.51" xlink:href="#linear-gradient-39"/>
    <linearGradient id="linear-gradient-65" x1="5.981" y1="0.051" x2="-12.024" y2="1.002" xlink:href="#linear-gradient-39"/>
    <linearGradient id="linear-gradient-66" x1="1.971" y1="-0.04" x2="-3.233" y2="1.206" xlink:href="#linear-gradient-39"/>
    <linearGradient id="linear-gradient-67" x1="-0.06" y1="0.58" x2="1.066" y2="0.475" xlink:href="#linear-gradient-39"/>
    <linearGradient id="linear-gradient-68" x1="-0.083" y1="0.56" x2="1.094" y2="0.481" xlink:href="#linear-gradient-39"/>
    <linearGradient id="linear-gradient-69" x1="-0.117" y1="0.544" x2="1.164" y2="0.491" xlink:href="#linear-gradient-39"/>
    <clipPath id="clip-Tamaño_personalizado_1">
      <rect width="820" height="448"/>
    </clipPath>
  </defs>
  <g id="Tamaño_personalizado_1" data-name="Tamaño personalizado – 1" clip-path="url(#clip-Tamaño_personalizado_1)">
    <rect width="820" height="448" fill="#fff"/>
    <g id="Frame_1493" data-name="Frame 1493" transform="translate(-20 -14)">
      <g id="Grupo_5" data-name="Grupo 5" clip-path="url(#clip-path)">
        <rect id="Rectángulo_1" data-name="Rectángulo 1" width="820" height="448" rx="10" transform="translate(20 14)" fill="#509c87"/>
        <rect id="Rectángulo_2" data-name="Rectángulo 2" width="793" height="793" rx="396.5" transform="translate(289 -39)" fill="url(#linear-gradient-2)"/>
        <g id="Grupo_3" data-name="Grupo 3" clip-path="url(#clip-path-2)">
          <path id="Trazado_1" data-name="Trazado 1" d="M479.713,464.639c2.079-1.161,6.1-5.226,8.718-8.047s3.555-4.4,6.17-4.4,6.908.083,6.908.083c1.945.166,2.884.83,4.426,3.153a24.3,24.3,0,0,0,5.835,5.89c2.481,1.991,3.554,4.148,2.213,6.471a8.618,8.618,0,0,1-3.622-.332c-6.907-1.659-7.511-3.982-11.2-1.742s-10.731,3.9-14.956,5.06c-3.219.913-5.432,1.079-6.572-.5a3.45,3.45,0,0,1-.2-1.079C477.232,467.211,477.634,465.718,479.713,464.639Z" fill="url(#linear-gradient-3)"/>
          <g id="Grupo_1" data-name="Grupo 1" opacity="0.5">
            <path id="Trazado_2" data-name="Trazado 2" d="M479.712,464.639c2.079-1.162,6.1-5.227,8.719-8.048,1.81-1.908,2.816-3.318,4.091-3.982-2.348,2.406-4.427,5.31-6.975,7.965-3.219,3.318-5.7,6.388-4.762,7.715,1.006,1.327,10.865-.166,16.163-3.153s3.353-2.157,9.791-.166,3.488-2.986,0-5.143-3.085-2.738-2.951-5.31a2.564,2.564,0,0,0-.67-1.908,6.577,6.577,0,0,1,2.749,2.738,24.313,24.313,0,0,0,5.835,5.89c2.481,1.991,3.554,4.148,2.213,6.471a8.614,8.614,0,0,1-3.621-.332c-6.908-1.659-7.512-3.982-11.2-1.742s-10.73,3.9-14.955,5.061c-3.22.912-5.433,1.078-6.573-.5a3.449,3.449,0,0,1-.2-1.078C477.231,467.21,477.633,465.717,479.712,464.639Z" opacity="0.5" fill="url(#linear-gradient-4)"/>
          </g>
          <path id="Trazado_3" data-name="Trazado 3" d="M500.435,453.356s-6.1-1.244-7.914.5-4.762,5.476-7.444,8.545-1.006,4.9,4.292,3.07,8.92-6.471,11.736-5.393,1.476-2.489-.2-3.318S502.447,453.688,500.435,453.356Z" opacity="0.3" fill="url(#linear-gradient-5)"/>
          <path id="Trazado_4" data-name="Trazado 4" d="M985.243,468.123c-16.967-1.161.2-2.157-16.766-3.235-17.973-1.162-38.293-2.24-54.992-9.873-13.413-6.139-26.558-13.605-39.837-20.159-17.034-8.379-28.636-20.74-39.9-36.585a506.023,506.023,0,0,1-28.435-45.214c-4.292-7.715-7.914-15.845-11.871-23.726-1.475-2.987-4.292-14.767-8.181-15.846-5.768-1.659-9.926-.995-15.559-4.728-7.243-4.812-10.664-10.453-16.1-17.256-3.957-4.9-7.176-4.729-13.01-4.314-9.054.747-11.535-4.231-17.906-8.462-4.36-2.9-13.413,10.453-15.224,13.191-5.633,8.71-12,11.863-20.455,8.213-4.56-1.991-10.193-4.48-15.156-4.978-6.17-.581-13.748,11.034-16.766,15.431-10.4,15.1-21.192,29.368-32.258,43.886-10.6,13.937-23.607,26.3-35.008,39.655-13.48,15.845-28.368,31.11-45.134,42.724a267.784,267.784,0,0,1-65.253,32.521c-1.945.331-3.823.663-5.768.912a72.578,72.578,0,0,1-8.115.5c-17.235,3.982-34.538,7.8-50.9,14.684,11.468,8.3,28.5,4.314,41.312,3.9,7.981-.249,15.894.166,23.875-.332,8.584-.5,17.168-1.078,25.753.332.871.166.469,1.41,0,1.742-2.214,1.742-4.494,3.153-6.774,4.729-5.834,3.982,3.353,7.881,6.505,8.462,7.579,1.41,15.291.332,22.869-.83,16.968-2.571,34.069-2.157,51.17-2.986,12.407-.581,28.436-6.3,40.239-.083,6.1,3.235,6.639,9.374,10.529,14.6a28.394,28.394,0,0,0,17.37,11.282c5.029,1.079,10.193,1.908,15.29,2.572,2.817-.166,5.634-.415,8.45-.664,19.784-1.659,39.77-1.742,59.553-2.654,36.349-1.66,72.5-2.987,108.645-7.467,15.961-1.991,32.526-5.06,47.548-11.282a17.459,17.459,0,0,0,9.121-7.8c1.14-1.908,1.341-4.811,1.744-6.885a13.118,13.118,0,0,0,.469-2.9c1.744-.415,3.555-.747,5.365-.995,16.565-2.9,34.069-.664,50.768-1.162,7.176-.249,14.352-1.659,21.393-2.986,9.054-1.66,18.041-1.743,27.028-3.07,4.83-.664-25.15-2.655-20.455-4.065,1.945-.581,4.56-4.314,4.426-6.72C985.78,469.782,986.451,468.206,985.243,468.123Z" fill="#66382a"/>
          <path id="Trazado_5" data-name="Trazado 5" d="M984.84,468.123c-16.967-1.161.2-2.157-16.766-3.235-17.973-1.162-38.293-2.24-54.992-9.872-13.413-6.14-26.558-13.606-39.837-20.16-17.034-8.379-28.636-20.74-39.9-36.585a506.023,506.023,0,0,1-28.435-45.214c-4.292-7.715-7.914-15.845-11.87-23.726-1.476-2.987-4.293-14.767-8.182-15.846-5.768-1.659-9.926-.995-15.559-4.728-7.243-4.812-10.663-10.453-16.1-17.256-3.956-4.9-7.176-4.729-13.01-4.314-9.054.747-11.535-4.231-17.906-8.462-4.36-2.9-13.413,10.453-15.224,13.191-5.633,8.71-12,11.863-20.455,8.213-4.56-1.991-10.193-4.48-15.156-4.978-6.17-.581-13.748,11.034-16.766,15.431-.738,1.078-1.476,2.074-2.213,3.152a49.96,49.96,0,0,1,11.669-5.89c.671-.249,1.14.166,1.006.913-.8,4.562-3.152,8.379-4.762,12.61,2.683-1.992,5.164-4.148,7.847-6.14.67-.5,1.475-.082,1.274.747-2.28,12.278-6.706,28.455-14.821,37.83-4.292,4.978-9.59,8.545-13.815,13.688-3.756,4.563-7.646,9.458-10.06,15.1,5.365-5.724,10.73-11.614,17.571-15.182.469-.248,1.341-.331,1.341.5a63.749,63.749,0,0,1-.872,10.2,65.031,65.031,0,0,1,2.951-8.71c3.42-7.965,9.59-13.772,14.151-20.824.469-.746,2.012-.995,1.81.332a104.069,104.069,0,0,1-2.615,10.37c5.231-6.3,15.089-17.836,20.253-14.518.134-.332.269-.663.4-1.078.2-.664,1.676-1.908,2.079-.747,3.219,9.707,2.749,19.828,3.286,29.949,4.627-11.615,8.45-23.478,12.742-35.175.268-.664,2.146-2.074,2.079-.5-.335,20.076-.469,39.323-5.969,58.653-4.627,16.426-10.6,32.935-20.857,46.209-.536.663-2.012,1.078-1.81-.332,2.146-13.855,9.724-25.967,4.694-39.655-3.152,8.877-2.347,18.334-8.45,26.3-5.969,7.716-13.212,14.021-18.51,22.317-8.517,13.273-16.028,26.215-32.056,28.123-.738.083-.939-.664-.6-1.244,4.694-9.375,7.511-19.33,14.151-27.377,5.231-6.388,10.73-12.527,15.76-19.164a55.89,55.89,0,0,1-8.786,4.895c-3.688,1.576-8.45,2.074-11.8,4.4a62.8,62.8,0,0,0-7.042,5.89c-3.755,3.567-7.444,7.134-11.937,9.623-.8.415-1.61,0-1.207-1.078,3.755-8.462,3.621-17.837,8.114-26.133,1.945-3.65,4.024-7.134,6.1-10.7-2.817,3.153-5.767,6.139-8.852,9.043-4.427,4.148-8.987,8.13-13.212,12.527-4.493,4.729-6.237,10.619-8.92,16.592-1.609,3.484-5.029,4.978-7.98,6.72a77.333,77.333,0,0,0-17.705,14.6c-6.3,7.051-14.352,6.139-22.8,5.558-1.006-.083-.335-1.41,0-1.742a19.005,19.005,0,0,0,4.292-6.969c-7.444,4.729-14.285,10.37-21.93,14.85-5.969,3.485-13.279,2.572-19.784,3.07a.722.722,0,0,1-.738-1c4.427-14.85,23.473-18.5,32.929-28.372,7.243-7.55,11.2-18.169,17.839-26.3,3.689-4.562,7.645-8.959,11.468-13.356-11.267,9.872-22.668,19.744-33.666,29.948-8.853,8.213-18.443,12.693-29.374,16.924-10.529,4.065-20.857,11.532-32.258,12.03-10.462.414-20.857.995-31.252,2.157-3.286.414-14.553,2.654-16.5-1.992a2.349,2.349,0,0,1,.268-2.4c-5.164,1.659-10.261,3.4-15.291,5.558,11.468,8.3,28.5,4.314,41.312,3.9,7.981-.249,15.894.166,23.875-.332,8.584-.5,17.168-1.078,25.753.332.872.166.469,1.41,0,1.742-2.213,1.742-4.494,3.153-6.774,4.729-5.834,3.982,3.353,7.881,6.505,8.462,7.579,1.41,15.291.332,22.869-.83,16.968-2.571,34.069-2.157,51.17-2.986,12.407-.581,28.436-6.3,40.239-.083,6.1,3.235,6.639,9.374,10.529,14.6A28.394,28.394,0,0,0,645.16,526.2c5.03,1.079,10.194,1.909,15.29,2.572,2.817-.166,5.634-.415,8.45-.663,19.784-1.66,39.77-1.743,59.554-2.655,36.348-1.659,72.5-2.987,108.644-7.467,15.961-1.991,32.526-5.06,47.548-11.282a17.457,17.457,0,0,0,9.121-7.8c1.14-1.909,1.341-4.812,1.744-6.886a13.118,13.118,0,0,0,.469-2.9c1.744-.415,3.555-.746,5.365-.995,16.565-2.9,34.069-.664,50.768-1.162,7.176-.249,14.352-1.659,21.394-2.986,9.053-1.66,18.04-1.743,27.023-3.07-4.087.581-33.6-.083-20.451-4.065,1.945-.581,4.56-4.314,4.426-6.72C985.377,469.782,986.048,468.206,984.84,468.123Zm-269.6-12.942c-.8,10.951-.6,22.317-.872,33.35-.2,9.126.671,18.667-2.146,27.46-.2.664-1.677,1.991-2.079.747-6.1-18.832-18.309-39.323-15.559-60.146a50.506,50.506,0,0,1,2.481-10.2,63.8,63.8,0,0,1,3.354-10.287,451.322,451.322,0,0,1,24.21-46.707c.335-.581,1.945-1.659,2.012-.249C727.045,411.959,716.851,432.7,715.242,455.181Zm22.735,38.992c0,.829-1.811,2.323-2.146.995-2.549-9.457-6.439-18.749-7.444-28.621-.939-9.209,1.475-17.422,3.219-26.215a42.421,42.421,0,0,1,.737-4.812c.134-.664,1.878-1.991,2.079-.747C737.507,454.518,738.312,474.345,737.977,494.173ZM748.3,397.524c-.8,9.623-1.945,19.164-3.354,28.787-.134,1-1.944,2.323-2.146.747-2.012-16.011-2.213-32.106-3.755-48.2-1.073-11.2-3.89-21.984-6.1-32.935-.335,0-.6-.166-.671-.664-.872-7.052-2.28-14.02-3.085-21.072-.067-.746,1.543-2.157,2.012-1.244,7.914,14.684,15.425,30.363,17.638,47.37C750.048,379.107,749.042,388.647,748.3,397.524Zm29.173-77.983C793.372,345.01,809.6,370.4,821.136,398.6c.4.995-1.274,2.239-2.011,1.493-10.06-10.121-19.986-21.4-27.094-34.18-4.7-8.462-7.042-17.919-10.06-27.211-2.75-5.724-5.365-11.365-6.572-17.753C775.4,320.122,776.874,318.546,777.478,319.541Zm9.053,117.638c-4.962-4.978-11.8-8.3-15.693-14.435-3.487-5.558-5.365-11.78-7.243-18.168-4.359-14.6-9.255-29.036-9.12-44.633,0-.913,1.676-2.24,2.146-.995,4.694,12.361,8.584,25.054,14.016,37.083a1.28,1.28,0,0,1,.067.5c6.237,12.858,13.145,25.468,17.839,39.157C788.879,436.764,787.269,437.926,786.531,437.179Zm64.583,39.24c-11.8-12.61-21.594-27.211-33.4-39.821,4.561,8.96,8.853,18.169,13.48,27.128.537,1-1.14,2.655-1.878,1.66-9.12-12.03-20.924-21.653-29.24-34.429-8.584-13.191-17.034-27.045-23.338-41.729-.4-.913,1.073-2.074,1.811-1.659,8.852,4.894,15.491,13.191,24.143,18.417,6.773,4.148,14.62,8.047,19.65,14.767,12.272,16.592,21.192,35.341,30.715,53.841C853.529,475.756,851.919,477.332,851.114,476.419Z" fill="#724f20"/>
          <path id="Trazado_6" data-name="Trazado 6" d="M726.843,321.45a7.422,7.422,0,0,1-2.347,0c-4.694-.913-9.188-2.987-13.614-5.061-8.785-3.982-18.711-6.471-25.216-14.186,0,3.4.671,5.973,2.548,5.641.336-.083.872.249.8.664-1.207,9.126-4.493,17.339-8.316,25.469,4.7-4.978,8.584-10.7,13.279-15.68.536-.58,1.811-.58,1.542.581-1.475,6.222,9.255,3.65,12.34,3.319,3.353-.332,7.578-.747,10.462,1.659,5.231,4.563,3.89,12.278,3.555,19.164C724.161,336.134,725.368,328.75,726.843,321.45Z" fill="url(#linear-gradient-6)"/>
          <path id="Trazado_7" data-name="Trazado 7" d="M984.84,468.123c-16.967-1.161.2-2.157-16.766-3.235-17.973-1.162-38.294-2.24-54.993-9.872-13.413-6.14-26.557-13.606-39.836-20.16-17.035-8.379-28.637-20.74-39.9-36.585a506.254,506.254,0,0,1-28.436-45.214c-4.292-7.715-7.913-15.845-11.87-23.726-1.475-2.987-4.292-14.767-8.182-15.846-3.621-.995-6.639-1.161-9.791-2.074a33.666,33.666,0,0,1-20.924,2.24c-2.616-.58-4.9-2.323-7.176-3.816-.8-.5-3.286-2.738-4.9-3.235a44.213,44.213,0,0,0,3.085,11.531c.537-.581,1.14-1.161,1.744-1.742.469-.415,1.207-.664,1.542,0,2.951,5.89,3.89,12.527,5.969,18.749,1.207-4.065,2.414-8.047,5.03-11.366.4-.5,1.14-.995,1.676-.414,5.3,5.475,8.786,12.61,12.139,19.578a189.715,189.715,0,0,1,10.8,27.045c2.549,8.379,4.494,17.173,10.932,23.229,6.237,5.973,13.077,10.951,18.979,17.422,12.34,13.605,23.4,29.119,34.2,44.218a149.381,149.381,0,0,1,13.48,22.731c2.548,5.309,6.3,11.2,5.03,17.421a1.545,1.545,0,0,1-1.811,1.162c-7.042-2.987-14.687-3.485-22-5.724-5.969-1.826-8.45-4.978-11.871-10.288-6.84-10.535-13.748-21.237-22.332-30.2,4.158,8.379,9.59,15.928,13.212,24.722.4,1-1.275,2.24-1.945,1.493-9.456-9.374-17.1-21.237-28.1-28.455,4.158,8.545,8.785,16.675,11.065,26.132.2.913-1.006,2.157-1.81,1.66-8.786-5.725-16.968-10.37-26.759-13.689-5.164-1.742-7.645-5.226-9.322-10.619-2.213-7.134-3.353-14.6-5.3-21.818-1.744-6.305-3.42-12.693-5.164-19.081a311.676,311.676,0,0,0,9.054,50.606c2.079,7.715-.2,13.688-2.012,21.238-2.012,8.13-3.957,16.26-7.377,23.809-.269.5-1.744,1.576-1.945.5-1.207-5.31-.939-10.536-1.341-15.928-.537-6.388-2.683-12.362-4.36-18.5-2.146-7.881-4.292-15.762-6.572-23.56.939,12.2.872,24.556,1.14,36.751.2,9.623.6,22.067-6.3,29.285-.335.332-1.073.664-1.475.166-7.914-9.54-11.938-24.059-13.614-37.83a129.277,129.277,0,0,0-1.14,19.745c.067.912-1.878,2.24-2.147.995a122.244,122.244,0,0,1-1.877-14.684c0,1.991-.067,3.982-.067,5.89-.2,9.126.67,18.666-2.146,27.46-.2.664-1.677,1.991-2.079.747-6.1-18.832-18.309-39.323-15.559-60.146a50.441,50.441,0,0,1,2.481-10.2c.2-.913.469-1.826.671-2.738-4.628,8.794-8.249,18.085-9.054,28.538-.469,6.139-.067,12.278-.067,18.417,0,3.153-.2,6.471-1.543,9.375-2.816,5.724-8.047,8.96-12.943,12.361-.469.332-1.341.332-1.341-.5A107.484,107.484,0,0,1,675,495.334c-5.365,7.715-10.663,15.514-17.236,22.068-.469.414-1.609.663-1.609-.249-.134-15.265,6.639-28.705,11.937-42.476,2.28-5.89,4.628-11.863,7.31-17.587,2.75-5.725,5.835-11.615,6.3-18.169-.8,1.162-1.609,2.323-2.414,3.4-.4.58-1.409.829-1.677.331-10.395,11.2-18.577,24.557-28.3,36.42-8.45,10.2-22.2,7.218-32.928,12.029-.6.249-1.141-.166-1.006-.912,2.548-12.776,8.718-24.059,15.29-34.844-3.018,3.153-5.968,6.305-8.785,9.541-4.9,5.724-9.859,11.531-14.285,17.67-2.481,3.485-4.829,7.052-8.45,9.209-.4.249-1.073.332-1.274-.249-2.146-6.3-4.628-11.2-2.347-17.836,1.877-5.476,5.633-9.707,7.645-15.016-4.561,5.226-7.109,11.946-11.4,17.421-4.628,5.891-10.73,9.209-16.9,12.942-6.1,3.733-11,7.964-18.175,8.711-7.109.83-14.351.166-21.46.83-1.14.083-.738-1.245-.269-1.743,2.482-2.654,5.1-5.143,7.512-7.881-14.486,5.31-27.966,14.435-43.525,7.881-.537-.248-.268-1.078,0-1.41a29.784,29.784,0,0,1,2.884-3.235c-1.744,1.244-3.488,2.406-5.3,3.65-5.835,3.982,3.353,7.881,6.5,8.462,7.578,1.41,15.291.332,22.869-.83,16.967-2.571,34.068-2.157,51.17-2.986,12.407-.581,28.435-6.3,40.238-.083,6.1,3.235,6.64,9.374,10.53,14.6a28.392,28.392,0,0,0,17.369,11.282c5.03,1.079,10.194,1.908,15.291,2.572,2.817-.166,5.633-.415,8.45-.664,19.784-1.659,39.769-1.742,59.553-2.654,36.349-1.659,72.5-2.987,108.644-7.467,15.962-1.991,32.526-5.06,47.549-11.282a17.458,17.458,0,0,0,9.121-7.8c1.14-1.908,1.341-4.811,1.743-6.885a13.076,13.076,0,0,0,.47-2.9c1.743-.415,3.554-.747,5.365-.995,16.565-2.9,34.068-.664,50.768-1.162,7.175-.249,14.351-1.659,21.393-2.986,9.054-1.66,18.04-1.743,27.027-3.07-17.7,2.489-46.61,3.9-20.455-4.065,1.945-.581,4.561-4.314,4.427-6.72C985.376,469.782,986.047,468.206,984.84,468.123ZM819.191,400.1c-10.06-10.121-19.985-21.4-27.094-34.18-4.7-8.462-7.042-17.919-10.06-27.211-2.749-5.724-5.365-11.365-6.572-17.753-.134-.913,1.341-2.489,1.945-1.494,15.894,25.469,32.124,50.855,43.659,79.062C821.6,399.6,819.929,400.842,819.191,400.1Z" fill="#845331" opacity="0.5"/>
          <path id="Trazado_8" data-name="Trazado 8" d="M680.234,306.848c6.639,6.8,15.894,7.715,24.21,10.535,3.554,1.245,7.243,2.489,10.261,4.812,1.542,1.162,6.3-4.231,7.846-5.06,7.243-4.148,15.425-5.891,22.132-11.117.335-.249,1.073-.747,1.475-.166,6.706,9.955,15.089,12.693,25.887,8.462a50.084,50.084,0,0,1,6.706-2.323,21.106,21.106,0,0,1-7.712-3.152c-7.243-4.812-10.663-10.453-16.1-17.256-3.956-4.9-7.175-4.729-13.01-4.314-9.054.747-11.535-4.231-17.906-8.462C719.668,275.9,710.614,289.26,708.8,292c-5.633,8.71-12,11.863-20.454,8.213-4.561-1.991-10.194-4.48-15.157-4.978h-.469A42.858,42.858,0,0,0,680.234,306.848Z" fill="url(#linear-gradient-7)"/>
          <path id="Trazado_9" data-name="Trazado 9" d="M769.765,309.918c-5.03-2.654-6.1-5.807-8.115-10.784a20.469,20.469,0,0,0-2.616,2.488c-.335.332-1.475.747-1.542,0-.134-.995-.268-1.991-.4-2.9-7.176,5.807-14.553,11.448-23.607,12.859-.47.083-.738-.249-.8-.664-.268-2.655.6-4.978,1.207-7.384-2.146,2.738-3.956,5.642-6.907,7.55-1.811,1.161-5.164,1.244-7.176,1.493-1.744.166-3.756.581-5.164-.829-2.549-2.406-3.555-7.633-6.707-2.738a1.458,1.458,0,0,1-1.274.664c-5.1-1.079-11.4-1.162-15.76-4.646a51.753,51.753,0,0,1-5.835-5.642,36.271,36.271,0,0,0,5.3,7.467c6.639,6.8,15.894,7.715,24.21,10.536,3.554,1.244,7.243,2.489,10.261,4.811,1.542,1.162,6.3-4.23,7.846-5.06,7.243-4.148,15.425-5.89,22.131-11.117.336-.249,1.073-.746,1.476-.166,6.706,9.956,15.089,12.693,25.887,8.462,1.207-.5,2.414-.995,3.688-1.41C780.294,313.154,774.727,312.49,769.765,309.918Z" fill="url(#linear-gradient-8)"/>
          <path id="Trazado_10" data-name="Trazado 10" d="M724.631,324.188l-.067.082c-4.56,28.539-8.852,57.99-20.455,84.122-5.7,12.942-9.791,26.216-14.485,39.655-4.628,13.274-11.267,25.8-16.968,38.577.671-.83,1.274-1.577,1.878-2.406,5.566-11.946,11.669-23.644,17.1-35.673,6.439-14.269,11-29.368,17.571-43.554,5.634-12.278,8.518-23.976,10.127-37.581,1.14-9.872,3.219-19.745,4.56-29.7A76.633,76.633,0,0,0,724.631,324.188Z" fill="url(#linear-gradient-9)"/>
          <path id="Trazado_11" data-name="Trazado 11" d="M610.555,423.325c1.073-1.328,2.146-2.738,3.219-4.065-1.14,1.327-2.213,2.655-3.219,4.065C610.488,423.325,610.555,423.408,610.555,423.325Z" fill="url(#linear-gradient-10)"/>
          <path id="Trazado_12" data-name="Trazado 12" d="M688.954,314.148A241.5,241.5,0,0,1,674.6,343.019c-5.834,10.37-15.29,19.08-23,27.874C645.63,377.7,640.064,384,635.5,391.965c-.134.249-.268.415-.4.664,7.377-8.96,14.956-17.754,22.8-26.133a58.261,58.261,0,0,1,5.5-4.977c-4.427,14.352-6.439,32.52-15.09,44.218-3.487,4.645-8.987,8.544-12.809,13.024a157.9,157.9,0,0,0-11.133,14.85c2.079-2.074,4.225-4.065,6.371-6.139,2.951-3.567,5.969-7.051,9.121-10.453,3.554-3.9,9.456-7.8,12.072-12.776,6.907-12.942,8.248-28.953,12.071-43.222,4.963-4.065,10.328-8.462,12.273-14.269,3.353-10.2,8.45-19.5,12.206-29.451C688.686,316.3,688.82,315.227,688.954,314.148Z" fill="url(#linear-gradient-11)"/>
          <path id="Trazado_13" data-name="Trazado 13" d="M635.1,392.711c-7.243,8.711-14.285,17.67-21.327,26.547C621.016,410.63,629.332,402.334,635.1,392.711Z" fill="url(#linear-gradient-12)"/>
          <path id="Trazado_14" data-name="Trazado 14" d="M556.3,449.207c-7.511,8.213-14.352,15.6-23.741,21.4-5.231,3.235-10.864,5.641-16.364,8.213a15.932,15.932,0,0,0,1.811-.664l8.853-3.235c9.254-4.4,17.906-9.458,25.618-18.5,14.687-17.172,30.045-32.6,45.939-48.365.268-.581.47-1.162.738-1.743C584.8,420.669,569.981,434.108,556.3,449.207Z" fill="url(#linear-gradient-13)"/>
          <path id="Trazado_15" data-name="Trazado 15" d="M695.994,378.691c-.939,2.655-1.811,5.227-2.548,8.048a25.335,25.335,0,0,0-.6,6.8c-3.219,7.135-5.9,13.108-11.8,19-8.719,8.711-17.169,17.09-25.217,26.547-8.986,10.536-18.845,24.308-25.819,38.328-.47,1.327-.872,2.655-1.274,3.982,8.785-17.587,22.466-33.931,34.2-47.785,6.774-7.964,14.687-14.684,21.662-22.482,4.091-4.563,6.3-9.209,8.517-14.435.4,3.235,1.14,6.554,1.744,9.457.134.581.4.83.738.83-.067-9.209,0-18.417.4-27.626A1.112,1.112,0,0,1,695.994,378.691Z" fill="url(#linear-gradient-14)"/>
          <path id="Trazado_16" data-name="Trazado 16" d="M750.72,472.769c.6,5.973,1.475,11.946,1.81,17.919.336,6.305.872,12.61,1.342,19,.067-2.572.134-5.143.2-7.632-.134-13.606-.134-27.377-1.408-40.817-.939-9.789-3.354-19.329-4.7-29.036-1.676-11.7-.134-24.39-1.274-36.253a.573.573,0,0,0-.268-.5c.067-.664.2-1.327.268-1.991,1.073-9.043-.8-17.837-2.012-26.713-.469-1.411-1.006-2.821-1.543-4.148-.067,11.7,2.012,22.9.6,34.76a233.747,233.747,0,0,1-9.255,42.725c-3.554,10.535-5.1,21.735-5.566,33.018.134,10.95.6,21.818,1.811,32.6a212.619,212.619,0,0,1,.2-32.686c1.475-14.85,5.7-28.953,9.322-43.306,1.878-7.3,3.42-15.264,4.627-23.062.067,17.172,2.75,34.511,4.9,51.435A116.937,116.937,0,0,1,750.72,472.769Z" fill="url(#linear-gradient-15)"/>
          <path id="Trazado_17" data-name="Trazado 17" d="M870.429,466.546c-5.164-7.052-10.6-13.937-15.358-21.238-6.572-10.121-13.279-20.325-20.388-30.2-7.511-10.453-18.576-18.5-27.228-27.874-5.834-6.3-9.456-15.68-12.205-25.22-1.073-2.655-2.146-5.393-3.152-8.047,2.012,9.374,4.292,18.915,7.846,27.46,4.359,10.619,16.9,19.5,24.68,26.879,10.194,9.623,19.717,23.56,27.161,36,6.036,10.2,13.681,18.832,20.924,27.875C871.971,470.362,871.166,468.454,870.429,466.546Z" fill="url(#linear-gradient-16)"/>
          <path id="Trazado_18" data-name="Trazado 18" d="M829.117,469.035c.134.166.268.414.4.58,7.511,10.039,15.626,19.579,23.339,29.451,1.006.913,2.079,1.908,3.152,2.821-9.658-15.016-20.656-28.953-30.85-43.471a30.34,30.34,0,0,0-12.608-10.785c-13.48-19.164-23.2-40.153-33.2-61.474-1.073-1.576-2.079-3.235-3.152-4.811,5.1,12.444,9.859,25.137,15.76,37.166,4.158,8.462,8.652,18.749,14.821,26.63-10.529-4.895-16.162-13.274-24.411-21.487.939,1.991,1.878,3.983,2.951,5.974a90.464,90.464,0,0,0,14.285,14.932c8.181,6.471,16.833,6.222,23.338,16.012q2.918,4.355,6.036,8.462C829.05,468.952,829.117,468.952,829.117,469.035Z" fill="url(#linear-gradient-17)"/>
          <path id="Trazado_19" data-name="Trazado 19" d="M584.6,453.523c6.237-5.475,12.407-11.033,19.046-16.177,1.543-1.244,3.219-2.406,4.9-3.65,4.9-4.9,9.791-9.79,15.425-13.523a39.653,39.653,0,0,0,2.95-4.065c5.567-9.208,10.06-19.247,15.9-28.206a91.849,91.849,0,0,1,10.931-17.173c3.286-4.065,6.975-8.379,10.127-12.942-5.164,5.227-11.871,9.292-17.1,13.606C641,376.121,634.5,381.1,630,387.321c-4.359,6.056-6.907,13.108-10.328,19.745a67.011,67.011,0,0,1-6.035,9.374c-3.018,5.144-7.243,9.292-11,13.854-8.45,10.122-17.772,19.579-26.758,29.285,0,.083-.068.083-.068.166C578.7,457.671,581.649,455.68,584.6,453.523Z" fill="url(#linear-gradient-18)"/>
          <path id="Trazado_20" data-name="Trazado 20" d="M672.521,371.64c-1.274,1.162-2.616,2.323-3.957,3.485-4.359,12.61-9.389,24.556-17.5,35.175-3.487,4.563-7.176,8.876-10.8,13.273-2.012,3.153-3.89,6.3-5.9,9.458a67,67,0,0,1,4.9-4.646c4.359-3.65,8.92-6.886,13.614-10.121,5.03-3.484,9.926-7.218,14.754-10.951a193.666,193.666,0,0,1,8.719-21.984c.8-2.572,1.676-5.061,2.548-7.633,2.146-4.231,4.426-8.379,6.17-12.858,1.006-1.66,1.945-3.319,2.884-4.978.6-1.41,1.14-2.821,1.743-4.231C683.989,361.187,678.221,366.5,672.521,371.64Z" fill="#e3e1df" opacity="0.4"/>
          <path id="Trazado_21" data-name="Trazado 21" d="M656.428,337.378c3.017-5.06,6.035-10.038,8.852-15.1.2-.331-.2-.414-.4-.166a475.211,475.211,0,0,1-45.6,56.5c-5.164,5.476-10.194,10.039-12.072,17.754-2.28,9.457-8.249,17.256-11.266,26.381,4.9-4.894,10.126-9.457,15.357-13.937a47.407,47.407,0,0,0,4.024-6.554c5.9-8.877,10.06-19.164,17.034-27.045,7.445-8.462,15.358-16.426,23.339-24.307,1.341-3.319,2.682-6.72,4.292-9.873,2.28-4.4,4.7-8.71,7.176-12.941A54.19,54.19,0,0,0,656.428,337.378Z" fill="#e3e1df" opacity="0.4"/>
          <path id="Trazado_22" data-name="Trazado 22" d="M603.647,422.495a24.174,24.174,0,0,0-2.481,1.162c-.067.083-.134.083-.2.166-4.7,2.572-9.524,4.811-14.017,7.715-5.633,3.65-10.864,8.213-16.632,11.532-1.811,1.078-2.951,2.986-3.755,5.392-.269,6.471-.336,12.942-.6,19.413a118.943,118.943,0,0,1,17.772-25.054c3.018-3.236,6.3-6.139,9.523-9.126,1.274-.995,2.616-1.991,3.89-2.987,1.073-.829,2.414-2.488,3.755-3.816.872-.58,1.744-1.078,2.616-1.659C604.318,424.818,605.19,422.247,603.647,422.495Z" fill="#e3e1df" opacity="0.4"/>
          <path id="Trazado_23" data-name="Trazado 23" d="M555.831,438.84c-6.17,2.24-12.541,8.462-18.175,11.946-3.017,1.825-6.035,3.65-9.053,5.393-3.152,1.41-6.3,2.9-9.456,4.4-6.237,3.07-11.871,6.471-18.309,9.126-3.353,1.41-6.706,2.24-9.724,4.4a1.579,1.579,0,0,0-.6,1.41c7.243-.332,15.09-3.484,21.93-5.475.336-.083.671-.249,1.073-.332,4.628-1.908,9.188-4.065,13.748-6.471A123.374,123.374,0,0,0,545.7,451.2c.335-.415.738-.747,1.073-1.162C549.862,446.389,552.746,442.49,555.831,438.84Z" fill="#e3e1df" opacity="0.4"/>
          <path id="Trazado_24" data-name="Trazado 24" d="M677.351,421.916c-6.572,6.8-13.279,13.937-19.381,21.57a37.6,37.6,0,0,0-3.823,3.982,217.056,217.056,0,0,0-10.8,21.4c3.755-1.825,6.974-5.143,10.059-8.047,2.951-2.737,7.042-5.89,9.188-9.54,3.42-5.724,6.371-11.7,10.06-17.256,2.213-3.4,6.505-7.217,6.907-11.614C679.833,420.754,678.089,421.086,677.351,421.916Z" fill="#e3e1df" opacity="0.4"/>
          <path id="Trazado_25" data-name="Trazado 25" d="M713.969,416.856c1.677-6.637,5.5-14.435,6.1-21.819-4.493,6.305-7.511,14.933-10.127,22.068-.335.829-.6,1.659-.871,2.488a205.936,205.936,0,0,0-9.389,19.745c-5.433,13.937-5.567,29.119-6.841,44.052a.977.977,0,0,0,.2.829,70.9,70.9,0,0,1,5.231-14.767c.268-1.493.6-2.986.939-4.479,2.28-8.794,4.628-17.505,7.444-26.133,2.347-7.134,4.9-14.269,7.444-21.321C713.9,417.436,713.9,417.27,713.969,416.856Z" fill="#e3e1df" opacity="0.4"/>
          <path id="Trazado_26" data-name="Trazado 26" d="M732.813,328.17a1.849,1.849,0,0,0-.872,1.244c-2.146,18.583-7.175,38.079-5.432,56.994.134,1.41,1.409.83,2.146.083.738-1.991,1.409-4.646,1.945-6.3l5.03-14.684c.335-1,.671-1.991,1.006-2.9.067-.663.2-1.327.268-1.991.067-.746.134-1.493.134-2.322C735.63,348.246,734.557,338.125,732.813,328.17Z" fill="#e3e1df" opacity="0.4"/>
          <path id="Trazado_27" data-name="Trazado 27" d="M721.278,469.036c0-.166-.067-.415-.067-.581.067-.332.067-.747.134-1.078.805-16.841,2.482-33.516,6.237-49.859-.067.083-.134.083-.134.165-7.444,10.371-12.206,22.732-15.693,35.259a30.913,30.913,0,0,0-.067,14.02c2.683,6.388,5.768,12.527,9.054,18.583C720.876,479.987,721.01,474.511,721.278,469.036Z" fill="#e3e1df" opacity="0.4"/>
          <path id="Trazado_28" data-name="Trazado 28" d="M782.643,356.459c-2.817-5.641-5.634-11.283-8.384-16.924-1.14-2.406-2.146-4.978-3.353-7.3,1.006,9.624,1.677,19.579,4.494,28.788,2.749,8.793,10.663,14.932,17.7,19.827.335.249.67.083,1.006-.083C790.355,372.553,786.666,364.423,782.643,356.459Z" fill="#e3e1df" opacity="0.4"/>
          <path id="Trazado_29" data-name="Trazado 29" d="M818.387,433.7a28.3,28.3,0,0,0,7.578,4.48v-.166c-4.426-16.841-15.693-29.783-27.7-40.9,4.426,6.72,7.645,14.6,11.4,21.487C812.485,423.823,815.369,428.8,818.387,433.7Z" fill="#e3e1df" opacity="0.4"/>
          <path id="Trazado_30" data-name="Trazado 30" d="M866.2,444.314c4.493,2.987,9.121,5.641,13.815,8.13a44.516,44.516,0,0,0,3.823,2.9c.4.166.738.331,1.14.5l5.432,2.489c.939.249,1.811.5,2.817.664,5.231,2.489,10.462,4.9,15.626,7.383,1.207.415,2.481.83,3.756,1.162a1.815,1.815,0,0,0,.67-2.323c-3.353-4.646-9.322-8.213-13.614-11.946-1.341-1.162-2.749-2.323-4.158-3.485a27.022,27.022,0,0,0-6.505-5.143q-5.734-4.356-11.468-8.462c-14.016-10.121-27.228-18.666-38.428-32.6-.335-.414-.939-.082-1.274.415,4.158,8.96,11.736,16.841,16.364,24.722.871,1.494,1.743,3.07,2.615,4.646.47.5,1.006,1,1.543,1.493C860.5,438.59,862.851,442.157,866.2,444.314Z" fill="#e3e1df" opacity="0.4"/>
          <path id="Trazado_31" data-name="Trazado 31" d="M683.588,388.812a2.735,2.735,0,0,0-2.414,1.909c-.268.912,0,2.157,1.006,2.157a2.735,2.735,0,0,0,2.414-1.909C684.862,390.057,684.661,388.812,683.588,388.812Z" fill="url(#linear-gradient-19)"/>
          <path id="Trazado_32" data-name="Trazado 32" d="M686.741,380.85c-1.006,0-2.012,2.157-.738,2.157C687.076,383.09,688.082,380.85,686.741,380.85Z" fill="url(#linear-gradient-20)"/>
          <path id="Trazado_33" data-name="Trazado 33" d="M684.394,395.7c-.939,0-1.811,1.991-.671,1.991C684.662,397.69,685.534,395.7,684.394,395.7Z" fill="url(#linear-gradient-21)"/>
          <path id="Trazado_34" data-name="Trazado 34" d="M706.523,371.225c-2.951,0-5.767,6.3-2.079,6.3C707.328,377.53,710.212,371.225,706.523,371.225Z" fill="url(#linear-gradient-22)"/>
          <path id="Trazado_35" data-name="Trazado 35" d="M699.951,386.324a2.786,2.786,0,0,0,.269,1c.536.995,1.676,0,1.945-.664a7.253,7.253,0,0,0,.268-1.161C702.634,383.587,699.75,384.582,699.951,386.324Z" fill="url(#linear-gradient-23)"/>
          <path id="Trazado_36" data-name="Trazado 36" d="M699.213,397.275c-1.006,0-2.012,2.157-.737,2.157C699.482,399.515,700.488,397.275,699.213,397.275Z" fill="url(#linear-gradient-24)"/>
          <path id="Trazado_37" data-name="Trazado 37" d="M618.937,444.894a2.889,2.889,0,0,0-1.944,1.908c-.2.664-.2,1.825.6,2.074h.067a2.182,2.182,0,0,0,2.146-.747s.067,0,.067-.083C620.882,446.968,620.815,444.479,618.937,444.894Z" fill="url(#linear-gradient-25)"/>
          <path id="Trazado_38" data-name="Trazado 38" d="M617.128,453.938c-.939,0-1.81,1.99-.67,1.99C617.4,455.928,618.268,453.938,617.128,453.938Z" fill="url(#linear-gradient-26)"/>
          <path id="Trazado_39" data-name="Trazado 39" d="M616.055,451.531c-1.207,0-2.415,2.572-.872,2.572C616.39,454.1,617.6,451.531,616.055,451.531Z" fill="url(#linear-gradient-27)"/>
          <path id="Trazado_40" data-name="Trazado 40" d="M793.506,457.588c-1.476,0-2.884,3.152-1.073,3.152C793.908,460.74,795.383,457.588,793.506,457.588Z" fill="url(#linear-gradient-28)"/>
          <path id="Trazado_41" data-name="Trazado 41" d="M790.689,452.03c-.134.166-.2.332-.335.415-.536.829.268,1.576,1.006.995.134-.083.268-.249.4-.332C793.1,452.113,791.763,450.537,790.689,452.03Z" fill="url(#linear-gradient-29)"/>
          <path id="Trazado_42" data-name="Trazado 42" d="M778.954,433.611c-1.006,0-2.012,2.157-.738,2.157C779.289,435.768,780.228,433.611,778.954,433.611Z" fill="url(#linear-gradient-30)"/>
          <path id="Trazado_43" data-name="Trazado 43" d="M775.466,419.592c-1.073,0-2.146,2.323-.738,2.323C775.8,421.915,776.807,419.592,775.466,419.592Z" fill="url(#linear-gradient-31)"/>
          <path id="Trazado_44" data-name="Trazado 44" d="M750.854,316.555c-.8,0-1.542,1.659-.537,1.659C751.122,318.3,751.86,316.555,750.854,316.555Z" fill="url(#linear-gradient-32)"/>
          <path id="Trazado_45" data-name="Trazado 45" d="M754.072,325.68a.866.866,0,0,0-.738-.746.218.218,0,0,1-.2-.083c-1.207-.249-2.817,2.074-1.811,3.152,1.14,1.161,2.884-.913,2.75-2.157Z" fill="url(#linear-gradient-33)"/>
          <path id="Trazado_46" data-name="Trazado 46" d="M755.213,320.951c-1.006,0-2.012,2.157-.737,2.157C755.549,323.191,756.488,320.951,755.213,320.951Z" fill="url(#linear-gradient-34)"/>
          <path id="Trazado_47" data-name="Trazado 47" d="M749.31,323.275c-.872,0-1.744,1.908-.6,1.908C749.578,325.1,750.45,323.275,749.31,323.275Z" fill="url(#linear-gradient-35)"/>
          <path id="Trazado_48" data-name="Trazado 48" d="M759.169,336.051c-1.14,0-2.213,2.406-.8,2.406C759.5,338.457,760.577,336.051,759.169,336.051Z" fill="url(#linear-gradient-36)"/>
          <path id="Trazado_49" data-name="Trazado 49" d="M761.114,355.463c-1.073,0-2.146,2.323-.737,2.323C761.383,357.786,762.456,355.463,761.114,355.463Z" fill="url(#linear-gradient-37)"/>
          <path id="Trazado_50" data-name="Trazado 50" d="M761.918,347.664c-1.274,0-2.481,2.738-.939,2.738C762.32,350.4,763.528,347.664,761.918,347.664Z" fill="url(#linear-gradient-38)"/>
          <path id="Trazado_51" data-name="Trazado 51" d="M672.321,284.449c3.085-3.235,2.415-2.157,5.5-.663s4.828,2.157,4.828,2.157,6.506-2.406,11-3.651c4.493-1.327,2.682,4.231,11.535.83,8.785-3.319,14.016-3.982,17.638-5.227,3.688-1.244,2.28,4.231,7.913,1.245s6.573-3.236,8.518-1.411,6.974,8.214,10.26,8.379,6.975-.663,10.194-1.244c3.152-.581,2.75,2.24,3.152,3.4.336.83.134.664,2.616-.829,2.481-1.411,3.755-3.485,5.1-1.742s-2.146,9.125-.939,13.522c1.207,4.48,18.107,16.592,7.578,21.155-10.529,4.48-43.458,9.872-53.92,6.72S684.326,312.9,677.955,304.36C671.651,295.815,672.321,284.449,672.321,284.449Z" fill="url(#radial-gradient)"/>
          <path id="Trazado_52" data-name="Trazado 52" d="M712.427,384.085a8.3,8.3,0,0,0-.6,3.318c-.067,2.406.135,4.812.2,7.218.067,2.157-1.073,4.314-1.744,6.3-1.14,3.235-2.548,6.886-2.213,10.37.134,1.493.738,3.816,2.615,4.4,1.677.5,1.945-2.9,2.214-3.733.67-2.074,1.944-3.734,2.883-5.642,1.275-2.737.47-4.728-.268-7.383a20.425,20.425,0,0,1-.469-7.8c-.2-1.908.2-3.9-.135-5.725C714.64,384.334,713.3,382.26,712.427,384.085Z" opacity="0.5" fill="url(#linear-gradient-39)"/>
          <path id="Trazado_53" data-name="Trazado 53" d="M810.274,352.974c-3.421-1.659-7.445-2.738-9.725-5.807-1.341-1.825-2.213-3.816-3.822-5.476-1.543-1.576-3.287-2.9-4.963-4.4-2.616-2.322-5.9-5.392-5.164-8.959a.414.414,0,0,1,.536-.332,20.732,20.732,0,0,1,2.012.829,159.564,159.564,0,0,0-13.077-12.361c-2.951-2.322-6.17-4.811-8.383-7.715,0,0-.067,0-.067.083.067,1.162,1.274,2.074,1.609,3.153,0,.083.134.165.2.165a5.947,5.947,0,0,0,.537,2.157c.738,1.743,1.811,2.821,2.414,4.729.537,1.659,1.006,3.236,1.543,4.895-2.012,1.327-4.091,2.82-6.371,2.489-2.079-3.982-3.018-8.213-4.427-12.527a1.012,1.012,0,0,0-1.408-.581c-3.487,1.576-5.633,4.646-8.718,6.637-.537-.581-1.073-1.245-1.677-1.825a42.891,42.891,0,0,1-11.4,3.816c-.2.332-.4.746-.6,1.078a30.357,30.357,0,0,0-4.762.83,22.846,22.846,0,0,1-8.785.664,16.2,16.2,0,0,0-1.878-1.991q-3.623-.374-7.243-1c-6.3-1.244-13.212-2.655-18.979-5.309-3.219-1.494-6.1-3.4-9.188-5.061-2.482-1.327-5.164-2.157-7.645-3.484-3.018-1.66-5.433-4.065-8.115-6.139-1.14-.83-2.348-1.743-3.555-2.572-3.755,6.388-8.785,11.365-14.016,16.758a46.438,46.438,0,0,0-6.438,8.213c-1.543,2.738-2.549,5.641-3.823,8.462a51.375,51.375,0,0,1-6.237,7.549c-3.085,3.07-6.505,5.807-9.255,9.126-2.615,3.069-5.1,6.222-7.511,9.374a5.364,5.364,0,0,0-.537,1.66c-.4,1.742.4,3.567,2.683,3.235,2.481-.332,4.628-1.908,6.572-3.318a78.339,78.339,0,0,0,7.042-5.974c2.616-2.488,5.03-5.06,7.511-7.715,1.677-2.406,3.286-5.06,6.573-5.475a.391.391,0,0,1,.4.249c1.945,3.4-.335,7.715-2.012,10.7-2.079,3.651-4.56,7.052-6.773,10.7a76.88,76.88,0,0,0-4.628,8.048,65.347,65.347,0,0,0-2.749,7.3,15.643,15.643,0,0,1-3.488,6.3,33.768,33.768,0,0,1-5.1,4.148,24.886,24.886,0,0,0-6.237,5.558c-1.475,1.991-2.615,4.231-4.024,6.305-1.475,2.323-3.353,4.314-4.962,6.554-1.543,2.157-2.482,4.563-3.823,6.8-2.28,3.982-5.835,6.969-9.054,10.287-2.816,2.9-6.706,6.969-5.767,11.283,1.408,6.139,8.718-1.826,10.328-3.651a124.871,124.871,0,0,0,9.657-13.439,26.767,26.767,0,0,0,3.621-7.3,42.459,42.459,0,0,1,2.012-6.3c2.146-4.48,6.573-7.881,9.725-11.7,1.81-2.157,3.286-4.563,5.3-6.554a20.183,20.183,0,0,1,4.828-3.318c4.695-2.406,9.591-4.314,12.541-8.711,2.415-3.65,3.823-7.716,7.042-10.868,1.811-1.742,4.225-2.821,6.3-4.231a15.875,15.875,0,0,0,2.28-1.742.753.753,0,0,1,.067-.332c1.208-1.825,2.281-4.895,4.762-5.641,1.006-.249,3.286-.83,3.823.5.67,1.411-.336,2.9-.336,4.314a1.928,1.928,0,0,0,2.146,1.991,8.274,8.274,0,0,0,1.677-.912.507.507,0,0,1,.335-.083c2.549-2.24,4.024-5.89,5.3-8.711,1.073-2.489,1.878-5.309,3.354-7.632a.4.4,0,0,1,.67.083c.4,1.078,1.006,2.406,2.683,2.157.268,0,.4.083.469.332,2.348-1,3.421-5.974,3.957-8.048.47-1.991.872-4.065,1.408-6.056a14.186,14.186,0,0,1,2.549-4.563c1.207-1.493,4.091-4.645,6.237-2.4,1.945,1.991-.134,5.309-1.341,7.134a19.3,19.3,0,0,0-2.75,5.144c-.671,2.323-.469,4.48-.469,6.885a16.17,16.17,0,0,1-1.342,6.139c-.737,1.826-2.414,5.642-.737,7.467,2.079,2.24,4.09-3.236,4.426-4.48.268-.995.469-2.24,1.408-2.9,2.146-1.659,4.024,4.563,4.225,5.559a37.805,37.805,0,0,1,.47,12.278c-.47,3.733-1.878,7.3-2.884,10.951a29.628,29.628,0,0,0-.4,3.4c-.067,2.323.537,5.973,3.421,6.886,2.615.829,5.1-1,6.036-3.153,1.14-2.737,1.14-5.558,1.005-8.462a34.449,34.449,0,0,1,1.342-11.7,10.442,10.442,0,0,1,2.213-4.48c1.609-1.576,4.024-.249,5.3-2.406a.391.391,0,0,1,.6-.166,2.168,2.168,0,0,1,1.006,2.987c-.939,2.655,1.274,3.9,1.609,6.3.335,2.323-.4,4.314-.738,6.637-.268,2.406.6,4.148,1.61,6.305a13.746,13.746,0,0,1,1.609,6.222,46.1,46.1,0,0,0,0,6.8,7.026,7.026,0,0,0,3.152,5.31c1.878,1.078,5.03,1.991,6.908.5,3.286-2.655,2.146-8.3,1.61-11.781-.738-4.645-1.543-9.291-1.878-13.937-.4-4.895-1.476-11.78,1.475-16.343.134-.83.4-1.825,1.409-1.908h.268c.067-.083.134-.166.2-.166a.38.38,0,0,1,.6.415,9.116,9.116,0,0,1,1.877,1.161c.2.166,1.543,1.659,1.811,1.327a5.315,5.315,0,0,0,.537-4.065c-.336-1.576-1.006-3.069-1.342-4.645a47.115,47.115,0,0,1-.8-7.467c0-1.908-.269-4.812,1.14-6.471a2.555,2.555,0,0,1,4.024.5,8.431,8.431,0,0,1,.8,4.065c.067,1.41-.067,3.65,1.073,4.812,2.482,2.572,2.415-2.323,4.024-2.738.872-.249,1.677.83,2.079,1.327a19.14,19.14,0,0,1,2.884,5.559c1.61,4.646,2.414,9.374,3.957,14.02a107.648,107.648,0,0,0,4.694,12.61c1.14,2.406,6.774,13.688,10.8,10.121,2.213-1.908,3.755-5.724,2.883-8.462-.737-2.489-2.548-4.48-3.956-6.637a19.123,19.123,0,0,1-2.549-7.217,17.93,17.93,0,0,0-2.213-5.476c-.8-1.493-2.146-4.645.6-5.143,3.487-.664,5.3,1.576,6.773,4.148a10.814,10.814,0,0,0,1.878,2.572c1.542,1.161,3.688.995,3.957-1.079.268-2.323-.939-3.9-2.28-5.724-1.677-2.157-3.823-5.392-.8-7.384,2.414-1.576,5.566,1.577,6.907,3.153,2.281,2.655,3.957,5.724,5.9,8.628,2.481,3.816,5.164,7.8,8.785,10.785a17.133,17.133,0,0,0,5.768,3.4c3.085.913,5.1-.581,5.164-3.567C820,360.523,815.169,355.3,810.274,352.974Z" fill="#797a7b" opacity="0.5"/>
          <path id="Trazado_54" data-name="Trazado 54" d="M796.861,384.25a16.079,16.079,0,0,0-3.89-4.977,4.291,4.291,0,0,0-1.878-1h-.134c-.335,1.991,2.482,5.061,3.42,6.388a17.971,17.971,0,0,1,2.884,5.144c.872,2.986,1.341,6.056,2.616,8.877a7.516,7.516,0,0,0,2.414,3.4c.469.332,1.744,1.244,1.744.166.067-3.236-2.28-6.886-3.689-9.789C799.141,389.726,798.336,386.9,796.861,384.25Z" opacity="0.5" fill="url(#linear-gradient-40)"/>
          <path id="Trazado_55" data-name="Trazado 55" d="M753.47,390.97a10.043,10.043,0,0,0-.939-3.65c-.335-.581-1.341-1.991-2.146-2.074-.469,1.327.268,3.65.537,4.646a19.452,19.452,0,0,1,.872,5.475c-.068,3.4-.47,6.886.134,10.287.4,2.157,1.073,5.144,2.816,6.8a2.447,2.447,0,0,0,4.091-1.659,9.247,9.247,0,0,0-.6-3.567c-1.006-2.738-2.28-5.476-3.219-8.214A48.648,48.648,0,0,1,753.47,390.97Z" opacity="0.5" fill="url(#linear-gradient-41)"/>
          <path id="Trazado_56" data-name="Trazado 56" d="M656.495,377.114a17.04,17.04,0,0,0-2.213,5.31c-.671,2.157-1.811,4.148-2.481,6.222-.872,2.655-1.677,6.056-.537,8.877.47,1.161,1.543,2.986,3.152,2.157a5.641,5.641,0,0,0,2.616-3.319c1.274-3.816.268-7.8.67-11.78.134-1.493.336-3.07.336-4.563a12.481,12.481,0,0,0-.135-2.24C657.635,376.783,657.166,376.783,656.495,377.114Z" opacity="0.5" fill="url(#linear-gradient-42)"/>
          <path id="Trazado_57" data-name="Trazado 57" d="M709.945,382.176a8.033,8.033,0,0,0-.6,3.318c-.067,2.406.134,4.812.2,7.3.067,2.157-1.073,4.314-1.743,6.3-1.141,3.235-2.549,6.885-2.214,10.37.135,1.493.738,3.816,2.616,4.4,1.677.5,1.945-2.9,2.213-3.734.671-2.074,1.945-3.733,2.884-5.641,1.274-2.655.469-4.729-.268-7.383a20.451,20.451,0,0,1-.47-7.8c-.2-1.908.2-3.9-.134-5.724C712.158,382.342,710.816,380.351,709.945,382.176Z" fill="url(#linear-gradient-43)"/>
          <path id="Trazado_58" data-name="Trazado 58" d="M621.42,355.462c2.482-.331,4.628-1.908,6.572-3.318a78.177,78.177,0,0,0,7.042-5.973c2.616-2.489,5.03-5.061,7.511-7.716,1.677-2.4,3.287-5.06,6.573-5.475a.391.391,0,0,1,.4.249c1.945,3.4-.335,7.715-2.012,10.7-2.079,3.65-4.56,7.051-6.773,10.7a76.766,76.766,0,0,0-4.628,8.047,65.509,65.509,0,0,0-2.749,7.3,15.643,15.643,0,0,1-3.488,6.3,33.71,33.71,0,0,1-5.1,4.148c-2.347,1.66-4.627,3.236-6.237,5.559-1.475,1.991-2.615,4.231-3.956,6.3-1.476,2.323-3.354,4.314-4.963,6.554-1.543,2.157-2.482,4.562-3.823,6.8-2.28,3.982-5.834,6.969-9.054,10.287-2.816,2.9-6.706,6.969-5.767,11.283,1.408,6.139,8.718-1.825,10.328-3.65a124.888,124.888,0,0,0,9.657-13.44,26.781,26.781,0,0,0,3.622-7.3,35.758,35.758,0,0,1,2.012-6.3c2.146-4.48,6.572-7.882,9.724-11.7,1.811-2.157,3.286-4.563,5.3-6.554a20.2,20.2,0,0,1,4.829-3.318c4.694-2.406,9.59-4.314,12.541-8.711,2.414-3.65,3.822-7.715,7.041-10.868,1.811-1.742,4.225-2.82,6.3-4.231a15.863,15.863,0,0,0,2.281-1.742.752.752,0,0,1,.067-.332c1.207-1.825,2.28-4.894,4.761-5.641,1.006-.332,3.286-.829,3.823.5.6,1.41-.335,2.9-.335,4.314a1.928,1.928,0,0,0,2.146,1.991,8.349,8.349,0,0,0,1.676-.913.508.508,0,0,1,.336-.083c2.548-2.24,4.023-5.89,5.3-8.711,1.073-2.488,1.877-5.309,3.353-7.632a.4.4,0,0,1,.67.083c.4,1.079,1.006,2.406,2.683,2.157.268,0,.4.083.47.332,2.347-1,3.42-5.973,3.956-8.047.47-1.991.872-4.065,1.409-6.056a14.144,14.144,0,0,1,2.548-4.563c1.207-1.493,4.091-4.646,6.237-2.406,1.945,1.991-.134,5.309-1.341,7.135a19.324,19.324,0,0,0-2.75,5.143,21.57,21.57,0,0,0-.469,6.886,16.17,16.17,0,0,1-1.342,6.139c-.737,1.908-2.414,5.641-.737,7.466,2.079,2.24,4.091-3.235,4.426-4.48.268-.995.469-2.239,1.408-2.9,2.146-1.659,4.024,4.563,4.225,5.558a37.807,37.807,0,0,1,.47,12.278c-.47,3.734-1.878,7.3-2.884,10.951a29.434,29.434,0,0,0-.4,3.4c-.067,2.323.536,5.974,3.42,6.886,2.615.83,5.1-.995,6.036-3.152,1.14-2.738,1.14-5.559,1.006-8.462a34.457,34.457,0,0,1,1.341-11.7,10.448,10.448,0,0,1,2.213-4.48c1.61-1.576,4.024-.248,5.3-2.4a.391.391,0,0,1,.6-.166,2.167,2.167,0,0,1,1.006,2.986c-.939,2.655,1.274,3.9,1.609,6.3.336,2.323-.4,4.314-.737,6.637-.269,2.406.6,4.148,1.609,6.3a13.747,13.747,0,0,1,1.61,6.222,45.977,45.977,0,0,0,0,6.8,6.907,6.907,0,0,0,3.219,5.309c1.878,1.079,5.03,1.991,6.907.5,3.287-2.655,2.146-8.3,1.61-11.78-.738-4.646-1.476-9.292-1.878-13.938-.4-4.977-1.475-11.78,1.476-16.343.134-.829.4-1.825,1.408-1.908h.268c.067-.083.134-.166.2-.166a.38.38,0,0,1,.6.415A9.217,9.217,0,0,1,745.02,347c.2.166,1.542,1.66,1.81,1.328a5.316,5.316,0,0,0,.537-4.065c-.335-1.577-1.006-3.07-1.341-4.646a47,47,0,0,1-.8-7.466c0-1.909-.268-4.812,1.14-6.471a2.554,2.554,0,0,1,4.024.5,8.422,8.422,0,0,1,.8,4.065c.067,1.411-.067,3.651,1.073,4.812,2.481,2.572,2.414-2.323,4.023-2.738.872-.248,1.677.747,2.079,1.328a19.073,19.073,0,0,1,2.884,5.558c1.61,4.646,2.415,9.375,3.957,14.02a107.652,107.652,0,0,0,4.7,12.61c1.14,2.406,6.706,13.689,10.8,10.122,2.213-1.909,3.755-5.725,2.884-8.462-.738-2.489-2.549-4.48-3.957-6.637a19.127,19.127,0,0,1-2.549-7.218,17.914,17.914,0,0,0-2.213-5.475c-.8-1.493-2.146-4.646.6-5.144,3.487-.663,5.3,1.577,6.773,4.148a9.242,9.242,0,0,0,1.878,2.572c1.543,1.162,3.689,1,3.957-1.078.268-2.323-.939-3.9-2.28-5.725-1.677-2.157-3.89-5.392-.8-7.383,2.414-1.576,5.566,1.576,6.908,3.152,2.347,2.655,3.956,5.725,5.9,8.628,2.482,3.816,5.164,7.8,8.786,10.785a17.1,17.1,0,0,0,5.767,3.4c3.085.913,5.1-.58,5.164-3.567.134-5.226-4.694-10.453-9.59-12.776-3.42-1.659-7.444-2.737-9.724-5.807-1.342-1.825-2.213-3.816-3.823-5.475-1.542-1.577-3.286-2.9-4.963-4.4-2.615-2.323-5.9-5.393-5.164-8.96a.415.415,0,0,1,.537-.332,22.245,22.245,0,0,1,4.091,1.991c-.537-.414-1.207-.912-1.811-1.327a22.23,22.23,0,0,0-2.75-4.48c-1.542-1.825-3.353-3.484-4.962-5.309-1.073-3.568-2.884-7.052-4.158-10.536-1.744-4.895-2.884-9.873-4.494-14.767-.2-.581-1.14-.581-1.14.083,0,.332.067.746.067,1.078-1.207,3.319-2.012,6.72-3.353,10.038a12.875,12.875,0,0,0-1.073,3.817c-.067,1.244,1.274,2.157,1.61,3.318,0,.083.134.166.2.166a5.931,5.931,0,0,0,.536,2.157c.738,1.742,1.811,2.82,2.415,4.729.536,1.659,1.006,3.235,1.542,4.894-2.012,1.328-4.091,2.821-6.371,2.489-2.079-3.982-3.018-8.213-4.426-12.527a1.013,1.013,0,0,0-1.409-.581c-3.487,1.577-5.633,4.646-8.718,6.637-1.006-1.161-2.146-2.323-3.219-3.4-1.408-1.494-3.219-3.733-5.432-4.231-2.079-.5-2.616,1.991-2.884,3.318-.6,2.738-.6,5.227-2.146,7.384a30.371,30.371,0,0,0-4.762.829,22.826,22.826,0,0,1-8.785.664,26.368,26.368,0,0,0-2.884-2.9c-1.945-1.825-3.554-3.816-5.365-5.724a9.863,9.863,0,0,0-9.456-2.738c-3.823-.083-7.176,1.494-9.791-2.737-1.476-2.489-1.476-6.3-4.024-8.13a.955.955,0,0,0-1.14-.83c-2.348.5-4.024-1.659-6.439-1.078-2.816.663-6.438,2.9-7.31-1.245-.268-1.327.47-6.388-1.274-7.715a1.018,1.018,0,0,0-1.609-.664,27.932,27.932,0,0,0-5.835,6.637.783.783,0,0,0-.939.415c-3.823,6.968-9.121,12.195-14.687,17.919a46.525,46.525,0,0,0-6.438,8.213c-1.543,2.738-2.549,5.642-3.823,8.379a51.253,51.253,0,0,1-6.237,7.55c-3.085,3.069-6.505,5.807-9.255,9.125-2.615,3.07-5.1,6.222-7.511,9.375a5.322,5.322,0,0,0-.536,1.659C618.335,353.969,619.14,355.794,621.42,355.462Z" fill="url(#linear-gradient-44)"/>
          <path id="Trazado_59" data-name="Trazado 59" d="M799.14,386.241a16.083,16.083,0,0,0-3.89-4.978,4.291,4.291,0,0,0-1.877-.995h-.134c-.336,1.991,2.481,5.06,3.42,6.388a18.011,18.011,0,0,1,2.884,5.143c.871,2.987,1.341,6.056,2.615,8.877a7.518,7.518,0,0,0,2.414,3.4c.47.332,1.744,1.245,1.744.166.067-3.235-2.28-6.886-3.688-9.789C801.353,391.8,800.616,388.895,799.14,386.241Z" fill="url(#linear-gradient-45)"/>
          <path id="Trazado_60" data-name="Trazado 60" d="M754.476,390.554a11.606,11.606,0,0,0-.939-3.65c-.335-.581-1.341-1.991-2.146-2.074-.469,1.327.268,3.65.537,4.646a19.45,19.45,0,0,1,.871,5.475c-.067,3.4-.469,6.886.135,10.287.4,2.157,1.073,5.144,2.816,6.8a2.451,2.451,0,0,0,4.091-1.742,9.513,9.513,0,0,0-.6-3.567c-1.006-2.738-2.281-5.476-3.22-8.213A39.437,39.437,0,0,1,754.476,390.554Z" fill="url(#linear-gradient-46)"/>
          <path id="Trazado_61" data-name="Trazado 61" d="M655.892,373.216a17.029,17.029,0,0,0-2.214,5.309c-.67,2.157-1.743,4.148-2.481,6.223-.872,2.654-1.677,6.056-.536,8.876.469,1.162,1.542,2.987,3.152,2.157a5.634,5.634,0,0,0,2.615-3.318c1.274-3.816.335-7.8.671-11.781.134-1.493.335-3.069.335-4.562a12.565,12.565,0,0,0-.134-2.24C657.032,372.884,656.495,372.884,655.892,373.216Z" fill="url(#linear-gradient-47)"/>
          <path id="Trazado_62" data-name="Trazado 62" d="M707.128,407.895c2.146-1.825,2.683-5.559,3.353-8.213.671-2.738,1.677-4.646,1.141-7.55-.2-1.244.536-11.282-1.476-8.13-.6,1-.469,8.13-.469,9.292.067,5.226-5.768,9.789-3.018,14.933A3.721,3.721,0,0,0,707.128,407.895Z" fill="url(#linear-gradient-48)"/>
          <path id="Trazado_63" data-name="Trazado 63" d="M594.192,418.68a15.665,15.665,0,0,0-.537,1.659c-.268,1.327,0,3.07,1.811,3.236a4.723,4.723,0,0,0,3.286-1.328,32.2,32.2,0,0,0,5.768-6.471c1.408-1.908,2.883-3.816,4.158-5.807,4.627-6.969,6.1-15.6,11.736-21.984,6.3-7.052,13.815-13.523,18.174-21.9,2.146-4.065,4.024-8.628,7.511-11.946,3.689-3.567,9.188-4.895,12.743-8.711,3.487-3.733,4.627-8.545,6.1-13.191a43.383,43.383,0,0,1,3.622-8.462c1.408-2.571,5.9-11.365,10.4-7.964,2.414,1.825,1.811,5.144,1.006,7.467-1.14,3.235-3.622,7.134-2.012,10.536,5.5-3.236,5.5-10.951,7.444-16.178a13.082,13.082,0,0,1,4.9-6.637c1.743-1.161,3.085.581,4.828.83,2.884.5,5.3-1.078,7.981-1.825,1.61-.5,3.823-.664,4.963.912,3.755,5.31-2.683,9.624-4.762,14.021-.872,1.825-1.006,4.314,1.14,5.558,1.006.581,2.281.581,3.219,1.162,3.085,1.991,3.622,6.885,3.622,10.038,0,9.623-4.963,18.583-4.225,28.289.134,1.328.4,5.642,2.951,4.4a4.58,4.58,0,0,0,2.615-3.567,45.36,45.36,0,0,0,.6-10.453c-.067-4.646-.067-9.375,0-14.02a67.183,67.183,0,0,1,.67-8.96,15.415,15.415,0,0,1,2.214-6.72,4.348,4.348,0,0,1,4.359-1.991,7.715,7.715,0,0,1,3.353,1.493c1.274,1.245,1.207,4.065,2.75,4.978a6.771,6.771,0,0,0,3.084.912c1.141.166,1.744.332,2.616-.58.469-.5,1.341-1.411,2.146-.83a2.842,2.842,0,0,1,1.207,3.567c-.737,1.908-1.274,3.9-2.146,5.808-1.878,4.231-6.036,9.955-3.957,14.767.738,1.659,2.012,3.152,2.75,4.811a16.834,16.834,0,0,1,1.475,6.056c.2,4.314-.67,8.628,1.409,12.693a5.143,5.143,0,0,0,1.81,2.323c1.208.664,2.012-.912,2.281-1.742a13.49,13.49,0,0,0,.6-7.3c-.872-4.646-3.353-9.043-3.957-13.772a36.276,36.276,0,0,1,1.073-14.435,30.416,30.416,0,0,0,.537-10.453c-.268-3.318-.8-6.886.067-10.121.537-2.074,2.213-5.476,4.9-5.724,2.414-.249,4.9-2.738,7.31-2.655,5.231.249,2.079,2.655,4.963,5.641,2.011,2.074,5.432.249,6.974,2.821,2.012,3.567,2.213,7.881,2.951,11.7a97.357,97.357,0,0,0,5.432,17.588,45.577,45.577,0,0,0,4.9,9.706,16.266,16.266,0,0,0,3.152,3.567,7.547,7.547,0,0,0,1.677,1.079c.938.415,1.14.332,1.341-.747.738-4.148-1.945-8.379-3.89-11.946a60.618,60.618,0,0,1-4.024-9.54,48.027,48.027,0,0,1-2.548-10.868c-.2-2.738,0-5.642,2.146-7.716a.7.7,0,0,1,.4-.082c4.359,1.244,7.646,11.365,9.658,14.766,3.755,3.153,2.146-2.322,2.011-2.488-5.029-5.974-6.169-8.379-6.505-11.117-.2-1.576.2-3.318,2.347-3.235,3.488.165,5.969,2.488,7.579,5.143.872,1.41,1.542,2.821,2.28,4.231a14.309,14.309,0,0,1,1.341,1.41,50.834,50.834,0,0,1,4.829,6.969,43.185,43.185,0,0,0,9.054,7.466c1.676,1,7.712,4.646,9.389,2.074a4.561,4.561,0,0,0,.469-3.152,20.2,20.2,0,0,0-7.78-6.886c-3.42-1.659-7.444-2.737-9.724-5.807-1.341-1.825-2.213-3.816-3.822-5.475-1.543-1.577-3.287-2.9-4.963-4.4-2.616-2.323-5.9-5.393-5.164-8.96a.414.414,0,0,1,.536-.332,22.218,22.218,0,0,1,4.091,1.991c-.536-.415-1.207-.912-1.81-1.327a22.231,22.231,0,0,0-2.75-4.48c-1.543-1.825-3.353-3.484-4.963-5.309-1.073-3.568-2.884-7.052-4.158-10.536-1.744-4.9-2.884-9.873-4.493-14.767-.2-.581-1.14-.581-1.14.083,0,.331.067.746.067,1.078-1.207,3.319-2.012,6.72-3.353,10.038a12.848,12.848,0,0,0-1.073,3.816c-.067,1.245,1.274,2.157,1.609,3.319,0,.083.134.166.2.166a5.917,5.917,0,0,0,.537,2.157c.738,1.742,1.811,2.82,2.414,4.729.537,1.659,1.006,3.235,1.543,4.894-2.012,1.328-4.091,2.821-6.371,2.489-2.079-3.982-3.018-8.213-4.427-12.527a1.012,1.012,0,0,0-1.408-.581c-3.487,1.577-5.633,4.646-8.718,6.637-1.006-1.161-2.147-2.323-3.22-3.4-1.408-1.494-3.219-3.734-5.432-4.231-2.079-.5-2.615,1.991-2.884,3.318-.6,2.738-.6,5.227-2.146,7.384a30.362,30.362,0,0,0-4.761.829,22.831,22.831,0,0,1-8.786.664,26.272,26.272,0,0,0-2.883-2.9c-1.945-1.825-3.555-3.816-5.365-5.724a9.864,9.864,0,0,0-9.457-2.738c-3.822-.083-7.175,1.494-9.791-2.737-1.475-2.489-1.475-6.305-4.024-8.13a.955.955,0,0,0-1.14-.83c-2.347.5-4.024-1.659-6.438-1.079-2.817.664-6.438,2.9-7.31-1.244-.268-1.327.469-6.388-1.274-7.715a1.019,1.019,0,0,0-1.61-.664,27.929,27.929,0,0,0-5.834,6.637.783.783,0,0,0-.939.415c-3.823,6.968-9.121,12.2-14.687,17.919a46.48,46.48,0,0,0-6.439,8.213c-1.542,2.738-2.548,5.641-3.822,8.379a51.378,51.378,0,0,1-6.237,7.55c-3.085,3.069-6.505,5.807-9.255,9.125-2.549,3.07-5.03,6.139-7.444,9.292,1.945,1.825,5.566.332,7.712-1.328,3.823-2.986,6.371-7.3,9.389-10.867a39.534,39.534,0,0,1,4.963-5.061c2.012-1.659,4.627-2.738,6.438-4.646,1.61-1.742,2.884-3.816,4.7-5.475,1.14-1.079,2.481-2.489,4.091-2.9,2.414-.663,2.079,2.738,1.743,3.9-1.073,4.148-3.487,8.213-5.767,11.947-1.409,2.323-2.951,4.562-4.494,6.719-.2.415-.469.83-.67,1.245-2.079,3.65-4.561,7.051-6.774,10.7a76.928,76.928,0,0,0-4.627,8.047,65.707,65.707,0,0,0-2.75,7.3,15.641,15.641,0,0,1-3.487,6.3,33.755,33.755,0,0,1-5.1,4.148c-2.347,1.66-4.627,3.236-6.237,5.559-1.475,1.991-2.616,4.231-3.957,6.305-1.475,2.323-3.353,4.314-4.963,6.554-1.542,2.157-2.481,4.562-3.822,6.8-2.28,3.982-5.835,6.969-9.054,10.287C595.935,416.689,595,417.684,594.192,418.68Z" fill="url(#linear-gradient-49)"/>
          <path id="Trazado_64" data-name="Trazado 64" d="M798.94,386.407a16.282,16.282,0,0,0-2.616-3.9,2.569,2.569,0,0,0-1.14-.746h-.067c0,1.576,1.878,3.982,2.549,5.06a17.012,17.012,0,0,1,2.079,4.065c.8,2.323,1.408,4.729,2.347,6.969a7.218,7.218,0,0,0,1.676,2.655c.269.249,1.074.912,1.006.083-.335-2.572-2.011-5.393-3.085-7.716C800.751,390.721,800.08,388.481,798.94,386.407Z" fill="url(#linear-gradient-50)"/>
          <path id="Trazado_65" data-name="Trazado 65" d="M754.207,391.053a12.23,12.23,0,0,0-.6-2.738,4.113,4.113,0,0,0-.939-1.659,14.369,14.369,0,0,0,.47,3.485,28.685,28.685,0,0,1,.671,4.065c.2,2.488.2,5.06.6,7.632a17.654,17.654,0,0,0,1.476,5.143c.737,1.162,1.542.332,1.475-1.078a18.162,18.162,0,0,0-.4-2.655c-.537-2.074-1.208-4.148-1.744-6.222C754.811,395.035,754.542,393.127,754.207,391.053Z" fill="url(#linear-gradient-51)"/>
          <path id="Trazado_66" data-name="Trazado 66" d="M654.483,390.225a28.549,28.549,0,0,0,.469-5.641c.067-1.825,1.744-8.13.269-10.287a34.689,34.689,0,0,0-1.543,4.148c-.671,2.157-1.744,4.148-2.481,6.222-.47,1.493-2.415,6.471-.269,7.632C653.007,393.544,654.013,392.133,654.483,390.225Z" fill="url(#linear-gradient-52)"/>
          <g id="Grupo_2" data-name="Grupo 2" opacity="0.5">
            <path id="Trazado_67" data-name="Trazado 67" d="M707.8,401.008a18.544,18.544,0,0,0,1.81-6.471c-.67,4.48-4.962,8.545-3.286,12.942A16.2,16.2,0,0,1,707.8,401.008Z" opacity="0.5" fill="url(#linear-gradient-53)"/>
            <path id="Trazado_68" data-name="Trazado 68" d="M596.205,417.849c3.353-2.9,6.505-5.641,9.053-9.208,5.5-7.633,8.786-16.509,14.956-23.644a63.643,63.643,0,0,1,5.5-5.309,6.582,6.582,0,0,1-.939.663c-2.347,1.659-4.627,3.236-6.237,5.559-1.475,1.991-2.615,4.23-3.957,6.3-1.475,2.323-3.353,4.314-4.962,6.554-1.543,2.157-2.482,4.563-3.823,6.8-2.28,3.982-5.835,6.969-9.054,10.287a28.846,28.846,0,0,0-2.548,2.821,15.907,15.907,0,0,0-.537,1.659A25.575,25.575,0,0,1,596.205,417.849Z" opacity="0.5" fill="url(#linear-gradient-54)"/>
            <path id="Trazado_69" data-name="Trazado 69" d="M735.229,378.692c-.067-2.572.4-5.226.134-7.881-.2-2.821-1.341-5.227-2.28-7.881-1.677-4.646-1.073-8.628.737-13.108,1.543-3.816,3.89-8.877,1.878-12.527a3.063,3.063,0,0,1-.2,1.078c-.738,1.909-1.274,3.9-2.146,5.808-1.878,4.231-6.036,9.955-3.957,14.767.738,1.659,2.012,3.152,2.75,4.811a16.834,16.834,0,0,1,1.475,6.056c.2,4.314-.67,8.628,1.409,12.693a5.842,5.842,0,0,0,1.609,2.157C735.5,382.923,735.3,380.517,735.229,378.692Z" opacity="0.5" fill="url(#linear-gradient-55)"/>
            <path id="Trazado_70" data-name="Trazado 70" d="M807.859,345.093c-3.421-1.659-7.445-2.737-9.725-5.807-1.341-1.825-2.213-3.816-3.822-5.475-1.543-1.577-3.287-2.9-4.963-4.4-2.616-2.323-5.9-5.393-5.164-8.96a.414.414,0,0,1,.536-.332,22.212,22.212,0,0,1,4.091,1.991c-.536-.415-1.207-.912-1.81-1.327a22.23,22.23,0,0,0-2.75-4.48c-1.543-1.825-3.353-3.484-4.963-5.309-1.073-3.568-2.884-7.052-4.158-10.536-1.743-4.895-2.884-9.873-4.493-14.767-.2-.581-1.14-.581-1.14.083,0,.332.067.746.067,1.078-1.207,3.319-2.012,6.72-3.353,10.038a12.846,12.846,0,0,0-1.073,3.817c-.067,1.244,1.274,2.156,1.609,3.318,0,.083.134.166.2.166a5.932,5.932,0,0,0,.537,2.157c.738,1.742,1.811,2.82,2.414,4.729.537,1.659,1.006,3.235,1.543,4.894-2.012,1.328-4.091,2.821-6.371,2.489-2.079-3.982-3.018-8.213-4.427-12.527a1.012,1.012,0,0,0-1.408-.581c-3.487,1.577-5.633,4.646-8.718,6.637-1.006-1.161-2.146-2.323-3.219-3.4-1.409-1.494-3.22-3.733-5.433-4.231-2.079-.5-2.615,1.991-2.883,3.318-.6,2.738-.6,5.227-2.146,7.384a30.352,30.352,0,0,0-4.762.829,22.827,22.827,0,0,1-8.785.664,26.369,26.369,0,0,0-2.884-2.9c-1.945-1.825-3.555-3.816-5.365-5.724a9.863,9.863,0,0,0-9.456-2.738c-3.823-.083-7.176,1.494-9.792-2.737-1.475-2.489-1.475-6.3-4.024-8.13a.955.955,0,0,0-1.14-.83c-2.347.5-4.024-1.659-6.438-1.079-2.817.664-6.438,2.9-7.31-1.244-.268-1.327.469-6.388-1.274-7.715a1.019,1.019,0,0,0-1.61-.664,27.928,27.928,0,0,0-5.834,6.637.783.783,0,0,0-.939.415c-3.823,6.968-9.121,12.195-14.687,17.919a46.482,46.482,0,0,0-6.439,8.213c-1.542,2.738-2.548,5.642-3.822,8.379a51.378,51.378,0,0,1-6.237,7.55c-3.085,3.069-6.505,5.807-9.255,9.125-1.475,1.742-2.951,3.568-4.359,5.31a52.35,52.35,0,0,0,7.042-6.388c3.286-3.319,6.974-6.222,10.126-9.624a68.261,68.261,0,0,0,8.517-11.448c2.214-3.733,4.494-7.467,7.847-10.453,1.945-1.742,4.829,0,5.3,1.991,1.207,4.9-.469,9.208-2.817,13.439v.083c-1.073,4.148-3.487,8.213-5.767,11.947-1.409,2.323-2.951,4.562-4.494,6.719-.2.415-.469.83-.67,1.245-2.079,3.65-4.561,7.052-6.774,10.7a76.931,76.931,0,0,0-4.627,8.047,65.707,65.707,0,0,0-2.75,7.3c-.134.415-.268.747-.4,1.162.939-1.825,1.744-3.733,2.548-5.641a33.356,33.356,0,0,1,6.371-10.288c2.683-2.82,5.7-5.392,8.316-8.3,5.835-6.636,5.768-16.011,9.658-23.643a72.581,72.581,0,0,1,7.108-11.532c2.147-2.737,4.829-6.139,8.652-6.885,7.243-1.411,8.517,7.051,7.578,11.7-.872,4.563-4.762,10.37-5.164,15.514,2.481.414,2.75-1.411,3.219-3.651q.5-2.239,1.006-4.48a78,78,0,0,1,3.353-11.614c1.14-2.738,3.085-6.471,6.975-6.056,2.079.249,3.622,1.327,5.566,1.908s4.024-.913,5.9-1.327a6.471,6.471,0,0,1,7.981,6.471c-.067,3.982-2.884,7.383-4.963,10.7-1.14,1.826-3.152,4.563-1.811,6.72a4.589,4.589,0,0,0,.47.664,5.353,5.353,0,0,1,1.676.664c3.085,1.991,3.622,6.885,3.622,10.038,0,9.623-4.963,18.583-4.225,28.289.134,1.328.4,5.642,2.951,4.4-1.811-3.318-1.074-7.217-.269-10.785,1.409-5.807,1.945-11.7,2.683-17.587.4-3.485,1.475-7.55.536-11.034-.6-2.406-2.146-4.48-2.95-6.8-1.543-4.314.67-7.715,4.359-10.287a3.451,3.451,0,0,1,4.225.249,7.593,7.593,0,0,1,7.444,4.895c1.073,2.654.4,5.89.335,8.628a8.261,8.261,0,0,0,2.951,4.231c.134,0,.268.082.4.082,1.141.166,1.744.332,2.616-.58a3.276,3.276,0,0,1,1.073-.83c-8.316-1.161-6.572-15.347,1.677-16.592a4.973,4.973,0,0,1,1.14-.083,47.239,47.239,0,0,1,8.45-2.655c.134-.083.268-.083.4-.166a9.153,9.153,0,0,1,1.409-.414,8.462,8.462,0,0,1,4.493-.581,10.509,10.509,0,0,1,7.578,2.157c1.408,1.161,2.481,2.572,3.823,3.733,1.408,1.328,3.286,2.406,4.493,3.9,2.347,3.07,1.744,6.554,2.213,10.038.738,5.974,1.61,12.03,3.689,17.754,1.743,4.812,5.365,8.711,6.907,13.523a41.183,41.183,0,0,1,1.409,5.226,3.246,3.246,0,0,0,.2-.664c.738-4.148-1.945-8.379-3.89-11.946a60.606,60.606,0,0,1-4.024-9.54,48.028,48.028,0,0,1-2.548-10.868,15.162,15.162,0,0,1-.067-1.742c-.939-3.817-2.347-8.462.067-10.868,2.213-2.24,4.225.995,4.963,2.9,1.207,3.07,2.347,6.057,4.56,8.711,1.744,2.157,3.621,4.148,4.56,6.637a4.5,4.5,0,0,1,.336,2.074c.8-.581,0-3.235-.134-3.318a38.058,38.058,0,0,1-5.366-7.467c-2.95-2.986-2.95-8.876-1.81-12.2a1.294,1.294,0,0,1,.939-.664c.938-.5,2.011.083,2.816.747a.606.606,0,0,1,.269.332c3.017,1.659,5.633,4.978,7.511,7.217,3.889,4.563,6.974,10.205,12.2,13.606,4.628,2.987,11.6,4.4,12.877,10.287a9.229,9.229,0,0,1,.2,1.908,1.981,1.981,0,0,0,.738-.664,4.561,4.561,0,0,0,.469-3.152A18.747,18.747,0,0,0,807.859,345.093Z" opacity="0.5" fill="url(#linear-gradient-56)"/>
            <path id="Trazado_71" data-name="Trazado 71" d="M798.94,386.407a16.282,16.282,0,0,0-2.616-3.9,2.569,2.569,0,0,0-1.14-.746h-.067c0,1.576,1.878,3.982,2.549,5.06a17.012,17.012,0,0,1,2.079,4.065c.8,2.323,1.408,4.729,2.347,6.969a7.227,7.227,0,0,0,1.676,2.655c.269.249,1.074.912,1.006.083-.335-2.572-2.011-5.393-3.085-7.716C800.751,390.721,800.08,388.481,798.94,386.407Z" opacity="0.5" fill="url(#linear-gradient-57)"/>
            <path id="Trazado_72" data-name="Trazado 72" d="M757.026,403.332c-.537-2.074-1.208-4.148-1.744-6.222-.2-.83-.335-1.659-.47-2.489a16.624,16.624,0,0,0,.336,4.065c.6,2.821,1.341,5.641,2.146,8.379a2.636,2.636,0,0,0,.2-1.161A17.311,17.311,0,0,0,757.026,403.332Z" opacity="0.5" fill="url(#linear-gradient-58)"/>
            <path id="Trazado_73" data-name="Trazado 73" d="M651.4,389.145a79.41,79.41,0,0,1,1.877-8.628,26.1,26.1,0,0,0,.738-3.236l-.4,1.245c-.671,2.157-1.744,4.148-2.482,6.222-.469,1.493-2.414,6.471-.268,7.632l.6.249A14.905,14.905,0,0,1,651.4,389.145Z" opacity="0.5" fill="url(#linear-gradient-59)"/>
          </g>
          <path id="Trazado_74" data-name="Trazado 74" d="M762.257,288.1c.469,1.411.2,2.157,1.408,1.411a26.15,26.15,0,0,1,3.488-2.157c.8-.415,1.408-1.493,1.341-.415a17.934,17.934,0,0,1-1.878,5.724c-.939,1.577-3.286,4.646-4.158,6.305s-.335,1.494.4,2.157c.738.747,1.476,2.821,2.012,4.729a13.577,13.577,0,0,0,1.61,3.9,52.66,52.66,0,0,1,2.615,5.641c.336.913-.4.5-1.609,1.079a5.557,5.557,0,0,1-2.884.332c-.2,0-.469-.249-.738-.5q.5,1.121,1.006,2.24c2.348.332,4.36-1.162,6.371-2.489-.536-1.659-1.005-3.235-1.542-4.9-.6-1.908-1.61-2.986-2.414-4.728a6.87,6.87,0,0,1-.537-2.157c-.067,0-.2-.083-.2-.166-.335-1.162-1.744-2.074-1.61-3.319a11.144,11.144,0,0,1,1.073-3.816c1.342-3.235,2.147-6.637,3.354-10.038,0-.332-.067-.747-.067-1.078,0-.5.469-.581.871-.415-1.207-1.162-2.481.663-4.761,2.074-2.482,1.41-2.28,1.576-2.616.829-.469-1.161,0-3.982-3.152-3.4a.344.344,0,0,0-.268.083,4.788,4.788,0,0,1,1.341.166C761.519,285.362,761.787,286.689,762.257,288.1Z" fill="url(#linear-gradient-60)"/>
          <path id="Trazado_75" data-name="Trazado 75" d="M675.743,283.536c1.744,1.328.939,6.3,1.274,7.716.872,4.065,4.494,1.825,7.31,1.244,2.415-.581,4.091,1.659,6.439,1.078a.938.938,0,0,1,1.14.83c2.548,1.825,2.481,5.724,4.024,8.13,2.548,4.231,5.968,2.572,9.791,2.738a9.861,9.861,0,0,1,9.456,2.738c1.811,1.908,3.487,3.9,5.365,5.724a26.362,26.362,0,0,1,2.884,2.9,24.6,24.6,0,0,0,8.785-.663,30.373,30.373,0,0,1,4.762-.83c1.475-2.157,1.542-4.646,2.146-7.383.268-1.328.872-3.817,2.884-3.319,2.213.5,4.024,2.738,5.432,4.231,1.073,1.162,2.146,2.24,3.219,3.4,3.085-1.991,5.231-5.061,8.718-6.637a1.056,1.056,0,0,1,1.208.249c-.269-.581-.738-1.079-2.147-.581-1.408.581-2.615-.166-3.219.415s-2.816,2.488-3.554,3.152-.872.913-1.073.747-1.945-1.825-4.024-3.816a20.526,20.526,0,0,1-3.018-3.568c-.6-.746-.738-.58-.872-.166-.2.5-.335.332-1.14.664a6.591,6.591,0,0,0-3.219,2.9c-1.274,1.991-2.012,4.894-2.682,6.554s-.671,1.327-1.275,1.41a18.645,18.645,0,0,0-4.828,1.327c-1.61.83-.939,1-1.61.664s-3.286-2.157-4.761-3.235c-1.476-1.162-3.622-4.314-4.829-5.891s-1.408-1.493-3.018-1.825a37.854,37.854,0,0,0-7.511,0,36.537,36.537,0,0,1-5.633.332c-.738-.083-1.61-1.161-2.683-2.655-1.14-1.493-2.146-2.9-2.75-3.65s-1.274-3.318-1.743-4.4c-.4-1.078-.4-1.576-1.61-1.659s-3.152-.913-4.426-.664-3.286-.332-4.9,0c-1.542.332-2.28.581-2.951.332-.67-.166-2.079-2.738-2.347-3.733s-.738-2.24-.335-1.991c.469.249,1.81,1.161,2.682,1.576a23.765,23.765,0,0,0,4.292,1c1.073.166.8-1.162,2.884-2.738s2.817-.913,5.634-2.24,1.676-.332,4.359.664,1.811.746,4.493,0A96.874,96.874,0,0,0,712.9,280.3c-2.213.663-4.695,1.41-7.578,2.572-8.786,3.4-7.042-2.157-11.536-.83s-11,3.65-11,3.65-1.744-.746-4.829-2.157c-3.085-1.493-2.414-2.572-5.5.664a17.2,17.2,0,0,1,1.744-1.576A1.159,1.159,0,0,1,675.743,283.536Z" fill="url(#linear-gradient-61)"/>
          <path id="Trazado_76" data-name="Trazado 76" d="M691.234,292.5c-4.762-3.4-8.719,3.484-13.614,1.41-.269-.083-.537.249-.269.415,3.89,2.157,6.371-.581,10.395-.664,3.756-.083,4.225,4.48,5.7,6.8.134.166.469.083.4-.166C693.246,297.971,693.581,294.155,691.234,292.5Z" fill="url(#linear-gradient-62)"/>
          <path id="Trazado_77" data-name="Trazado 77" d="M711.823,304.941c-4.9-2.074-8.987,1.327-14.017.5a.213.213,0,0,0-.067.415c2.951.912,5.432.249,8.383,0a11.693,11.693,0,0,1,11.066,5.475c.134.166.536.083.4-.166A10.5,10.5,0,0,0,711.823,304.941Z" fill="url(#linear-gradient-63)"/>
          <path id="Trazado_78" data-name="Trazado 78" d="M712.091,315.061a.269.269,0,0,0-.537,0c-.4,5.227-6.237,8.213-7.176,13.357-.6,3.318,3.219,3.982,5.7,4.895.134.083.335-.166.2-.249-1.073-.913-2.213-1.742-3.219-2.655-2.213-1.991.872-5.558,2.079-7.3C710.816,320.62,712.359,318.048,712.091,315.061Z" fill="url(#linear-gradient-64)"/>
          <path id="Trazado_79" data-name="Trazado 79" d="M712.158,344.347c-.268,5.143-1.073,10.37-1.207,15.513-.134,4.978.268,9.789-1.207,14.6a.44.44,0,0,0,.737.415c3.085-3.319,3.153-7.135,2.884-11.449-.4-6.388-.536-12.693-.67-19.08A.269.269,0,0,0,712.158,344.347Z" fill="url(#linear-gradient-65)"/>
          <path id="Trazado_80" data-name="Trazado 80" d="M735.831,357.121c-.268-3.235.2-6.553.336-9.872,0-.249-.4-.249-.47,0-.8,5.724-1.744,11.034-.8,16.841,1.073,6.471,3.085,12.61,2.213,19.081-.134.747,1.006.912,1.409.415,3.018-3.651.6-10.453-.336-14.435C737.307,365.169,736.1,361.186,735.831,357.121Z" fill="url(#linear-gradient-66)"/>
          <path id="Trazado_81" data-name="Trazado 81" d="M667.83,292.164c-3.152,6.056-8.451,11.532-13.883,15.928-4.828,3.9-8.115,7.135-9.389,13.108a.255.255,0,0,0,.47.166c3.152-6.056,8.383-9.457,13.413-14.1a39.826,39.826,0,0,0,9.858-15.016C668.366,292.081,667.964,291.915,667.83,292.164Z" fill="url(#linear-gradient-67)"/>
          <path id="Trazado_82" data-name="Trazado 82" d="M656.7,329.829c-3.018,6.554-7.645,12.527-11.535,18.583-1.811,2.9-3.42,5.891-5.231,8.794-1.542,2.489-3.219,4.978-3.621,7.881,0,.249.4.332.469.166,3.152-5.973,7.176-11.2,11.066-16.758a78.665,78.665,0,0,0,9.389-18.5C657.367,329.663,656.83,329.5,656.7,329.829Z" fill="url(#linear-gradient-68)"/>
          <path id="Trazado_83" data-name="Trazado 83" d="M683.523,315.144c-1.275,4.314-3.756,8.3-5.231,12.61-.336.995-2.817,7.632.67,6.885a.893.893,0,0,0,.269-1.659c.6.415.335,0,.335-.663a12.41,12.41,0,0,1,.469-2.157c.537-1.991,1.14-3.982,1.677-5.891.805-2.986,2.012-5.973,2.481-9.042C684.394,314.812,683.657,314.729,683.523,315.144Z" fill="url(#linear-gradient-69)"/>
          <path id="Trazado_84" data-name="Trazado 84" d="M883.373,444.9a37.881,37.881,0,0,0-6.237-6.3,82.562,82.562,0,0,1-9.523-9.043c-2.28-2.655-4.158-5.807-6.371-8.545a113.585,113.585,0,0,0-11.6-11.863c-3.488-3.153-7.176-6.056-10.194-9.873-3.42-4.314-6.371-9.125-10.395-12.61-4.292-3.65-9.389-5.973-13.346-10.121-3.822-3.982-6.773-8.876-10.059-13.522-1.945-2.821-7.378-10.951-11.871-12.278a7.438,7.438,0,0,0-4.158-1.162,25.342,25.342,0,0,1,1.744,2.987c.4.829.671,1.659,1.073,2.489,0,0,0,.083.067.083,3.018,1.825,5.7,5.475,7.645,8.379a54.027,54.027,0,0,1,6.908,14.518c1.14,3.567,3.957,13.522,8.249,12.278,2.749-.83,1.14-5.061.2-6.969a74.58,74.58,0,0,0,8.45,7.218c5.633,4.4,11.669,8.544,16.5,14.186,5.365,6.3,9.054,14.352,14.15,20.906a132.377,132.377,0,0,0,25.887,24.639c.939.747,2.951,1.742,3.957.83C885.989,449.458,884.312,446.14,883.373,444.9Z" fill="#d04823"/>
          <path id="Trazado_85" data-name="Trazado 85" d="M814.162,379.107c1.408,1.328,2.683,2.821,4.024,4.148a40.761,40.761,0,0,0,5.767,4.646c4.024,2.9,8.115,5.642,11.737,9.292,6.773,6.968,12.272,15.6,17.973,23.726a84.035,84.035,0,0,0,9.456,11.034c3.487,3.4,6.841,7.052,10.462,10.2,1.878,1.659,3.823,3.07,5.768,4.563,1.006.83,2.347,2.323,3.621,2.323a2.952,2.952,0,0,0,2.012-.664,2.364,2.364,0,0,1-.537,2.406c-1.073,1-3.017-.083-3.956-.83A132.289,132.289,0,0,1,854.6,425.316c-5.164-6.554-8.786-14.684-14.151-20.906-4.895-5.641-10.864-9.789-16.5-14.186a87.084,87.084,0,0,1-8.248-6.969A11.243,11.243,0,0,1,814.162,379.107Z" fill="#d04823"/>
          <path id="Trazado_86" data-name="Trazado 86" d="M816.778,388.482c-1.14,1-2.817-.5-3.89-1.991-3.152-4.065-3.42-9.955-5.164-14.85A36.91,36.91,0,0,0,797.4,356.128a22.03,22.03,0,0,0-5.968-3.567c.335.829.67,1.576,1.006,2.4,0,0,0,.083.067.083,3.018,1.825,5.7,5.476,7.645,8.379a54.055,54.055,0,0,1,6.908,14.518c1.14,3.568,3.956,13.523,8.249,12.279A2.129,2.129,0,0,0,816.778,388.482Z" fill="#d04823"/>
          <path id="Trazado_87" data-name="Trazado 87" d="M801.286,358.285a50.457,50.457,0,0,1,8.048,11.7c.067.166,0,.415-.134.166a30.941,30.941,0,0,1-3.488-4.646,56.967,56.967,0,0,0-4.493-7.134C801.152,358.368,801.219,358.2,801.286,358.285Z" fill="#d6862f"/>
          <path id="Trazado_88" data-name="Trazado 88" d="M814.632,376.785c5.3,6.139,12.943,7.8,18.04,14.352.134.166.134.5-.134.332-5.634-5.475-13.212-7.715-18.04-14.435C814.363,376.868,814.43,376.619,814.632,376.785Z" fill="#d6862f"/>
          <path id="Trazado_89" data-name="Trazado 89" d="M812.085,377.448c.2,1.327,1.14,2.406,1.542,3.65a19.356,19.356,0,0,1,1.006,3.9c.067.581-.537.083-.6-.165-.67-1.411-.871-2.987-1.408-4.48a7.863,7.863,0,0,1-.8-2.987C811.883,377.116,812.085,377.282,812.085,377.448Z" fill="#d6862f"/>
          <path id="Trazado_90" data-name="Trazado 90" d="M535.778,452.113a39.214,39.214,0,0,1,6.17-6.471,90.509,90.509,0,0,0,9.389-9.208c2.214-2.738,4.024-5.89,6.237-8.628a106.835,106.835,0,0,1,11.468-12.029c3.421-3.153,7.042-6.222,9.993-10.038,3.353-4.4,6.17-9.209,10.261-12.776,4.225-3.734,9.322-6.139,13.211-10.37,3.756-4.065,6.64-9.043,9.859-13.689,1.878-2.82,7.243-11.033,11.669-12.527a8.037,8.037,0,0,1,4.091-1.244c-.536.995-1.207,1.908-1.744,2.986q-.5,1.245-1.006,2.489s0,.083-.067.083c-3.018,1.908-5.633,5.558-7.578,8.462a55.091,55.091,0,0,0-6.639,14.6c-1.073,3.65-3.756,13.606-8.115,12.361-2.75-.746-1.207-5.06-.268-6.968a84.761,84.761,0,0,1-8.316,7.383c-5.567,4.48-11.535,8.711-16.3,14.435-5.3,6.388-8.852,14.518-13.882,21.155a132.737,132.737,0,0,1-25.485,25.054c-.939.747-2.883,1.825-3.956.83C533.23,456.759,534.907,453.358,535.778,452.113Z" fill="#d04823"/>
          <path id="Trazado_91" data-name="Trazado 91" d="M603.983,385.164c-1.342,1.327-2.616,2.821-3.957,4.231a40.993,40.993,0,0,1-5.7,4.729c-3.956,2.9-8.047,5.724-11.6,9.457-6.639,7.052-12,15.763-17.638,24.059a84.578,84.578,0,0,1-9.322,11.2c-3.42,3.485-6.706,7.135-10.26,10.453-1.811,1.743-3.756,3.07-5.7,4.646-1.006.83-2.28,2.323-3.554,2.406a2.324,2.324,0,0,1-2.012-.664,2.7,2.7,0,0,0,.536,2.406c1.073.913,3.018-.166,3.957-.829A135.234,135.234,0,0,0,564.214,432.2c5.029-6.637,8.584-14.767,13.882-21.155,4.761-5.725,10.73-10.039,16.3-14.435a87.538,87.538,0,0,0,8.115-7.135A11.384,11.384,0,0,0,603.983,385.164Z" fill="#d04823"/>
          <path id="Trazado_92" data-name="Trazado 92" d="M601.5,394.539c1.14.912,2.817-.581,3.89-1.991,3.085-4.065,3.286-10.038,4.895-14.933a37.546,37.546,0,0,1,10.06-15.68,21.73,21.73,0,0,1,5.9-3.65c-.336.83-.671,1.659-1.006,2.406,0,0,0,.083-.067.083-3.018,1.908-5.634,5.558-7.579,8.462a55.109,55.109,0,0,0-6.639,14.6c-1.073,3.65-3.756,13.6-8.115,12.361A1.975,1.975,0,0,1,601.5,394.539Z" fill="#d04823"/>
          <path id="Trazado_93" data-name="Trazado 93" d="M616.523,364.176a50.862,50.862,0,0,0-7.846,11.864c-.067.166,0,.415.134.166a27.685,27.685,0,0,0,3.42-4.729,66.231,66.231,0,0,1,4.359-7.218C616.657,364.176,616.657,364.011,616.523,364.176Z" fill="#d6862f"/>
          <path id="Trazado_94" data-name="Trazado 94" d="M559.52,427.474c-2.549,3.484-5.634,6.637-8.249,10.121-3.018,3.982-7.109,6.388-10.261,10.287-.134.166-.134.581.134.332,3.219-2.987,7.109-4.978,9.926-8.628,2.883-3.733,6.371-7.549,8.651-11.946C559.788,427.557,559.654,427.308,559.52,427.474Z" fill="#d6862f"/>
          <path id="Trazado_95" data-name="Trazado 95" d="M603.514,382.924c-5.164,6.222-12.809,7.964-17.839,14.6-.134.166-.067.5.134.331,5.567-5.641,13.078-7.881,17.839-14.766C603.716,382.924,603.648,382.675,603.514,382.924Z" fill="#d6862f"/>
          <path id="Trazado_96" data-name="Trazado 96" d="M606.062,383.422c-.2,1.327-1.073,2.488-1.475,3.733a19.136,19.136,0,0,0-.939,3.9c-.067.581.536.083.6-.166.6-1.41.805-2.987,1.342-4.48a7.765,7.765,0,0,0,.737-2.986C606.263,383.09,606.062,383.339,606.062,383.422Z" fill="#d6862f"/>
          <path id="Trazado_97" data-name="Trazado 97" d="M706.525,232.682c-3.555-10.453-8.518-20.076-16.833-25.386-.336-.249-1.141.664-.8,1,9.255,8.628,15.156,19.91,19.448,32.6C707.732,238.075,707.2,235.337,706.525,232.682Z" fill="#d04823"/>
          <path id="Trazado_98" data-name="Trazado 98" d="M695.123,213.353a63.589,63.589,0,0,1,4.963,7.3l.268.332c1.677,2.572,3.085,5.392,4.7,8.047-2.281-6.3-6.1-13.191-10.731-17.339A7.309,7.309,0,0,0,695.123,213.353Z" fill="#e8de42"/>
          <path id="Trazado_99" data-name="Trazado 99" d="M698.611,242.639a34.175,34.175,0,0,1,6.84,7.466c1.341,1.908,2.817,3.733,4.158,5.641-3.152-6.387-6.505-11.946-11.468-17.006-6.505-6.72-15.089-10.122-23.4-11.2-.671-.083-1.744,1.659-.939,1.825,8.249,2.406,15.894,5.144,22.869,11.366C697.4,241.394,698.007,242.058,698.611,242.639Z" fill="#d04823"/>
          <path id="Trazado_100" data-name="Trazado 100" d="M689.49,234.426c2.749,1.576,5.432,3.236,8.115,5.061a30.912,30.912,0,0,0-16.632-9.624C683.387,231.937,687.008,232.933,689.49,234.426Z" fill="#e8de42"/>
          <path id="Trazado_101" data-name="Trazado 101" d="M689.557,246.538a36.869,36.869,0,0,0-29.508.332c-.536.248-1.207,1.991-.2,1.659,5.5-1.991,24.411-3.4,28.1-2.406a14.453,14.453,0,0,1,1.609.415Z" fill="#d04823"/>
          <path id="Trazado_102" data-name="Trazado 102" d="M664.074,245.874c-.872.248-2.884.663-3.554,1.742h.134c2.816-1,5.7-1.411,8.517-2.489A17.7,17.7,0,0,0,664.074,245.874Z" fill="#e8de42"/>
          <path id="Trazado_103" data-name="Trazado 103" d="M688.753,261.055c-1.811.083-3.555.249-5.3.5a36.724,36.724,0,0,0-15.224,8.462c-.6.581-.67,2.157.335,1.493,11.871-7.217,23.205-11.531,36.484-7.383a.834.834,0,0,0,.4-.166C700.288,261.138,694.386,260.807,688.753,261.055Z" fill="#d04823"/>
          <path id="Trazado_104" data-name="Trazado 104" d="M670.176,269.185a11.008,11.008,0,0,0,3.018-1.327,19.838,19.838,0,0,0,3.219-2.489C674.133,265.95,672.188,267.609,670.176,269.185Z" fill="#e8de42"/>
          <path id="Trazado_105" data-name="Trazado 105" d="M730.8,230.692c3.889-10.205,9.187-19.579,17.705-24.391.335-.166,1.14.747.737,1-9.523,8.047-15.894,19-20.521,31.442C729.393,236.084,730.064,233.346,730.8,230.692Z" fill="#d04823"/>
          <path id="Trazado_106" data-name="Trazado 106" d="M742.874,212.108a54.205,54.205,0,0,0-5.164,6.969l-.269.332c-1.743,2.489-3.286,5.226-4.962,7.715,2.481-6.139,6.572-12.859,11.333-16.675A12.169,12.169,0,0,1,742.874,212.108Z" fill="#e8de42"/>
          <path id="Trazado_107" data-name="Trazado 107" d="M737.577,243.8a31.056,31.056,0,0,0-7.042,7.051c-1.408,1.825-2.951,3.567-4.359,5.393,3.353-6.222,6.907-11.532,12.071-16.344,6.707-6.3,15.425-9.208,23.808-9.872.671-.083,1.677,1.742.872,1.908-8.316,1.908-16.1,4.231-23.271,10.038C738.851,242.555,738.247,243.219,737.577,243.8Z" fill="#d04823"/>
          <path id="Trazado_108" data-name="Trazado 108" d="M746.966,236.084c-2.817,1.41-5.567,2.9-8.249,4.562a30.148,30.148,0,0,1,16.967-8.71C753.2,233.927,749.581,234.756,746.966,236.084Z" fill="#e8de42"/>
          <path id="Trazado_109" data-name="Trazado 109" d="M748.307,243.633c8.181-6.969,18.576-10.7,28.368-9.706.6.083,1.609,1.493.6,1.493-5.7-.083-24.21,5.06-27.563,7.217-.469.332-.872.664-1.408,1Z" fill="#d04823"/>
          <path id="Trazado_110" data-name="Trazado 110" d="M772.584,234.34c.872-.083,2.951-.331,3.823.5l-.068.083c-2.95,0-5.834.581-8.718.581A14.637,14.637,0,0,1,772.584,234.34Z" fill="#e8de42"/>
          <path id="Trazado_111" data-name="Trazado 111" d="M748.038,262.217a39.033,39.033,0,0,1,5.3.83,38.3,38.3,0,0,1,14.888,9.291c.6.581.6,2.157-.4,1.494-11.6-7.882-22.735-12.859-36.148-9.458a.549.549,0,0,1-.4-.249C736.5,261.636,742.471,261.636,748.038,262.217Z" fill="#d04823"/>
          <path id="Trazado_112" data-name="Trazado 112" d="M766.345,271.425a12.91,12.91,0,0,1-2.951-1.493,33.306,33.306,0,0,1-3.152-2.655C762.522,268.024,764.4,269.766,766.345,271.425Z" fill="#e8de42"/>
          <path id="Trazado_113" data-name="Trazado 113" d="M794.447,276.32c1.542,1.161,2.951,2.406,4.359,3.65a48.843,48.843,0,0,1,9.792,16.592c.335.83-.269,2.24-.872,1.079-7.377-13.523-15.425-24.059-28.7-28.539a.821.821,0,0,1-.268-.414C784.454,269.434,789.685,272.753,794.447,276.32Z" fill="#d04823"/>
          <path id="Trazado_114" data-name="Trazado 114" d="M807.323,294.653a14.454,14.454,0,0,1-2.079-2.986,30.453,30.453,0,0,1-1.81-4.065C805.177,289.51,806.183,292.164,807.323,294.653Z" fill="#e8de42"/>
          <path id="Trazado_115" data-name="Trazado 115" d="M652.135,346.171a1.789,1.789,0,0,0-1.944.829,1.974,1.974,0,0,0-.939,1.494,2.542,2.542,0,0,0,.8,2.074c.6.58,1.408,0,1.81-.5C652.806,349.074,654.013,346.751,652.135,346.171Z" fill="#4d4d4a"/>
          <path id="Trazado_116" data-name="Trazado 116" d="M650.862,347.416a.72.72,0,0,0-.738.332.552.552,0,0,0-.335.581c-.067.249.134.58.268.829.2.249.536,0,.671-.166C651.063,348.495,651.532,347.665,650.862,347.416Z" fill="#70706b"/>
          <path id="Trazado_117" data-name="Trazado 117" d="M635.771,360.772a2.8,2.8,0,0,0-3.353-.332,2.51,2.51,0,0,0-2.146,1.493,4.8,4.8,0,0,0,.134,3.734c.536,1.327,2.079,1.078,3.018.663C635.3,365.584,638.319,363.1,635.771,360.772Z" fill="#4d4d4a"/>
          <path id="Trazado_118" data-name="Trazado 118" d="M633.156,361.6a1.041,1.041,0,0,0-1.275-.083.862.862,0,0,0-.8.581,1.721,1.721,0,0,0,.067,1.41c.2.5.8.415,1.14.249C632.954,363.427,634.094,362.515,633.156,361.6Z" fill="#70706b"/>
          <path id="Trazado_119" data-name="Trazado 119" d="M608.074,343.516a2.809,2.809,0,0,0-3.354-.332,2.511,2.511,0,0,0-2.146,1.494,4.83,4.83,0,0,0,.134,3.733c.537,1.327,2.079,1.078,3.018.663C607.6,348.328,610.622,345.756,608.074,343.516Z" fill="#4d4d4a"/>
          <path id="Trazado_120" data-name="Trazado 120" d="M605.458,344.346a1.045,1.045,0,0,0-1.274-.083.863.863,0,0,0-.8.581,1.729,1.729,0,0,0,.067,1.41c.2.5.8.415,1.14.249C605.257,346.171,606.4,345.259,605.458,344.346Z" fill="#70706b"/>
          <path id="Trazado_121" data-name="Trazado 121" d="M654.55,328.583a1.79,1.79,0,0,0-1.945.829,1.974,1.974,0,0,0-.939,1.494,2.542,2.542,0,0,0,.8,2.074c.6.58,1.408,0,1.81-.5C655.22,331.4,656.494,329.081,654.55,328.583Z" fill="#4d4d4a"/>
          <path id="Trazado_122" data-name="Trazado 122" d="M653.276,329.744a.72.72,0,0,0-.738.332.552.552,0,0,0-.335.581c-.067.249.134.581.268.829.2.249.537,0,.671-.166C653.544,330.906,653.946,329.993,653.276,329.744Z" fill="#70706b"/>
          <path id="Trazado_123" data-name="Trazado 123" d="M665.481,336.88a3.17,3.17,0,0,0-1.275-.995c-1.14-.5-1.676,1.576-1.609,2.571a2.6,2.6,0,0,0-.067,1c.134,1.742,2.548-.083,2.951-.664A1.66,1.66,0,0,0,665.481,336.88Z" fill="#4d4d4a"/>
          <path id="Trazado_124" data-name="Trazado 124" d="M664.073,337.627c-.067-.165-.335-.248-.47-.331-.4-.166-.6.5-.536.912,0,.166-.067.249,0,.332.067.581.872,0,1.006-.249A.6.6,0,0,0,664.073,337.627Z" fill="#70706b"/>
          <path id="Trazado_125" data-name="Trazado 125" d="M671.785,314.813c-.268-.083-2.213.249-2.616.913a8.257,8.257,0,0,0-.737,1.244c0,.083-.067.083-.067.166a2.492,2.492,0,0,0-.4,1c-.268,1.244.47,1.659,1.341,1.908a3.855,3.855,0,0,0,2.549.249,3.424,3.424,0,0,0,1.677-3.153A2.577,2.577,0,0,0,671.785,314.813Z" fill="#4d4d4a"/>
          <path id="Trazado_126" data-name="Trazado 126" d="M670.711,315.477c-.134,0-1.14.083-1.341.5a4.66,4.66,0,0,0-.4.664v.083a1.557,1.557,0,0,0-.2.5c-.135.663.268.829.67.995a1.427,1.427,0,0,0,2.213-1.493A1.321,1.321,0,0,0,670.711,315.477Z" fill="#70706b"/>
          <path id="Trazado_127" data-name="Trazado 127" d="M638.455,307.18c-.268-.082-2.213.249-2.616.913a8.257,8.257,0,0,0-.737,1.244c0,.083-.068.083-.068.166a2.5,2.5,0,0,0-.4,1c-.268,1.244.47,1.659,1.341,1.908a3.849,3.849,0,0,0,2.549.249A3.421,3.421,0,0,0,640.2,309.5,2.486,2.486,0,0,0,638.455,307.18Z" fill="#4d4d4a"/>
          <path id="Trazado_128" data-name="Trazado 128" d="M637.381,307.762c-.134,0-1.14.083-1.341.5a4.658,4.658,0,0,0-.4.664v.083a1.56,1.56,0,0,0-.2.5c-.134.664.269.829.671.995a1.516,1.516,0,0,0,1.341.083,1.874,1.874,0,0,0,.872-1.659A1.3,1.3,0,0,0,637.381,307.762Z" fill="#70706b"/>
          <path id="Trazado_129" data-name="Trazado 129" d="M678.155,253.754c-.134,0-1.341.166-1.609.581-.134.249-.336.5-.47.746,0,.083,0,.083-.067.083a1.441,1.441,0,0,0-.268.581c-.2.747.268.995.8,1.161a2.49,2.49,0,0,0,1.542.166,2.03,2.03,0,0,0,1.006-1.908A1.255,1.255,0,0,0,678.155,253.754Z" fill="#4d4d4a"/>
          <path id="Trazado_130" data-name="Trazado 130" d="M677.484,254.086c-.067,0-.671.083-.8.249a1.8,1.8,0,0,0-.268.415v.083a.468.468,0,0,0-.134.331c-.067.415.134.5.4.581a1.353,1.353,0,0,0,.8.083,1.108,1.108,0,0,0,.536-1A.691.691,0,0,0,677.484,254.086Z" fill="#70706b"/>
          <path id="Trazado_131" data-name="Trazado 131" d="M657.231,280.965c-.2-.083-1.945.166-2.347.829a7.2,7.2,0,0,0-.671,1.162c0,.083-.067.083-.067.166a4.667,4.667,0,0,0-.4.829c-.268,1.079.469,1.493,1.207,1.742a3.634,3.634,0,0,0,2.28.249,3.13,3.13,0,0,0,1.543-2.82A2.358,2.358,0,0,0,657.231,280.965Z" fill="#4d4d4a"/>
          <path id="Trazado_132" data-name="Trazado 132" d="M656.291,281.545c-.134,0-1.006.083-1.207.415a1.526,1.526,0,0,0-.335.58v.083c-.067.166-.134.249-.2.415-.135.581.2.747.6.913a1.535,1.535,0,0,0,1.207.083,1.681,1.681,0,0,0,.805-1.494A1.465,1.465,0,0,0,656.291,281.545Z" fill="#70706b"/>
          <path id="Trazado_133" data-name="Trazado 133" d="M698.008,320.951c-.134-.083-1.409-.664-1.811-.415a8.39,8.39,0,0,0-.8.5c-.067,0-.067.083-.067.083a2.339,2.339,0,0,0-.536.415c-.47.663-.135,1.161.335,1.659a2.535,2.535,0,0,0,1.475,1.078,1.843,1.843,0,0,0,1.811-1.327A1.717,1.717,0,0,0,698.008,320.951Z" fill="#4d4d4a"/>
          <path id="Trazado_134" data-name="Trazado 134" d="M697.2,320.951a1.642,1.642,0,0,0-.939-.249l-.4.249h-.067c-.067.083-.2.083-.268.249-.268.332-.067.581.134.83a1.732,1.732,0,0,0,.738.58.888.888,0,0,0,.938-.663A.721.721,0,0,0,697.2,320.951Z" fill="#70706b"/>
          <path id="Trazado_135" data-name="Trazado 135" d="M785.46,353.971c.4.5,1.207,1.078,1.81.581a2.689,2.689,0,0,0,.872-2.074,1.763,1.763,0,0,0-.872-1.494,1.889,1.889,0,0,0-1.945-.912C783.448,350.487,784.521,352.809,785.46,353.971Z" fill="#4d4d4a"/>
          <path id="Trazado_136" data-name="Trazado 136" d="M786.666,352.809c.134.166.469.415.671.249a1.068,1.068,0,0,0,.335-.747.63.63,0,0,0-.335-.581.72.72,0,0,0-.738-.331C785.861,351.564,786.331,352.394,786.666,352.809Z" fill="#70706b"/>
          <path id="Trazado_137" data-name="Trazado 137" d="M803.366,371.309c.939.5,2.414.747,3.018-.5a4.81,4.81,0,0,0,.2-3.733,2.714,2.714,0,0,0-2.079-1.659,2.788,2.788,0,0,0-3.353.083C798.537,367.742,801.488,370.4,803.366,371.309Z" fill="#4d4d4a"/>
          <path id="Trazado_138" data-name="Trazado 138" d="M804.639,368.737c.335.166.939.249,1.14-.166a1.728,1.728,0,0,0,.067-1.411.862.862,0,0,0-.8-.58,1.047,1.047,0,0,0-1.275.083C802.761,367.326,803.9,368.4,804.639,368.737Z" fill="#70706b"/>
          <path id="Trazado_139" data-name="Trazado 139" d="M831.667,355.629c.938.5,2.414.747,3.017-.5a4.809,4.809,0,0,0,.2-3.734,2.555,2.555,0,0,0-2.079-1.659,2.793,2.793,0,0,0-3.354.083C826.838,352.062,829.722,354.717,831.667,355.629Z" fill="#4d4d4a"/>
          <path id="Trazado_140" data-name="Trazado 140" d="M832.874,353.057c.335.166.939.249,1.14-.166a1.729,1.729,0,0,0,.067-1.41.863.863,0,0,0-.8-.581,1.045,1.045,0,0,0-1.274.083C831.063,351.73,832.136,352.725,832.874,353.057Z" fill="#70706b"/>
          <path id="Trazado_141" data-name="Trazado 141" d="M783.649,336.133c.4.5,1.207,1.161,1.811.581a2.692,2.692,0,0,0,.872-2.074,1.765,1.765,0,0,0-.872-1.494,1.889,1.889,0,0,0-1.945-.912C781.637,332.732,782.777,335.055,783.649,336.133Z" fill="#4d4d4a"/>
          <path id="Trazado_142" data-name="Trazado 142" d="M784.857,335.055c.135.166.47.415.671.249a1.068,1.068,0,0,0,.335-.747.63.63,0,0,0-.335-.581.72.72,0,0,0-.738-.331C784.053,333.728,784.522,334.64,784.857,335.055Z" fill="#70706b"/>
          <path id="Trazado_143" data-name="Trazado 143" d="M772.315,339.949a4.152,4.152,0,0,1,1.342-.912c1.14-.415,1.609,1.659,1.542,2.654a5.874,5.874,0,0,1,.067,1c-.2,1.742-2.548-.249-2.884-.83A1.559,1.559,0,0,1,772.315,339.949Z" fill="#4d4d4a"/>
          <path id="Trazado_144" data-name="Trazado 144" d="M773.725,340.779a2.84,2.84,0,0,1,.469-.331c.4-.166.537.58.537.912v.332c-.067.581-.872-.083-1.006-.249C773.591,341.194,773.523,340.945,773.725,340.779Z" fill="#70706b"/>
          <path id="Trazado_145" data-name="Trazado 145" d="M766.815,317.551c.269-.082,2.146.332,2.549,1.079.2.415.536.83.738,1.327,0,.083.067.083.067.166a3.113,3.113,0,0,1,.4,1c.268,1.244-.537,1.659-1.408,1.825a3.391,3.391,0,0,1-2.549.083,3.6,3.6,0,0,1-1.609-3.236A2.435,2.435,0,0,1,766.815,317.551Z" fill="#4d4d4a"/>
          <path id="Trazado_146" data-name="Trazado 146" d="M767.82,318.215c.135,0,1.141.166,1.342.581a4.587,4.587,0,0,1,.4.663v.083a1.558,1.558,0,0,1,.2.5c.134.664-.268.83-.737.995a2.431,2.431,0,0,1-1.342.083,1.7,1.7,0,0,1-.8-1.659A1.322,1.322,0,0,1,767.82,318.215Z" fill="#70706b"/>
          <path id="Trazado_147" data-name="Trazado 147" d="M800.349,311.827c.268-.083,2.146.332,2.548,1.078.2.415.537.83.738,1.328,0,.083.067.083.067.166a3.1,3.1,0,0,1,.4,1c.268,1.245-.536,1.659-1.408,1.908a3.391,3.391,0,0,1-2.549.083,3.6,3.6,0,0,1-1.609-3.235A2.536,2.536,0,0,1,800.349,311.827Z" fill="#4d4d4a"/>
          <path id="Trazado_148" data-name="Trazado 148" d="M801.422,312.49c.134,0,1.14.166,1.341.581a4.661,4.661,0,0,1,.4.664v.083a1.553,1.553,0,0,1,.2.5c.134.664-.268.83-.738,1a2.468,2.468,0,0,1-1.341.083,1.7,1.7,0,0,1-.805-1.659A1.323,1.323,0,0,1,801.422,312.49Z" fill="#70706b"/>
          <path id="Trazado_149" data-name="Trazado 149" d="M762.59,256.16c.134,0,1.341.249,1.543.664a2.957,2.957,0,0,1,.4.829c0,.083,0,.083.067.083a2.252,2.252,0,0,1,.268.581c.134.747-.335,1-.872,1.162a2,2,0,0,1-1.542.083,2.121,2.121,0,0,1-.939-1.992A1.484,1.484,0,0,1,762.59,256.16Z" fill="#4d4d4a"/>
          <path id="Trazado_150" data-name="Trazado 150" d="M763.2,256.574c.067,0,.67.083.8.332a1.94,1.94,0,0,1,.2.415v.083a.471.471,0,0,1,.135.332c.067.414-.2.5-.47.58a.914.914,0,0,1-.8,0,1.01,1.01,0,0,1-.469-.995C762.658,256.906,762.926,256.574,763.2,256.574Z" fill="#70706b"/>
          <path id="Trazado_151" data-name="Trazado 151" d="M782.509,284.615c.2,0,1.945.332,2.28.913.2.332.47.746.671,1.161,0,.083.067.083.067.166a3.456,3.456,0,0,1,.335.913c.2,1.161-.469,1.493-1.274,1.659a3.1,3.1,0,0,1-2.28.083,3.175,3.175,0,0,1-1.408-2.9A2.282,2.282,0,0,1,782.509,284.615Z" fill="#4d4d4a"/>
          <path id="Trazado_152" data-name="Trazado 152" d="M783.449,285.2c.134,0,1.006.166,1.207.5a2.593,2.593,0,0,1,.335.581v.083l.2.5c.135.58-.268.746-.67.829a2.011,2.011,0,0,1-1.207.083,1.588,1.588,0,0,1-.738-1.493A1.312,1.312,0,0,1,783.449,285.2Z" fill="#70706b"/>
          <path id="Trazado_153" data-name="Trazado 153" d="M740.392,322.2c.134-.083,1.409-.581,1.811-.332.2.166.537.249.738.5.067,0,.067.083.067.083a2.988,2.988,0,0,1,.469.414c.47.664.067,1.162-.4,1.66a2.6,2.6,0,0,1-1.476.995,1.849,1.849,0,0,1-1.743-1.41A1.831,1.831,0,0,1,740.392,322.2Z" fill="#4d4d4a"/>
          <path id="Trazado_154" data-name="Trazado 154" d="M741.2,322.2c.067-.083.738-.331.939-.166l.4.249.067.083c.067.083.2.166.268.249.269.332.068.581-.2.83s-.469.5-.8.5a1.065,1.065,0,0,1-.938-.746A.94.94,0,0,1,741.2,322.2Z" fill="#70706b"/>
          <path id="Trazado_155" data-name="Trazado 155" d="M719.534,281.048c.6.083,1.543,0,1.744-.913a3.181,3.181,0,0,0-.336-2.24,1.53,1.53,0,0,0-1.475-.58,1.7,1.7,0,0,0-1.945.746C716.248,279.8,718.327,280.8,719.534,281.048Z" fill="#4d4d4a"/>
          <path id="Trazado_156" data-name="Trazado 156" d="M719.937,279.223c.2,0,.6,0,.671-.332a.9.9,0,0,0-.134-.83.688.688,0,0,0-.537-.249.664.664,0,0,0-.738.249C718.663,278.808,719.468,279.14,719.937,279.223Z" fill="#70706b"/>
          <path id="Trazado_157" data-name="Trazado 157" d="M728.454,298.884c.939-.332,2.28-1.244,2.079-2.654-.134-1.162-.738-2.655-1.677-3.07a2.231,2.231,0,0,0-2.481.332,3.53,3.53,0,0,0-2.549,2.572C722.888,299.631,726.509,299.548,728.454,298.884Z" fill="#4d4d4a"/>
          <path id="Trazado_158" data-name="Trazado 158" d="M728.119,295.9c.335-.166.872-.5.8-1-.067-.415-.268-.995-.671-1.161a.943.943,0,0,0-.939.083,1.327,1.327,0,0,0-1.006.995C726.04,296.23,727.381,296.147,728.119,295.9Z" fill="#70706b"/>
          <path id="Trazado_159" data-name="Trazado 159" d="M789.081,229.281c.939-.332,2.28-1.245,2.079-2.655-.134-1.161-.737-2.655-1.676-3.069a2.234,2.234,0,0,0-2.482.331,3.528,3.528,0,0,0-2.548,2.572C783.448,230.11,787.136,229.945,789.081,229.281Z" fill="#4d4d4a"/>
          <path id="Trazado_160" data-name="Trazado 160" d="M788.746,226.294c.336-.166.872-.5.805-1-.067-.415-.268-1-.671-1.162a.943.943,0,0,0-.939.083,1.325,1.325,0,0,0-1.005,1C786.6,226.626,788.009,226.626,788.746,226.294Z" fill="#70706b"/>
          <path id="Trazado_161" data-name="Trazado 161" d="M745.421,244.96c.6.083,1.542,0,1.743-.913a3.185,3.185,0,0,0-.335-2.24,1.53,1.53,0,0,0-1.475-.58,1.7,1.7,0,0,0-1.945.746C742.067,243.8,744.146,244.794,745.421,244.96Z" fill="#4d4d4a"/>
          <path id="Trazado_162" data-name="Trazado 162" d="M745.824,243.217c.2,0,.6,0,.67-.332a1.151,1.151,0,0,0-.134-.83.794.794,0,0,0-.536-.248.664.664,0,0,0-.738.248C744.549,242.719,745.354,243.134,745.824,243.217Z" fill="#70706b"/>
          <path id="Trazado_163" data-name="Trazado 163" d="M711.084,264.706a4.291,4.291,0,0,1,.6-1.66c.738-1.161,2.146.083,2.549.913a2.954,2.954,0,0,1,.6.747c.738,1.576-2.079,1.742-2.682,1.493A1.327,1.327,0,0,1,711.084,264.706Z" fill="#4d4d4a"/>
          <path id="Trazado_164" data-name="Trazado 164" d="M712.627,264.292a2,2,0,0,1,.2-.581c.268-.415.738,0,.872.332l.2.249c.268.5-.738.581-.939.5C712.761,264.79,712.627,264.624,712.627,264.292Z" fill="#70706b"/>
          <path id="Trazado_165" data-name="Trazado 165" d="M695.324,254.832c.2-.249,1.878-1.327,2.548-1.078a11.1,11.1,0,0,1,1.208.5c.067,0,.067.083.134.083a2.123,2.123,0,0,1,.8.5c.871.83.4,1.66-.135,2.489a4.5,4.5,0,0,1-1.944,1.991,2.5,2.5,0,0,1-2.884-1.41A3.141,3.141,0,0,1,695.324,254.832Z" fill="#4d4d4a"/>
          <path id="Trazado_166" data-name="Trazado 166" d="M696.464,254.583c.067-.083,1.006-.664,1.341-.581a1.876,1.876,0,0,1,.6.249s.067,0,.067.083l.4.249c.47.415.2.913-.067,1.327a2.157,2.157,0,0,1-1.006,1,1.3,1.3,0,0,1-1.475-.747A1.481,1.481,0,0,1,696.464,254.583Z" fill="#70706b"/>
          <path id="Trazado_167" data-name="Trazado 167" d="M718.931,221.483c.2-.249,1.878-1.328,2.549-1.079a11.086,11.086,0,0,1,1.207.5c.067,0,.067.083.134.083a2.132,2.132,0,0,1,.8.5c.872.829.4,1.659-.134,2.489a4.505,4.505,0,0,1-1.945,1.991,2.506,2.506,0,0,1-2.884-1.411A3.125,3.125,0,0,1,718.931,221.483Z" fill="#4d4d4a"/>
          <path id="Trazado_168" data-name="Trazado 168" d="M720.071,221.233c.067-.083,1.006-.663,1.342-.58a1.861,1.861,0,0,1,.6.249s.067,0,.067.082l.4.249c.4.415.2.913-.067,1.328a2.16,2.16,0,0,1-1.006.995,1.3,1.3,0,0,1-1.476-.746A1.644,1.644,0,0,1,720.071,221.233Z" fill="#70706b"/>
          <path id="Trazado_169" data-name="Trazado 169" d="M789.214,259.313c.134-.166,1.14-.829,1.542-.664a4.505,4.505,0,0,1,.738.332c.067,0,.067,0,.067.083a1.054,1.054,0,0,1,.469.332c.537.5.269,1-.067,1.493a2.535,2.535,0,0,1-1.207,1.162,1.5,1.5,0,0,1-1.743-.83A1.94,1.94,0,0,1,789.214,259.313Z" fill="#4d4d4a"/>
          <path id="Trazado_170" data-name="Trazado 170" d="M789.952,259.23c.067-.083.6-.415.8-.332.134.083.268.083.4.166h.067a.477.477,0,0,1,.269.166c.268.249.134.5-.067.746a2.585,2.585,0,0,1-.6.664.882.882,0,0,1-.872-1.41Z" fill="#70706b"/>
          <path id="Trazado_171" data-name="Trazado 171" d="M691.166,213.353c.134-.166,1.676-1.244,2.28-1,.335.166.738.249,1.073.415.067,0,.067.083.134.083a2.291,2.291,0,0,1,.738.415c.738.747.335,1.493-.134,2.24a3.832,3.832,0,0,1-1.744,1.742,2.291,2.291,0,0,1-2.615-1.244A2.42,2.42,0,0,1,691.166,213.353Z" fill="#4d4d4a"/>
          <path id="Trazado_172" data-name="Trazado 172" d="M692.172,213.188c.067-.083.872-.664,1.208-.5a1.861,1.861,0,0,1,.6.249h.067c.134.083.268.083.4.249.4.414.2.829-.068,1.161a2.435,2.435,0,0,1-.871.913,1.378,1.378,0,0,1-1.342-2.074Z" fill="#70706b"/>
          <path id="Trazado_173" data-name="Trazado 173" d="M677.016,274.66c.067-.166.8-1.493,1.274-1.576a2.811,2.811,0,0,1,.872-.166h.067a1.481,1.481,0,0,1,.6,0c.737.166.67.912.536,1.576a4.483,4.483,0,0,1-.67,1.908,1.653,1.653,0,0,1-2.079.249A1.946,1.946,0,0,1,677.016,274.66Z" fill="#4d4d4a"/>
          <path id="Trazado_174" data-name="Trazado 174" d="M677.687,274.079c0-.083.4-.747.671-.83.134,0,.268-.083.469-.083h.4c.336.083.336.5.269.83a2.412,2.412,0,0,1-.336.995.77.77,0,0,1-1.073.083A.761.761,0,0,1,677.687,274.079Z" fill="#70706b"/>
        </g>
      </g>
    </g>
  </g>
</svg>
