<svg width="32" height="32" viewBox="0 0 32 32" fill="none" xmlns="http://www.w3.org/2000/svg">
<path d="M21.5508 12.9062C22.0977 12.4961 22.5898 12.0039 22.9727 11.4297C22.4805 11.6484 21.9062 11.8125 21.332 11.8672C21.9336 11.5117 22.3711 10.9648 22.5898 10.2812C22.043 10.6094 21.4141 10.8555 20.7852 10.9922C20.2383 10.418 19.5 10.0898 18.6797 10.0898C17.0938 10.0898 15.8086 11.375 15.8086 12.9609C15.8086 13.1797 15.8359 13.3984 15.8906 13.6172C13.5117 13.4805 11.3789 12.332 9.95703 10.6094C9.71094 11.0195 9.57422 11.5117 9.57422 12.0586C9.57422 13.043 10.0664 13.918 10.8594 14.4375C10.3945 14.4102 9.92969 14.3008 9.54688 14.082V14.1094C9.54688 15.5039 10.5312 16.6523 11.8438 16.9258C11.625 16.9805 11.3516 17.0352 11.1055 17.0352C10.9141 17.0352 10.75 17.0078 10.5586 16.9805C10.9141 18.1289 11.9805 18.9492 13.2383 18.9766C12.2539 19.7422 11.0234 20.207 9.68359 20.207C9.4375 20.207 9.21875 20.1797 9 20.1523C10.2578 20.9727 11.7617 21.4375 13.4023 21.4375C18.6797 21.4375 21.5508 17.0898 21.5508 13.2891C21.5508 13.1523 21.5508 13.043 21.5508 12.9062Z" fill="white"/>
<rect x="0.5" y="0.5" width="31" height="31" rx="15.5" stroke="white"/>
</svg>
