<svg width="32" height="32" viewBox="0 0 32 32" fill="none" xmlns="http://www.w3.org/2000/svg">
<path d="M23.1367 12.168C22.9727 11.5117 22.4531 10.9922 21.8242 10.8281C20.6484 10.5 16 10.5 16 10.5C16 10.5 11.3242 10.5 10.1484 10.8281C9.51953 10.9922 9 11.5117 8.83594 12.168C8.50781 13.3164 8.50781 15.7773 8.50781 15.7773C8.50781 15.7773 8.50781 18.2109 8.83594 19.3867C9 20.043 9.51953 20.5352 10.1484 20.6992C11.3242 21 16 21 16 21C16 21 20.6484 21 21.8242 20.6992C22.4531 20.5352 22.9727 20.043 23.1367 19.3867C23.4648 18.2109 23.4648 15.7773 23.4648 15.7773C23.4648 15.7773 23.4648 13.3164 23.1367 12.168ZM14.4688 17.9922V13.5625L18.3516 15.7773L14.4688 17.9922Z" fill="white"/>
<rect x="0.5" y="0.5" width="31" height="31" rx="15.5" stroke="white"/>
</svg>
